SplineFontDB: 3.2
FontName: RallyDisplay-Light
FullName: Rally Display Light
FamilyName: Rally Display
Weight: Light
Copyright: Copyright (c) 2023-2024, Zamero Type Foundry
UComments: "2023-12-31: Created with FontForge (http://fontforge.org)+AAoACgAK-Magical cartoon rabbit. :)"
Version: 001.000
ItalicAngle: 0
UnderlinePosition: -100
UnderlineWidth: 50
Ascent: 800
Descent: 200
InvalidEm: 0
LayerCount: 2
Layer: 0 0 "Back" 1
Layer: 1 0 "Fore" 0
XUID: [1021 474 1118879153 10182]
StyleMap: 0x0000
FSType: 0
OS2Version: 0
OS2_WeightWidthSlopeOnly: 0
OS2_UseTypoMetrics: 1
CreationTime: 1704051534
ModificationTime: 1732898433
PfmFamily: 81
TTFWeight: 300
TTFWidth: 5
LineGap: 90
VLineGap: 90
OS2TypoAscent: 0
OS2TypoAOffset: 1
OS2TypoDescent: 0
OS2TypoDOffset: 1
OS2TypoLinegap: 90
OS2WinAscent: 0
OS2WinAOffset: 1
OS2WinDescent: 0
OS2WinDOffset: 1
HheadAscent: 0
HheadAOffset: 1
HheadDescent: 0
HheadDOffset: 1
OS2Vendor: 'ZAM '
Lookup: 1 0 0 "'subs' Subscript lookup 0" { "'subs' Subscript lookup 0 subtable" ("inferior") } ['subs' ('DFLT' <'dflt' > ) ]
Lookup: 1 0 0 "'onum' Oldstyle Figures lookup 27" { "'onum' Oldstyle Figures lookup 27-1" ("osf") } ['onum' ('DFLT' <'dflt' > 'grek' <'dflt' > 'latn' <'AZE ' 'CAT ' 'CRT ' 'KAZ ' 'MOL ' 'NLD ' 'ROM ' 'TAT ' 'TRK ' 'dflt' > ) ]
Lookup: 1 0 0 "'ss16' Style Set 16 lookup 26" { "'ss16' Style Set 16 lookup 26-1" ("ss16") } ['ss16' ('DFLT' <'dflt' > 'grek' <'dflt' > 'latn' <'AZE ' 'CAT ' 'CRT ' 'KAZ ' 'MOL ' 'NLD ' 'ROM ' 'TAT ' 'TRK ' 'dflt' > ) ]
Lookup: 1 0 0 "'init' Initial Forms lookup 24" { "'init' Initial Forms lookup 24-1" ("init") } ['init' ('DFLT' <'dflt' > 'grek' <'dflt' > 'latn' <'AZE ' 'CAT ' 'CRT ' 'KAZ ' 'MOL ' 'NLD ' 'ROM ' 'TAT ' 'TRK ' 'dflt' > ) ]
Lookup: 1 0 0 "'fina' Terminal Forms lookup 25" { "'fina' Terminal Forms lookup 25-1" ("fina") } ['fina' ('DFLT' <'dflt' > 'grek' <'dflt' > 'latn' <'AZE ' 'CAT ' 'CRT ' 'KAZ ' 'MOL ' 'NLD ' 'ROM ' 'TAT ' 'TRK ' 'dflt' > ) ]

StartChar: dotlessi
Encoding: 239 305 1
Width: 310
Flags: W
HStem: 0 21G<136.08 235.259> 419.069 77.9418<18.5201 139.666>
VStem: 139.666 90.1631<0 419.069>
LayerCount: 2
Back
SplineSet
274.729492188 496.93359375 m 5
 280.159179688 0 l 5
 83.830078125 0 l 5
 90 496.93359375 l 5
 274.729492188 496.93359375 l 5
EndSplineSet
Fore
SplineSet
229.829492188 497.010742188 m 1
 235.259179688 0 l 1
 136.080078125 0 l 1
 139.666367188 419.068984375 l 1
 14.9 417.065078125 l 1
 18.5201171875 497.010742188 l 1
 229.829492188 497.010742188 l 1
EndSplineSet
EndChar

StartChar: period
Encoding: 14 46 2
Width: 270
Flags: W
HStem: -10 130<89.5623 190.438>
VStem: 75 130<4.56229 105.438>
LayerCount: 2
Fore
SplineSet
75 55 m 0
 75 94.7224786936 100.277521307 120 140 120 c 0
 179.722478694 120 205 94.7224786936 205 55 c 0
 205 15.2775213069 179.722478694 -10 140 -10 c 0
 100.277521307 -10 75 15.2775213069 75 55 c 0
EndSplineSet
EndChar

StartChar: o
Encoding: 79 111 3
Width: 565
Flags: W
HStem: -10.0664 87.4248<200.826 363.386> 419.509 87.4248<200.826 363.386>
VStem: 31.25 93.625<155.157 343.308> 439.125 94.875<155.157 343.308>
LayerCount: 2
Fore
SplineSet
124.875 249.858398438 m 0
 124.875 144.441534744 185.98862817 77.3583984375 282.025390625 77.3583984375 c 0
 378.031115275 77.3583984375 439.125 144.441534744 439.125 249.858398438 c 0
 439.125 353.534236441 378.031115275 419.508789062 282.025390625 419.508789062 c 0
 185.98862817 419.508789062 124.875 353.534236441 124.875 249.858398438 c 0
31.25 249.93359375 m 0
 31.25 406.989257812 128.763783021 506.93359375 282 506.93359375 c 0
 436.000317951 506.93359375 534 406.989257812 534 249.93359375 c 0
 534 91.0439453125 436.000317951 -10.06640625 282 -10.06640625 c 0
 128.763783021 -10.06640625 31.25 91.0439453125 31.25 249.93359375 c 0
EndSplineSet
EndChar

StartChar: slash
Encoding: 15 47 4
Width: 497
Flags: W
LayerCount: 2
Back
SplineSet
1 -123.994140625 m 1
 198.637695312 379 l 1
 317 815.001953125 l 1
 506 763.001953125 l 1
 328.983398438 331 l 1
 190 -175.994140625 l 1
 1 -123.994140625 l 1
EndSplineSet
Fore
SplineSet
48.5 -138.994140625 m 1
 364.5 805.001953125 l 1
 448.5 778.001953125 l 1
 132.5 -165.994140625 l 1
 48.5 -138.994140625 l 1
EndSplineSet
Substitution2: "'frac' Diagonal Fractions in Latin lookup 25 subtable" fraction
EndChar

StartChar: d
Encoding: 68 100 5
Width: 672
Flags: W
HStem: -10.0664 86<202.553 371.259> 0 78.4268<551.849 658.38> 421.434 85.5<202.553 369.123> 735.002 20G<458.125 549.249>
VStem: 30 94.25<153.154 342.217> 453.521 54.4795<114.694 410.49> 458.25 90.9199<258.934 755.002>
LayerCount: 2
Back
SplineSet
387.270507812 755.001953125 m 5
 381.840820312 0 l 5
 578.169921875 0 l 5
 573.848632812 604.075195312 l 5
 672 602.071289062 l 5
 668.379882812 755.001953125 l 5
 387.270507812 755.001953125 l 5
EndSplineSet
Fore
SplineSet
448 246.93359375 m 0xb8
 448 353.572861328 385.000606143 421.43359375 286 421.43359375 c 0
 187.151780562 421.43359375 124.25 353.572861328 124.25 246.93359375 c 0
 124.25 142.432637323 187.151780562 75.93359375 286 75.93359375 c 0
 385.000606143 75.93359375 448 142.432637323 448 246.93359375 c 0xb8
508 258.93359375 m 0xbc
 508 114.694209715 424.793777533 -10.06640625 268 -10.06640625 c 0
 122.554875959 -10.06640625 30 89.8779296875 30 246.93359375 c 0
 30 405.823242188 122.554875959 506.93359375 268 506.93359375 c 0
 414.667125551 506.93359375 508 410.489752662 508 258.93359375 c 0xbc
453.520507812 0 m 1x7c
 458.25 755.001953125 l 1
 549.169921875 755.001953125 l 1x7a
 551.848632812 78.4267578125 l 1
 662 80.4306640625 l 1
 658.379882812 0 l 1
 453.520507812 0 l 1x7c
EndSplineSet
EndChar

StartChar: p
Encoding: 80 112 6
Width: 662
Flags: W
HStem: -10.0664 86<295.034 459.593> 419.334 77.6768<18.6201 119.901> 421.434 85.5<292.938 459.593>
VStem: 158.25 51.4795<94.1552 391.449> 537.75 94.25<154.786 343.849>
LayerCount: 2
Fore
SplineSet
218.25 249.93359375 m 0xb8
 218.25 143.599534254 279.985034519 75.93359375 377 75.93359375 c 0
 475.237434334 75.93359375 537.75 143.599534254 537.75 249.93359375 c 0
 537.75 354.740243949 475.237434334 421.43359375 377 421.43359375 c 0
 279.985034519 421.43359375 218.25 354.740243949 218.25 249.93359375 c 0xb8
158.25 257.93359375 m 0
 158.25 391.448602395 239.895977552 506.93359375 393.75 506.93359375 c 0
 539.348091189 506.93359375 632 406.989257812 632 249.93359375 c 0
 632 91.0439453125 539.348091189 -10.06640625 393.75 -10.06640625 c 0
 249.832686412 -10.06640625 158.25 94.1551768544 158.25 257.93359375 c 0
209.729492188 497.010742188 m 1xd8
 215.159179688 -174 l 1
 115.580078125 -174 l 1
 119.901367188 419.333984375 l 1
 15 417.330078125 l 1
 18.6201171875 497.010742188 l 1
 209.729492188 497.010742188 l 1xd8
EndSplineSet
EndChar

StartChar: t
Encoding: 84 116 7
Width: 426
Flags: W
HStem: 405.5 94.5<229.019 379.25> 415.25 81.75<18 320.231>
VStem: 126.83 96.2988<130.746 463.737>
LayerCount: 2
Fore
SplineSet
18 497 m 1x60
 173 493.75 l 1
 381 500 l 1
 379.25 405.5 l 1xa0
 170 415.25 l 1
 15 415.25 l 1
 18 497 l 1x60
223.12890625 252 m 0
 223.12890625 138.77977566 241.007566312 93.8717489554 344.909179688 77.1806640625 c 1
 324.2890625 -16 l 1
 162.405241746 28.078125 126.830078125 72 126.830078125 262 c 0
 126.830078125 362.482421875 141.151367188 650.046875 141.151367188 650.046875 c 1
 234.729492188 647.5 l 1
 234.729492188 647.5 223.12890625 384.922538528 223.12890625 252 c 0
EndSplineSet
EndChar

StartChar: l
Encoding: 76 108 8
Width: 387
Flags: W
HStem: 0 79.1475<250.799 368.639> 676.325 78.6768<38.5201 156.481>
VStem: 152.16 98.6388<79.1475 676.325>
LayerCount: 2
Back
SplineSet
105.334960938 140.244140625 m 5
 109.862304688 751.69921875 l 5
 349.01953125 797.84375 l 5
 404.7265625 645.374023438 l 5
 295.80859375 623.6875 l 5
 300.63671875 14.7734375 l 5
 48.3994140625 -44.3125 l 5
 -7.3076171875 108.157226562 l 5
 105.334960938 140.244140625 l 5
EndSplineSet
Fore
SplineSet
250.79890625 79.1474609375 m 1
 372.259179688 80.6806640625 l 1
 368.6390625 0 l 1
 152.160078125 0 l 1
 156.481367188 676.325195312 l 1
 34.9 674.321289062 l 1
 38.5201171875 755.001953125 l 1
 246.399492188 755.001953125 l 1
 250.79890625 79.1474609375 l 1
EndSplineSet
EndChar

StartChar: e
Encoding: 69 101 9
Width: 541
Flags: W
HStem: -23.9004 82.3008<267.719 429.319> 203 74.5<111.25 418.75> 422.934 84<190.839 359.647>
VStem: 419 96.1191<237.214 364.516>
LayerCount: 2
Back
SplineSet
145 251.93359375 m 0
 145 118.399011671 234.924400059 91.0845098901 427.2890625 79.900390625 c 1
 411.819335938 -23.900390625 l 1
 195.319904327 -22.2919921875 30 49 30 259 c 0
 30 399.989257812 114.333684792 506.93359375 271 506.93359375 c 0
 466.952995619 506.93359375 517.619140625 377.117081999 517.619140625 261.659179688 c 0
 517.619140625 223.858398438 512 196 512 196 c 1
 130 193 l 1
 115 279 l 1
 404 283 l 1
 404 283 404.043226139 284.065301324 404.043226139 285.999999724 c 0
 404.043226139 306 397.916066056 408.93359375 277 408.93359375 c 0
 172.754005142 408.93359375 145 332.861387567 145 251.93359375 c 0
EndSplineSet
Fore
SplineSet
127.75 251.93359375 m 0
 127.75 105.939877064 229.235487826 66.907371742 436.5390625 58.400390625 c 1
 429.319335938 -23.900390625 l 1
 193.699144988 -22.2919921875 31.25 49 31.25 259 c 0
 31.25 399.989257812 115.146269414 506.93359375 271 506.93359375 c 0
 464.966602804 506.93359375 515.119140625 380.689657873 515.119140625 268.409179688 c 0
 515.119140625 232.479462616 509.5 206 509.5 206 c 1
 111.25 203 l 1
 96.5 277.5 l 1
 418.75 281.5 l 1
 418.75 281.5 419 285.545482244 419 291.75 c 0
 419 347.533897339 383.530037219 422.93359375 278.25 422.93359375 c 0
 159.393771014 422.93359375 127.75 340.077878736 127.75 251.93359375 c 0
EndSplineSet
Substitution2: "'ss17' Style Set 17 lookup 29-1" e.ss17
Substitution2: "'ss15' Style Set 15 lookup 23-1" e.ss15
Substitution2: "'ss04' Style Set 4 lookup 12-1" e.ss04
EndChar

StartChar: s
Encoding: 83 115 10
Width: 388
Flags: W
HStem: 495.9 20G<280.303 283.358>
VStem: 42.5 95.1816<322.652 400.698> 249.188 96.6016<108.49 191.285>
LayerCount: 2
Fore
SplineSet
280.302734375 515.900390625 m 1
 291.982421875 439.450195312 l 1
 291.982421875 439.450195312 137.681640625 429.763081208 137.681640625 361.75 c 0
 137.681640625 336.021947449 152.231311172 318.586868411 222.298828125 291.111328125 c 0
 308.654441872 257.254933433 345.7890625 217.158868286 345.7890625 152 c 0
 345.7890625 -20.3087614289 72.5390625 -23.900390625 72.5390625 -23.900390625 c 1
 61.8193359375 62.650390625 l 1
 61.8193359375 62.650390625 249.1875 68.8618369567 249.1875 149.75 c 0
 249.1875 182.606422779 224.482105762 201.138428472 154.036132812 228.700195312 c 0
 69.6840940869 261.697745663 42.5 297.824868594 42.5 354.5 c 0
 42.5 511.795720841 280.302734375 515.900390625 280.302734375 515.900390625 c 1
EndSplineSet
EndChar

StartChar: b
Encoding: 66 98 11
Width: 662
Flags: W
HStem: -10.0664 86.25<293.009 459.685> 0 21G<114.83 214.159> 421.434 85.5<295.108 459.685> 676.575 78.4268<18.6201 119.151>
VStem: 119.151 89.5781<261.434 676.575> 158.25 55.9092<115.853 411.462> 537.75 94.25<153.222 342.217>
LayerCount: 2
Fore
SplineSet
218.25 246.93359375 m 0xb2
 218.25 142.585281671 279.985034519 76.18359375 377 76.18359375 c 0
 475.237434334 76.18359375 537.75 142.585281671 537.75 246.93359375 c 0
 537.75 353.573210888 475.237434334 421.43359375 377 421.43359375 c 0
 279.985034519 421.43359375 218.25 353.573210888 218.25 246.93359375 c 0xb2
158.25 261.43359375 m 0xb6
 158.25 411.462358137 249.929907948 506.93359375 394 506.93359375 c 0
 539.4453125 506.93359375 632 405.823242188 632 246.93359375 c 0
 632 89.8779296875 539.4453125 -10.06640625 394 -10.06640625 c 0
 239.982650564 -10.06640625 158.25 115.853214458 158.25 261.43359375 c 0xb6
208.729492188 755.001953125 m 1x7a
 214.159179688 0 l 1x76
 114.830078125 0 l 1
 119.151367188 676.575195312 l 1
 15 674.571289062 l 1
 18.6201171875 755.001953125 l 1
 208.729492188 755.001953125 l 1x7a
EndSplineSet
EndChar

StartChar: grave
Encoding: 64 96 12
Width: 230
Flags: W
HStem: 526.72 213.784
VStem: 11 208.518
LayerCount: 2
Fore
SplineSet
69.1767578125 740.50390625 m 1
 219.517578125 567.465820312 l 1
 181.080078125 526.719726562 l 1
 11 681.68359375 l 1
 69.1767578125 740.50390625 l 1
EndSplineSet
EndChar

StartChar: q
Encoding: 81 113 13
Width: 682
Flags: W
HStem: -173.994 78.4268<551.849 658.38> -10.0664 86<202.553 371.259> 421.434 85.5<202.553 369.123> 476.934 20G<458.109 549.26>
VStem: 30 94.25<153.154 342.217> 458.25 90.9199<258.934 496.934> 458.25 49.75<112.444 410.49>
LayerCount: 2
Fore
SplineSet
448 246.93359375 m 0xe8
 448 353.572861328 385.000606143 421.43359375 286 421.43359375 c 0
 187.151780562 421.43359375 124.25 353.572861328 124.25 246.93359375 c 0
 124.25 142.432637323 187.151780562 75.93359375 286 75.93359375 c 0
 385.000606143 75.93359375 448 142.432637323 448 246.93359375 c 0xe8
508 258.93359375 m 0xea
 508 112.444209715 424.793777533 -10.06640625 268 -10.06640625 c 0
 122.554875959 -10.06640625 30 89.8779296875 30 246.93359375 c 0
 30 405.823242188 122.554875959 506.93359375 268 506.93359375 c 0
 414.667125551 506.93359375 508 410.489752662 508 258.93359375 c 0xea
453.520507812 -173.994140625 m 1
 458.25 496.93359375 l 1
 549.169921875 496.93359375 l 1xdc
 551.848632812 -95.5673828124 l 1
 662 -93.5634765624 l 1
 658.379882812 -173.994140625 l 1
 453.520507812 -173.994140625 l 1
EndSplineSet
EndChar

StartChar: a
Encoding: 65 97 14
Width: 672
Flags: W
HStem: -10.0664 86<202.553 371.259> 0 78.4268<551.849 658.38> 421.434 85.5<202.553 369.123> 477.002 20G<458.06 549.298>
VStem: 30 94.25<153.154 342.217> 458.25 90.9199<258.934 497.002> 458.25 49.75<114.694 410.49>
LayerCount: 2
Back
SplineSet
434 246.93359375 m 0xac
 434 342.267265625 377.222768499 402.93359375 288 402.93359375 c 0
 200.610229493 402.93359375 145 342.267265625 145 246.93359375 c 0
 145 153.432738 200.610229493 93.93359375 288 93.93359375 c 0
 377.222768499 93.93359375 434 153.432738 434 246.93359375 c 0xac
505 263.93359375 m 0xa9
 505 117.013180272 422.833855314 -10.06640625 268 -10.06640625 c 0
 122.554875959 -10.06640625 30 89.8779296875 30 246.93359375 c 0
 30 405.823242188 122.554875959 506.93359375 268 506.93359375 c 0
 412.833786481 506.93359375 505 412.434184942 505 263.93359375 c 0xa9
442.270507812 0 m 1x5c
 447 497.001953125 l 1
 554.169921875 497.001953125 l 1x5a
 556.848632812 90.9267578125 l 1
 662 92.9306640625 l 1
 658.379882812 0 l 1
 442.270507812 0 l 1x5c
EndSplineSet
Fore
SplineSet
448 246.93359375 m 0xa8
 448 353.572861328 385.000606143 421.43359375 286 421.43359375 c 0
 187.151780562 421.43359375 124.25 353.572861328 124.25 246.93359375 c 0
 124.25 142.432637323 187.151780562 75.93359375 286 75.93359375 c 0
 385.000606143 75.93359375 448 142.432637323 448 246.93359375 c 0xa8
508 258.93359375 m 0xaa
 508 114.694209715 424.793777533 -10.06640625 268 -10.06640625 c 0
 122.554875959 -10.06640625 30 89.8779296875 30 246.93359375 c 0
 30 405.823242188 122.554875959 506.93359375 268 506.93359375 c 0
 414.667125551 506.93359375 508 410.489752662 508 258.93359375 c 0xaa
453.520507812 0 m 1x5c
 458.25 497.001953125 l 1
 549.169921875 497.001953125 l 1
 551.848632812 78.4267578125 l 1
 662 80.4306640625 l 1
 658.379882812 0 l 1
 453.520507812 0 l 1x5c
EndSplineSet
Substitution2: "'ss03' Style Set 3 lookup 11-1" a.ss03
EndChar

StartChar: h
Encoding: 72 104 15
Width: 640
Flags: W
HStem: 0 21G<140.58 239.159> 421.934 85<301.881 448.178> 676.575 78.4268<18.6201 144.901>
VStem: 140.58 98.5791<0 676.575> 495.5 95<9.03249 368.754>
LayerCount: 2
Fore
SplineSet
175.5 266.43359375 m 1
 196.330403646 410.680183501 262.027777778 506.93359375 398 506.93359375 c 0
 524.834247295 506.93359375 590.5 429.158203125 590.5 278.93359375 c 0
 590.5 134.376953125 572.659179688 -15 572.659179688 -15 c 1
 475.330078125 -2.5 l 1
 475.330078125 -2.5 495.5 139.894831282 495.5 256.93359375 c 0
 495.5 361.665790265 464.738765052 421.93359375 377.5 421.93359375 c 0
 288.085158327 421.93359375 240.296511386 361.799858374 226 229.43359375 c 1
 175.5 266.43359375 l 1
233.729492188 755.001953125 m 1
 239.159179688 0 l 1
 140.580078125 0 l 1
 144.901367188 676.575195312 l 1
 15 674.571289062 l 1
 18.6201171875 755.001953125 l 1
 233.729492188 755.001953125 l 1
EndSplineSet
EndChar

StartChar: n
Encoding: 78 110 16
Width: 633
Flags: W
HStem: 0 21G<135.58 235.159> 419.325 77.6768<18.6201 139.901> 421.934 85<296.881 443.178>
VStem: 135.58 99.5791<0 266.434> 490.5 95<9.03249 368.754>
LayerCount: 2
Fore
SplineSet
170.5 266.43359375 m 1xb8
 191.330403646 410.662396939 257.027777778 506.93359375 393 506.93359375 c 0
 519.834247295 506.93359375 585.5 429.158203125 585.5 278.93359375 c 0
 585.5 134.376953125 567.659179688 -15 567.659179688 -15 c 1
 470.330078125 -2.5 l 1
 470.330078125 -2.5 490.5 139.894831282 490.5 256.93359375 c 0
 490.5 361.665790265 459.738765052 421.93359375 372.5 421.93359375 c 0
 283.085158327 421.93359375 235.296511386 361.818076997 221 229.43359375 c 1
 170.5 266.43359375 l 1xb8
229.729492188 497.001953125 m 1xd8
 235.159179688 0 l 1
 135.580078125 0 l 1
 139.901367188 419.325195312 l 1
 15 417.321289062 l 1
 18.6201171875 497.001953125 l 1
 229.729492188 497.001953125 l 1xd8
EndSplineSet
EndChar

StartChar: I
Encoding: 41 73 17
Width: 468
Flags: W
HStem: 0 89<38.958 173.084 287.21 430.287> 633.08 97.9307<43.748 176.279 284.135 420.857>
VStem: 173.084 114.126<89 634>
LayerCount: 2
Back
SplineSet
339.857421875 731.010742188 m 5
 345.287109375 0 l 5
 128.958007812 0 l 5
 133.279296875 560.083984375 l 5
 15.1279296875 558.080078125 l 5
 18.748046875 731.010742188 l 5
 339.857421875 731.010742188 l 5
EndSplineSet
Fore
SplineSet
420.857421875 731.010742188 m 1
 427.127929688 631 l 1
 284.134765625 634 l 1
 287.209960938 89 l 1
 433.26953125 93 l 1
 430.287109375 0 l 1
 38.9580078125 0 l 1
 35 91 l 1
 173.083984375 89 l 1
 176.279296875 635.083984375 l 1
 40.1279296875 633.080078125 l 1
 43.748046875 731.010742188 l 1
 420.857421875 731.010742188 l 1
EndSplineSet
EndChar

StartChar: c
Encoding: 67 99 18
Width: 471
Flags: W
HStem: -10.0664 88.5<205.705 410.956> 420.434 86.5<207.369 385.561>
VStem: 31.25 97<155.353 340.391>
LayerCount: 2
Back
SplineSet
20 249.93359375 m 0
 20 406.989257812 127.722105271 506.93359375 297 506.93359375 c 0
 415.535915516 506.93359375 465.916992188 450.782226562 465.916992188 450.782226562 c 1
 409.647460938 308.369140625 l 1
 409.647460938 308.369140625 373.776884975 346.93359375 318 346.93359375 c 4
 252.610710758 346.93359375 211 309.211914062 211 249.93359375 c 0
 211 180.822265625 247.426625003 154.52486356 323.040039062 139.244140625 c 0
 407.435563152 122.917258333 455.553710938 87 455.553710938 1.279296875 c 0
 455.553710938 -81.1748046875 404 -147 404 -147 c 1
 280 -97 l 1
 280 -97 295.76171875 -74 295.76171875 -54 c 0
 295.76171875 -29.5654296875 282.579369985 -17.3599949932 223.834960938 -5.6943359375 c 0
 112.853515625 16.3447265625 20 91.0439453125 20 249.93359375 c 0
EndSplineSet
Fore
SplineSet
31.25 249.93359375 m 0
 31.25 406.989257812 132.652667688 506.93359375 292 506.93359375 c 0
 400.009806154 506.93359375 445.916992188 460.782226562 445.916992188 460.782226562 c 1
 413.397460938 382.869140625 l 1
 413.397460938 382.869140625 365.687114274 420.43359375 291.5 420.43359375 c 0
 191.735500292 420.43359375 128.25 353.934550177 128.25 249.43359375 c 0
 128.25 144.933222656 186.273608398 78.43359375 299.75 78.43359375 c 0
 389.62576726 78.43359375 435.1484375 113.864257812 435.1484375 113.864257812 c 1
 455.146484375 29.31640625 l 1
 455.146484375 29.31640625 414.159810979 -10.06640625 287 -10.06640625 c 0
 130.708225355 -10.06640625 31.25 91.0439453125 31.25 249.93359375 c 0
EndSplineSet
EndChar

StartChar: equal
Encoding: 29 61 19
Width: 450
Flags: W
HStem: 203.25 84.5<145.2 414> 213.25 77.5<31 298.8> 379.25 77.5<33 418>
LayerCount: 2
Fore
SplineSet
31 290.75 m 1x60
 415 287.75 l 1
 414 203.25 l 1xa0
 30 213.25 l 1
 31 290.75 l 1x60
33 456.75 m 1
 419 461.75 l 1
 418 373.25 l 1
 32 379.25 l 1
 33 456.75 l 1
EndSplineSet
EndChar

StartChar: k
Encoding: 75 107 20
Width: 598
Flags: W
HStem: 0 21G<139.83 239.159> 494 20G<462.444 505.488> 676.575 78.4268<18.6201 144.151>
VStem: 139.83 99.3291<0 676.575>
LayerCount: 2
Fore
SplineSet
484.75 514 m 1
 548 453 l 1
 318.75 254.75 l 1
 568 56.25 l 1
 503.5 -17 l 1
 197 256 l 1
 484.75 514 l 1
233.729492188 755.001953125 m 1
 239.159179688 0 l 1
 139.830078125 0 l 1
 144.151367188 676.575195312 l 1
 15 674.571289062 l 1
 18.6201171875 755.001953125 l 1
 233.729492188 755.001953125 l 1
EndSplineSet
Substitution2: "'ss06' Style Set 6 lookup 14-1" k.ss06
EndChar

StartChar: m
Encoding: 77 109 21
Width: 938
Flags: W
HStem: 0 21G<135.58 235.159> 419.325 77.6768<18.6201 139.901> 421.934 85<299.062 434.213 625.652 758.601>
VStem: 135.58 99.5791<0 263.934> 470 95.5<39.6445 406.464> 795 95.5<37.5226 382.49>
LayerCount: 2
Fore
SplineSet
499.5 258.93359375 m 1xbc
 518.285878906 413.865628087 595.372565104 506.93359375 718 506.93359375 c 0
 831.656515067 506.93359375 890.5 439.391601562 890.5 308.93359375 c 0
 890.5 149.623046875 872.659179688 -15 872.659179688 -15 c 1
 774.580078125 -2 l 1
 774.580078125 -2 795 156.586211979 795 286.93359375 c 0
 795 372.622767857 767.49690262 421.93359375 689.5 421.93359375 c 0
 622.761920027 421.93359375 567.189773675 366.393787325 548.5 224.43359375 c 1
 499.5 258.93359375 l 1xbc
173 263.93359375 m 1
 191.055459665 415.741998363 265.14303234 506.93359375 383 506.93359375 c 0
 500.745381123 506.93359375 565.5 439.391601562 565.5 308.93359375 c 0
 565.5 154.541015625 552.659179688 -5 552.659179688 -5 c 1
 458.330078125 0 l 1
 458.330078125 0 470 158.860256892 470 289.43359375 c 0
 470 373.535577182 442.49690262 421.93359375 364.5 421.93359375 c 0
 296.578620736 421.93359375 240.021152642 367.096822849 221 226.93359375 c 1
 173 263.93359375 l 1
229.729492188 497.001953125 m 1xdc
 235.159179688 0 l 1
 135.580078125 0 l 1
 139.901367188 419.325195312 l 1
 15 417.321289062 l 1
 18.6201171875 497.001953125 l 1
 229.729492188 497.001953125 l 1xdc
EndSplineSet
EndChar

StartChar: hyphen
Encoding: 13 45 23
Width: 380
Flags: W
HStem: 212.5 97<70.5 347> 220.5 88<33 307.5>
VStem: 33 316
LayerCount: 2
Fore
SplineSet
33 308.5 m 1x60
 349 309.5 l 1
 347 212.5 l 1xa0
 31 220.5 l 1
 33 308.5 l 1x60
EndSplineSet
EndChar

StartChar: three
Encoding: 19 51 24
Width: 581
Flags: W
HStem: -10.0664 93<107.691 360.278> 339.242 77.7578<293.25 373.297> 635.008 96<55 368.348>
VStem: 430.667 104.25<145.418 286.748>
LayerCount: 2
Fore
SplineSet
293.25 417 m 1
 306.542445765 417 325.954852444 418.794387575 352.249998001 416.249602021 c 0
 451.606413556 403.828642074 534.916992188 340.110729335 534.916992188 216.9921875 c 0
 534.916992188 68.2338010229 430.694869214 -10.06640625 266.916992188 -10.06640625 c 0
 102.768167824 -10.06640625 33 34.0849609375 33 34.0849609375 c 1
 61.75 122 l 1
 61.75 122 138.71385063 82.93359375 245.916992188 82.93359375 c 0
 376.100578756 82.93359375 430.666992188 133.808233539 430.666992188 219.9921875 c 0
 430.666992188 290.624879808 377.870153524 339.2421875 278.666992188 339.2421875 c 0
 198.107381861 339.2421875 155.2578125 313.43359375 155.2578125 313.43359375 c 1
 129 369.5 l 1
 368.34765625 635.0078125 l 1
 48 633.0078125 l 1
 55 731.0078125 l 1
 504.016601562 731.0078125 l 1
 514.016601562 665.0078125 l 1
 293.25 417 l 1
EndSplineSet
Substitution2: "'onum' Oldstyle Figures lookup 27-1" three.osf
Substitution2: "'ss01' Style Set 1 lookup 9-1" three.ss01
Substitution2: "'frac' Diagonal Fractions in Latin lookup 26 subtable" three.numr
Substitution2: "'dnom' Denominators lookup 0 subtable" three.dnom
Substitution2: "'numr' Numerators lookup 0 subtable" three.numr
Substitution2: "'sinf' Scientific Inferiors lookup 0 subtable" three.inferior
Substitution2: "'sups' Superscript lookup 0 subtable" three.superior
EndChar

StartChar: eight
Encoding: 24 56 25
Width: 608
Flags: W
HStem: -10.0078 96.2393<204.465 401.834> 648.656 90.3359<221.321 393.313>
VStem: 45 100.561<141.541 272.665> 74.1787 101.371<486.089 604.899> 441.973 93.1846<474.124 603.608> 457.693 106.235<137.118 259.69>
LayerCount: 2
Fore
SplineSet
300.000976562 86.2314453121 m 0xe4
 397.78850117 86.2314453121 457.693359375 128.153753733 457.693359375 196.586914062 c 0xe4
 457.693359375 259.347832735 414.672241963 302.240633119 281.251953125 341.853515625 c 0
 142.173601329 383.244474639 74.1787109375 445.227433522 74.1787109375 541 c 0
 74.1787109375 662.029306915 165.283061508 738.9921875 308.55078125 738.9921875 c 0
 447.41805771 738.9921875 535.157226562 669.936730853 535.157226562 545.361328125 c 0
 535.157226562 391.531091834 346.408935547 338.403808594 346.408935547 338.403808594 c 1
 301.684326172 385.538574219 l 1
 301.684326172 385.538574219 441.97265625 443.200081794 441.97265625 536.432617188 c 0
 441.97265625 606.219874602 391.323098427 648.65625 308.02734375 648.65625 c 0
 226.324960767 648.65625 175.549804688 608.641782149 175.549804688 544.254882812 c 0xd8
 175.549804688 488.889296923 208.832826756 459.362452179 328.245117188 422.21484375 c 0
 498.129365475 369.602911932 563.928710938 315.676351786 563.928710938 201.379882812 c 0
 563.928710938 69.6107907347 466.636007038 -10.0078125 305.616210938 -10.0078125 c 0
 149.097237525 -10.0078125 45 72.9892081909 45 197.782226562 c 0
 45 359.27901927 234.554931641 412.163330078 234.554931641 412.163330078 c 1
 283.215087891 359.463134766 l 1
 283.215087891 359.463134766 145.560546875 310.499597631 145.560546875 204.944335938 c 0
 145.560546875 133.057154268 206.478805821 86.2314453121 300.000976562 86.2314453121 c 0xe4
EndSplineSet
Substitution2: "'onum' Oldstyle Figures lookup 27-1" eight.osf
Substitution2: "'frac' Diagonal Fractions in Latin lookup 26 subtable" eight.numr
Substitution2: "'dnom' Denominators lookup 0 subtable" eight.dnom
Substitution2: "'numr' Numerators lookup 0 subtable" eight.numr
Substitution2: "'sinf' Scientific Inferiors lookup 0 subtable" eight.inferior
Substitution2: "'sups' Superscript lookup 0 subtable" eight.superior
EndChar

StartChar: g
Encoding: 71 103 26
Width: 603
Flags: W
HStem: -196.994 83.1807<166.391 301.928> 19.9336 80.75<196.814 362.838> 423.684 83.25<196.245 361.233>
VStem: 30 94.25<174.248 351.672> 445.922 94.0781<-9.52449 496.764>
LayerCount: 2
Back
SplineSet
382.270507812 -173.994140625 m 5
 387 496.93359375 l 5
 574.169921875 496.93359375 l 5xf8
 576.848632812 -23.0673828125 l 5
 672 -21.0634765625 l 5
 668.379882812 -173.994140625 l 5
 382.270507812 -173.994140625 l 5
EndSplineSet
Fore
SplineSet
431 262.93359375 m 0
 431 361.170053712 371.695015041 423.68359375 278.5 423.68359375 c 0
 184.235160135 423.68359375 124.25 361.947827149 124.25 264.93359375 c 0
 124.25 164.557675077 185.207366944 100.68359375 281 100.68359375 c 0
 372.66722791 100.68359375 431 163.779908485 431 262.93359375 c 0
491 272.93359375 m 0
 491 137.273503932 431.914010875 19.93359375 260 19.93359375 c 0
 119.443787692 19.93359375 30 114.044602687 30 261.93359375 c 0
 30 411.6565317 119.443787692 506.93359375 260 506.93359375 c 0
 401.167108342 506.93359375 491 415.934163046 491 272.93359375 c 0
540 83 m 0
 540 -50.5 499.118554498 -180.994140625 166.390625 -196.994140625 c 1
 155.270507812 -113.813476562 l 1
 395.255314392 -98.1897890885 445.921875 -31.9161133761 445.921875 96.9326171875 c 0
 445.921875 281.462479727 440.600585938 495.93359375 440.600585938 495.93359375 c 1
 440.600585938 495.93359375 533.270507812 498.18359375 533.270507812 497.93359375 c 1
 533.270507812 497.93359375 540 247 540 83 c 0
EndSplineSet
Substitution2: "'ss05' Style Set 5 lookup 13-1" g.ss05
EndChar

StartChar: u
Encoding: 85 117 27
Width: 633
Flags: W
HStem: -9.93164 85<192.173 338.2> 0 77.6768<502.849 614.38> 477.002 20G<70.8408 165.17 410.31 500.298>
VStem: 50 95<128.079 496.484> 410.5 89.6699<203.068 497.002>
LayerCount: 2
Fore
SplineSet
405.770507812 0 m 1x78
 410.5 497.001953125 l 1
 500.169921875 497.001953125 l 1
 502.848632812 77.6767578125 l 1
 618 79.6806640625 l 1
 614.379882812 0 l 1
 405.770507812 0 l 1x78
467.5 203.068359375 m 1
 446.858193277 108.492975757 390.622788373 -9.931640625 240.25 -9.931640625 c 0
 119.292307536 -9.931640625 50 66.2625801939 50 231 c 0
 50 358.441666035 70.8408203125 509.001953125 70.8408203125 509.001953125 c 1
 165.169921875 501.251953125 l 1
 165.169921875 501.251953125 145 357.897001513 145 240.068359375 c 0
 145 135.335778526 175.760897873 75.068359375 263 75.068359375 c 0xb8
 355.967955871 75.068359375 402.461538461 131.11376715 419.5 240.068359375 c 1
 467.5 203.068359375 l 1
EndSplineSet
EndChar

StartChar: exclam
Encoding: 1 33 28
Width: 256
Flags: W
HStem: -10 130<77.5623 178.438> 711 20G<71 185>
VStem: 63 130<4.56229 105.438> 71 114<504.03 731>
LayerCount: 2
Fore
SplineSet
71 731 m 1xd0
 185 731 l 1
 168.5 196 l 1
 168.5 196 156.897260274 200.884765625 130 200.884765625 c 0
 101.557692308 200.884765625 86.5 194.5 86.5 194.5 c 1
 71 731 l 1xd0
63 55 m 0xe0
 63 94.7224786936 88.2775213069 120 128 120 c 0
 167.722478694 120 193 94.7224786936 193 55 c 0
 193 15.2775213069 167.722478694 -10 128 -10 c 0
 88.2775213069 -10 63 15.2775213069 63 55 c 0xe0
EndSplineSet
Substitution2: "'ss16' Style Set 16 lookup 26-1" exclam.ss16
EndChar

StartChar: r
Encoding: 82 114 29
Width: 478
Flags: W
HStem: 0 21G<135.58 235.159> 419.325 77.6768<18.6201 139.901> 496.934 20G<383.224 425.716>
VStem: 135.58 99.5791<0 312.107 380.197 419.325>
LayerCount: 2
Fore
SplineSet
414.5 516.93359375 m 1xb0
 460.068359375 435.676757812 l 1
 218.962890625 312.107421875 l 1
 200.669921875 380.197265625 l 1
 414.5 516.93359375 l 1xb0
229.729492188 497.001953125 m 1xd0
 235.159179688 0 l 1
 135.580078125 0 l 1
 139.901367188 419.325195312 l 1
 15 417.321289062 l 1
 18.6201171875 497.001953125 l 1
 229.729492188 497.001953125 l 1xd0
EndSplineSet
Substitution2: "'ss07' Style Set 7 lookup 15-1" r.ss07
EndChar

StartChar: f
Encoding: 70 102 30
Width: 433
Flags: W
HStem: 0 21G<142.335 241.137> 409 91<247.3 388> 415.25 81.75<35 291.52> 711.124 86.7197<287.937 338.328>
VStem: 119.869 96.7832<495.764 653.168> 144.994 92.1436<0 548.614>
LayerCount: 2
Fore
SplineSet
35 497 m 1xb0
 190 493.75 l 1
 390 500 l 1
 388 409 l 1xd0
 187 419 l 1
 32 415.25 l 1
 35 497 l 1xb0
144.984375 412.096679688 m 2
 144.990869549 413.10685859 144.994140625 414.107770821 144.994140625 415.099609375 c 0x94
 144.994140625 500.4698105 119.869140625 522.458751663 119.869140625 590 c 0
 119.869140625 715.380534854 198.565259587 769.237898503 337.01953125 797.84375 c 1
 353.2265625 711.124023438 l 1
 253.855816379 688.800056563 216.65234375 650.588035612 216.65234375 578.75 c 0x98
 216.65234375 531.469166521 236.287351286 487.440701841 237.137695312 399.96484375 c 2x94
 241.13671875 0 l 1
 142.334960938 0 l 1
 144.984375 412.096679688 l 2
EndSplineSet
EndChar

StartChar: one
Encoding: 17 49 32
Width: 351
Flags: W
HStem: 0 21G<180.33 287.909> 641.084 89.9268<40.8701 184.651>
VStem: 180.33 107.579<0 641.084>
LayerCount: 2
Fore
SplineSet
282.479492188 731.010742188 m 1
 287.909179688 0 l 1
 180.330078125 0 l 1
 184.651367188 641.083984375 l 1
 37.25 639.080078125 l 1
 40.8701171875 731.010742188 l 1
 282.479492188 731.010742188 l 1
EndSplineSet
Substitution2: "'onum' Oldstyle Figures lookup 27-1" one.osf
Substitution2: "'frac' Diagonal Fractions in Latin lookup 26 subtable" one.numr
Substitution2: "'dnom' Denominators lookup 0 subtable" one.dnom
Substitution2: "'numr' Numerators lookup 0 subtable" one.numr
Substitution2: "'sinf' Scientific Inferiors lookup 0 subtable" one.inferior
Substitution2: "'sups' Superscript lookup 0 subtable" one.superior
EndChar

StartChar: zero
Encoding: 16 48 33
Width: 675
Flags: W
HStem: -10.0664 99.6006<251.116 423.067> 639.333 99.6006<251.116 423.067>
VStem: 31 101.987<232.451 497.864> 542.013 101.987<232.451 493.358>
LayerCount: 2
Fore
SplineSet
132.987304688 361.704101562 m 0
 132.987304688 195.377727327 212.207310174 89.5341796879 336.697265625 89.5341796879 c 0
 462.168338962 89.5341796879 542.012695312 195.377727327 542.012695312 361.704101562 c 0
 542.012695312 531.367191661 462.168338962 639.333007812 336.697265625 639.333007812 c 0
 212.207310174 639.333007812 132.987304688 531.367191661 132.987304688 361.704101562 c 0
31 361.93359375 m 0
 31 592.322641811 149.999870804 738.93359375 337 738.93359375 c 0
 524.611498456 738.93359375 644 592.322641811 644 361.93359375 c 0
 644 134.599173678 524.611498456 -10.06640625 337 -10.06640625 c 0
 149.999870804 -10.06640625 31 134.599173678 31 361.93359375 c 0
EndSplineSet
Substitution2: "'onum' Oldstyle Figures lookup 27-1" zero.osf
Substitution2: "'frac' Diagonal Fractions in Latin lookup 26 subtable" zero.numr
Substitution2: "'dnom' Denominators lookup 0 subtable" zero.dnom
Substitution2: "'numr' Numerators lookup 0 subtable" zero.numr
Substitution2: "'sinf' Scientific Inferiors lookup 0 subtable" zero.inferior
Substitution2: "'sups' Superscript lookup 0 subtable" zero.superior
EndChar

StartChar: uni0237
Encoding: 424 567 35
Width: 310
Flags: W
HStem: 419.069 77.9418<18.5201 139.666>
VStem: 139.666 90.1631<17.55 419.069>
LayerCount: 2
Fore
SplineSet
229.829492188 497.010742188 m 1
 235.259179688 0 l 1
 104.1 -184 l 1
 20.8 -127.8 l 1
 136.080078125 17.55 l 1
 139.666367188 419.068984375 l 1
 14.9 417.065078125 l 1
 18.5201171875 497.010742188 l 1
 229.829492188 497.010742188 l 1
EndSplineSet
EndChar

StartChar: y
Encoding: 89 121 36
Width: 593
Flags: W
HStem: 491 20G<14.6099 197.765 468.663 538.512>
LayerCount: 2
Fore
SplineSet
336.061305438 85.6931325 m 1
 318.15248 15.39008 l 1
 266.394644688 15.39008 l 1
 123.378311188 423.060256 l 1
 20.7338344375 413.599264 l 1
 14.60992 497 l 1
 190.940507 511 l 1
 336.061305438 85.6931325 l 1
300.961050938 36.74232375 m 2
 476.046120875 511 l 1
 567.840275312 481.60992 l 1
 400.708065875 42.1079880313 l 2
 340.24957992 -117.604108959 252.08512 -220.39008 252.08512 -220.39008 c 1
 175.91488 -168.143068625 l 1
 175.91488 -168.143068625 258.860950016 -77.1066387141 300.961050938 36.74232375 c 2
EndSplineSet
Substitution2: "'ss08' Style Set 8 lookup 16-1" y.ss08
EndChar

StartChar: x
Encoding: 88 120 37
Width: 562
Flags: W
HStem: 494 20G<97.7657 197.371 436.498 480.737>
LayerCount: 2
Fore
SplineSet
450.062858688 514 m 1
 534.080618688 459.21984 l 1
 372.779210688 251 l 1
 549.080618688 39.702144 l 1
 469.371370688 -17 l 1
 271.683434688 251 l 1
 450.062858688 514 l 1
138.297660812 421.237935875 m 1
 32.17616275 395.68894425 l 1
 14.60992 474.8359375 l 1
 184.548714688 514 l 1
 353.158634688 251 l 1
 153.857226688 -17 l 1
 73.4564906875 39.471648 l 1
 252.062858688 251 l 1
 138.297660812 421.237935875 l 1
EndSplineSet
EndChar

StartChar: S
Encoding: 51 83 38
Width: 487
Flags: W
HStem: 718.393 20G<364.69 367.023>
VStem: 42.5 111.519<476.044 573.817> 331.621 113.215<162.877 273.646>
LayerCount: 2
Fore
SplineSet
364.690429688 738.392578125 m 1
 375.541015625 645.342773438 l 1
 375.541015625 645.342773438 154.018554688 628.944326703 154.018554688 528.68359375 c 0
 154.018554688 482.801962841 182.499767676 455.723616485 306.284179688 398.400390625 c 0
 408.470497153 351.066382133 444.8359375 305.332097582 444.8359375 223.544921875 c 0
 444.8359375 -14.6051701107 86.4423828125 -19.8779296875 86.4423828125 -19.8779296875 c 1
 76.720703125 79.1826171875 l 1
 76.720703125 79.1826171875 331.62109375 93.1296215287 331.62109375 218.5 c 0
 331.62109375 262.048637408 313.248863777 290.501119227 201.401367188 336.405273438 c 0
 79.3926110827 386.463681769 42.5 445.05705381 42.5 515.18359375 c 0
 42.5 732.743898619 364.690429688 738.392578125 364.690429688 738.392578125 c 1
EndSplineSet
EndChar

StartChar: v
Encoding: 86 118 39
Width: 593
Flags: W
HStem: 0 21G<259.634 392.964> 491 20G<14.6099 197.521 468.882 538.512>
LayerCount: 2
Fore
SplineSet
385.387581875 0 m 1
 266.394644688 0 l 1
 123.378311188 423.060256 l 1
 20.7338344375 413.599264 l 1
 14.60992 497 l 1
 190.940507 511 l 1
 327.444281438 96.1541245 l 1
 476.046120875 511 l 1
 567.840275312 481.60992 l 1
 385.387581875 0 l 1
EndSplineSet
EndChar

StartChar: w
Encoding: 87 119 40
Width: 862
Flags: W
HStem: 0 21G<264.765 386.233 565.525 684.143> 491 20G<14.6099 197.747 463.477 536.625 748.957 816.231>
LayerCount: 2
Fore
SplineSet
378.462045875 0 m 1
 271.781172688 0 l 1
 123.378311188 423.060256 l 1
 20.7338344375 413.599264 l 1
 14.60992 497 l 1
 190.940507 511 l 1
 328.983289438 105.3881725 l 1
 470.276616875 521 l 1
 569.304819312 491.148928 l 1
 378.462045875 0 l 1
676.926589875 0 m 1
 573.323732688 0 l 1
 438.761287188 345.08512 l 1
 505.78016 437.787264 l 1
 627.447833438 110.0051965 l 1
 755.507112875 501 l 1
 846.840275312 470.918432 l 1
 676.926589875 0 l 1
EndSplineSet
EndChar

StartChar: six
Encoding: 22 54 41
Width: 619
Flags: W
HStem: -10 93.3584<230.481 401.817> 398.009 85.7178<229.276 400.456> 651.533 97.459<372.472 489.114>
VStem: 45 113.125<164.292 394.537> 471.875 101.441<152.731 326.008>
LayerCount: 2
Back
SplineSet
498.310546875 748.9921875 m 1
 512 637.533203125 l 1
 175.065365254 610.146952891 170.458007812 416.932617188 170.458007812 416.932617188 c 1
 170.458007812 416.932617188 215.209080523 483.7265625 336.600585938 483.7265625 c 0
 472.674581172 483.7265625 572.31640625 388.819152798 572.31640625 245.249023438 c 0
 572.31640625 100.798835154 490.925518401 -10 316.310546875 -10 c 0
 170.896357089 -10 45 80.6409024463 45 300.348632812 c 4
 45 516.020480109 153.586977651 728.185507446 498.310546875 748.9921875 c 1
176.375 242.858398438 m 0
 176.375 154.857510653 229.905346038 98.8583984375 314.025390625 98.8583984375 c 0
 398.725511696 98.8583984375 452.625 154.857510653 452.625 242.858398438 c 0
 452.625 329.728081597 398.725511696 385.008789062 314.025390625 385.008789062 c 0
 229.905346038 385.008789062 176.375 329.728081597 176.375 242.858398438 c 0
EndSplineSet
Fore
SplineSet
488.310546875 748.9921875 m 1
 499.5 651.533203125 l 1
 165.112283222 633.79463528 155.458007812 406.932617188 155.458007812 406.932617188 c 1
 155.458007812 406.932617188 202.8074422 483.7265625 339.600585938 483.7265625 c 0
 474.647840254 483.7265625 573.31640625 388.222194631 573.31640625 243.749023438 c 0
 573.31640625 110.088947021 501.765691627 -10 316.310546875 -10 c 0
 153.835275428 -10 45 92.3932717406 45 306.348632812 c 0
 45 519.13616121 151.191556269 728.463768616 488.310546875 748.9921875 c 1
158.125 241.358398438 m 0
 158.125 144.801868785 219.530292867 83.3583984375 316.025390625 83.3583984375 c 0
 412.767223142 83.3583984375 471.875 144.801868785 471.875 241.358398438 c 0
 471.875 337.089192708 411.267223142 398.008789062 316.025390625 398.008789062 c 0
 219.530292867 398.008789062 158.125 337.089192708 158.125 241.358398438 c 0
EndSplineSet
Substitution2: "'onum' Oldstyle Figures lookup 27-1" six.osf
Substitution2: "'frac' Diagonal Fractions in Latin lookup 26 subtable" six.numr
Substitution2: "'dnom' Denominators lookup 0 subtable" six.dnom
Substitution2: "'numr' Numerators lookup 0 subtable" six.numr
Substitution2: "'sinf' Scientific Inferiors lookup 0 subtable" six.inferior
Substitution2: "'sups' Superscript lookup 0 subtable" six.superior
EndChar

StartChar: z
Encoding: 90 122 42
Width: 461
Flags: W
HStem: 0 86.75<165.919 415.017> 409 88<46 284.848>
LayerCount: 2
Fore
SplineSet
40 409 m 1
 46 497 l 1
 393.266601562 497 l 1
 411.016601562 433.75 l 1
 165.918945312 86.75 l 1
 421.016601562 89.5 l 1
 415.016601562 0 l 1
 48.5 0 l 1
 32 56.75 l 1
 284.84765625 411.5 l 1
 40 409 l 1
EndSplineSet
EndChar

StartChar: O
Encoding: 47 79 43
Width: 785
Flags: W
HStem: -10.0664 101.851<284.513 493.373> 637.083 101.851<284.513 493.373>
VStem: 41.5 104.487<243.278 482.348> 639.013 104.487<243.278 482.348>
LayerCount: 2
Back
SplineSet
295.487304688 361.704101562 m 0
 295.487304688 247.780273438 320.957605563 175.284179688 376.697265625 175.284179688 c 0
 439.529183996 175.284179688 469.512695312 247.780273438 469.512695312 361.704101562 c 0
 469.512695312 478.963867188 439.529183996 553.583007812 376.697265625 553.583007812 c 0
 320.957605563 553.583007812 295.487304688 478.963867188 295.487304688 361.704101562 c 0
90 361.93359375 m 0
 90 592.322265625 195.499874605 738.93359375 377 738.93359375 c 0
 565.222610829 738.93359375 675 592.322265625 675 361.93359375 c 0
 675 134.599609375 565.222610829 -10.06640625 377 -10.06640625 c 0
 195.499874605 -10.06640625 90 134.599609375 90 361.93359375 c 0
EndSplineSet
Fore
SplineSet
145.987304688 361.704101562 m 0
 145.987304688 195.755695494 244.825673681 91.7841796879 386.697265625 91.7841796879 c 0
 535.820744217 91.7841796879 639.012695312 195.755695494 639.012695312 361.704101562 c 0
 639.012695312 530.977617264 535.820744217 637.083007812 386.697265625 637.083007812 c 0
 244.825673681 637.083007812 145.987304688 530.977617264 145.987304688 361.704101562 c 0
41.5 361.93359375 m 0
 41.5 592.322641811 175.860965239 738.93359375 387 738.93359375 c 0
 604.861560911 738.93359375 743.5 592.322641811 743.5 361.93359375 c 0
 743.5 134.599173678 604.861560911 -10.06640625 387 -10.06640625 c 0
 175.860965239 -10.06640625 41.5 134.599173678 41.5 361.93359375 c 0
EndSplineSet
EndChar

StartChar: L
Encoding: 44 76 44
Width: 620
Flags: W
HStem: 0 96.293<264.064 591.539> 635.084 95.9258<31.1201 153.151>
VStem: 148.43 115.635<96.293 635.084>
LayerCount: 2
Fore
SplineSet
264.064453125 96.29296875 m 1
 595.159179688 97.9306640621 l 1
 591.5390625 0 l 1
 148.4296875 0 l 1
 153.151367188 635.083984375 l 1
 27.5 633.080078125 l 1
 31.1201171875 731.010742188 l 1
 259.729492188 731.009765625 l 1
 264.064453125 96.29296875 l 1
EndSplineSet
EndChar

StartChar: K
Encoding: 43 75 45
Width: 742
Flags: W
HStem: 0 21G<148.83 265.159> 635.084 95.9268<23.6201 153.151>
VStem: 148.83 116.329<0 635.084>
LayerCount: 2
Fore
SplineSet
259.729492188 731.010742188 m 1
 265.159179688 0 l 1
 148.830078125 0 l 1
 153.151367188 635.083984375 l 1
 20 633.080078125 l 1
 23.6201171875 731.010742188 l 1
 259.729492188 731.010742188 l 1
589.5 745.0078125 m 1
 677 671.7578125 l 1
 363.5 359.5 l 1
 702 55.5 l 1
 623 -27 l 1
 216.5 359 l 1
 589.5 745.0078125 l 1
EndSplineSet
EndChar

StartChar: J
Encoding: 42 74 46
Width: 370
Flags: W
HStem: 635.084 95.9268<38.6201 183.151>
VStem: 178.83 116.329<55 635.084>
LayerCount: 2
Fore
SplineSet
289.729492188 731.010742188 m 1
 295.159179688 30 l 1
 121 -187 l 1
 29.5 -120.75 l 1
 178.830078125 55 l 1
 183.151367188 635.083984375 l 1
 35 633.080078125 l 1
 38.6201171875 731.010742188 l 1
 289.729492188 731.010742188 l 1
EndSplineSet
Substitution2: "'ss12' Style Set 12 lookup 20-1" J.ss12
EndChar

StartChar: H
Encoding: 40 72 47
Width: 780
Flags: W
HStem: 0 21G<148.83 265.159 583.83 700.159> 292.5 97<330.782 611.5> 302.25 84<224.5 501.218> 635.084 95.9268<38.6201 153.151 473.62 588.151>
VStem: 148.83 116.329<0 302.25 386.25 635.084> 220.5 44.6592<302.25 386.25> 583.83 116.329<0 292.5 389.5 635.084>
LayerCount: 2
Back
SplineSet
252 393 m 1xb6
 608 397 l 1
 604 285 l 1xd6
 248 296 l 1
 252 393 l 1xb6
704.729492188 731.010742188 m 1
 710.159179688 0 l 1
 573.830078125 0 l 1
 578.151367188 620.083984375 l 1
 440 618.080078125 l 5
 443.620117188 731.010742188 l 5
 704.729492188 731.010742188 l 1
294.729492188 731.010742188 m 1
 300.159179688 0 l 1
 163.830078125 0 l 1x9a
 168.151367188 620.083984375 l 1
 30 618.080078125 l 5
 33.6201171875 731.010742188 l 5
 294.729492188 731.010742188 l 1
EndSplineSet
Fore
SplineSet
224.5 386.25 m 1xb6
 615.5 389.5 l 1
 611.5 292.5 l 1xd6
 220.5 302.25 l 1
 224.5 386.25 l 1xb6
694.729492188 731.010742188 m 1
 700.159179688 0 l 1
 583.830078125 0 l 1
 588.151367188 635.083984375 l 1
 470 633.080078125 l 1
 473.620117188 731.010742188 l 1
 694.729492188 731.010742188 l 1
259.729492188 731.010742188 m 1
 265.159179688 0 l 1
 148.830078125 0 l 1x9a
 153.151367188 635.083984375 l 1
 35 633.080078125 l 1
 38.6201171875 731.010742188 l 1
 259.729492188 731.010742188 l 1
EndSplineSet
EndChar

StartChar: backslash
Encoding: 60 92 48
Width: 497
Flags: W
LayerCount: 2
Back
SplineSet
506 -123.994140625 m 1
 317 -175.994140625 l 1
 178.016601562 331 l 1
 1 763.001953125 l 1
 190 815.001953125 l 1
 308.362304688 379 l 1
 506 -123.994140625 l 1
EndSplineSet
Fore
SplineSet
448.5 -138.994140625 m 1
 364.5 -165.994140625 l 1
 48.5 778.001953125 l 1
 132.5 805.001953125 l 1
 448.5 -138.994140625 l 1
EndSplineSet
EndChar

StartChar: F
Encoding: 38 70 49
Width: 620
Flags: W
HStem: 0 21G<148.83 265.159> 272.5 97<201.783 534.75> 280 88.75<182 510.967> 633.08 97.9307<38.6201 153.151 261.104 578.729>
VStem: 178 87.1592<280 368.75>
LayerCount: 2
Fore
SplineSet
182 368.75 m 1xb8
 538 369.5 l 1
 534.75 272.5 l 1xd8
 178 280 l 1
 182 368.75 l 1xb8
578.729492188 731.010742188 m 1
 584.61328125 629 l 1
 261.103515625 633 l 1
 265.159179688 0 l 1
 148.830078125 0 l 1
 153.151367188 635.083984375 l 1
 35 633.080078125 l 1
 38.6201171875 731.010742188 l 1
 578.729492188 731.010742188 l 1
EndSplineSet
EndChar

StartChar: E
Encoding: 37 69 50
Width: 620
Flags: W
HStem: 0 96.4805<264.018 586.539> 315.5 97<201.767 534.5> 323 88.75<182 510.733> 633.08 97.9307<38.6201 153.151 261.104 578.729>
VStem: 178 86.0176<323 411.75>
LayerCount: 2
Fore
SplineSet
182 411.75 m 1xb8
 538 412.5 l 1
 534.5 315.5 l 1xd8
 178 323 l 1
 182 411.75 l 1xb8
578.729492188 731.010742188 m 1
 584.61328125 629 l 1
 261.103515625 633 l 1
 264.017578125 96.48046875 l 1
 319.064453125 96.29296875 l 1
 590.159179688 97.9306640621 l 1
 586.5390625 0 l 1
 148.4296875 0 l 1
 153.151367188 635.083984375 l 1
 35 633.080078125 l 1
 38.6201171875 731.010742188 l 1
 578.729492188 731.010742188 l 1
EndSplineSet
Substitution2: "'ss15' Style Set 15 lookup 23-1" E.ss15
EndChar

StartChar: N
Encoding: 46 78 51
Width: 790
Flags: W
HStem: -10 21G<599.114 715.539> 0 21G<160.21 267.289> 711.011 20G<613.61 710.258>
VStem: 160.21 107.079<0 541.043> 609.901 105.638<181.639 731.011>
LayerCount: 2
Fore
SplineSet
710.109375 731.010742188 m 1x78
 715.5390625 0 l 1x78
 611.709960938 -10 l 1xb8
 264.67578125 541.04296875 l 1
 267.2890625 0 l 1
 160.209960938 0 l 1
 164.53125 639.833984375 l 1
 39.3798828125 633.080078125 l 1
 35 731.010742188 l 1
 278.609375 741.010742188 l 1
 609.901367188 181.638671875 l 1
 613.75 731.010742188 l 1
 710.109375 731.010742188 l 1x78
EndSplineSet
EndChar

StartChar: bar
Encoding: 92 124 52
Width: 246
Flags: W
VStem: 77.5 91.3291<-170 788.992>
LayerCount: 2
Back
SplineSet
220.899414062 788.9921875 m 1
 193.418945312 334 l 1
 226.329101562 -170 l 1
 30 -170 l 1
 63.3330078125 338 l 1
 36.169921875 788.9921875 l 1
 220.899414062 788.9921875 l 1
EndSplineSet
Fore
SplineSet
163.899414062 788.9921875 m 1
 168.829101562 -170 l 1
 77.5 -170 l 1
 83.169921875 788.9921875 l 1
 163.899414062 788.9921875 l 1
EndSplineSet
EndChar

StartChar: U
Encoding: 53 85 53
Width: 767
Flags: W
HStem: -10 104.5<334.374 518.518> 635.084 95.9268<38.6201 160.151 466.12 586.401>
VStem: 148.517 109.393<177.491 561.675> 595.08 107.562<174.531 551.28>
LayerCount: 2
Fore
SplineSet
702.641601562 270.946289062 m 0
 702.641601562 85.0810974476 600.228663321 -10 428.830078125 -10 c 0
 246.143390925 -10 148.516601562 84.5172625506 148.516601562 290.099609375 c 0
 148.516601562 424.768802262 160.151367188 635.083984375 160.151367188 635.083984375 c 1
 35 633.080078125 l 1
 38.6201171875 731.010742188 l 1
 266.479492188 731.010742188 l 1
 266.479492188 731.010742188 257.909179688 403.488572129 257.909179688 289 c 0
 257.909179688 173.152179424 302.581495419 94.5 430 94.5 c 0
 545.10058783 94.5 595.080078125 165.214820276 595.080078125 289 c 0
 595.080078125 422.781358476 586.401367188 635.083984375 586.401367188 635.083984375 c 1
 462.5 633.080078125 l 1
 466.120117188 731.010742188 l 1
 689.729492188 731.010742188 l 1
 689.729492188 731.010742188 702.641601562 450.456085293 702.641601562 270.946289062 c 0
EndSplineSet
EndChar

StartChar: A
Encoding: 33 65 54
Width: 670
Flags: W
HStem: 176.75 98.75<190.938 509> 184.75 96.75<149.5 463.562> 617.819 103.181<74.8193 243.258> 623.612 107.388<167.322 243.258>
LayerCount: 2
Fore
SplineSet
149.5 281.5 m 1x40
 510.5 275.5 l 1
 509 176.75 l 1x80
 145.5 184.75 l 1
 149.5 281.5 l 1x40
243.2578125 623.612304688 m 1x10
 74.8193359376 617.819335938 l 1
 71.439453125 721 l 1x20
 391.048828125 731 l 1
 653.450195312 9.1611328125 l 1
 548.426757812 -15 l 1
 335.818359375 599.3671875 l 1
 118.569335938 -15 l 1
 15.2734375 12.75 l 1
 243.2578125 623.612304688 l 1x10
EndSplineSet
Substitution2: "'fina' Terminal Forms lookup 25-1" A.fina
Substitution2: "'init' Initial Forms lookup 24-1" A.init
Substitution2: "'ss14' Style Set 14 lookup 22-1" A.ss14
EndChar

StartChar: B
Encoding: 34 66 55
Width: 739
Flags: W
HStem: -10.0664 93<270.766 529.505> 327.242 80.9414<239.291 499.96> 645.742 93.25<191.406 496.001>
VStem: 160 110.714<96.7461 322.684 415.127 654.25> 558.667 106.25<458.143 588.556> 596.667 108.25<139.743 269.254>
LayerCount: 2
Fore
SplineSet
239.196289062 415.126953125 m 1xf4
 239.196289062 415.126953125 280.941461566 408.18359375 385.416992188 408.18359375 c 0
 507.275695799 408.18359375 558.666992188 455.003378345 558.666992188 519.450195312 c 0
 558.666992188 601.008102491 501.215203252 645.7421875 379.166992188 645.7421875 c 0
 194.019785725 645.7421875 59.01953125 563.427734375 59.01953125 563.427734375 c 1
 23 664.840820312 l 1
 23 664.840820312 131.541568423 738.9921875 386.916992188 738.9921875 c 0
 556.805984028 738.9921875 664.916992188 655.164384272 664.916992188 523.43359375 c 0xf8
 664.916992188 405.852172814 556.025390625 374.96875 556.025390625 374.96875 c 1
 556.025390625 374.96875 704.916992188 345.833491406 704.916992188 195.2421875 c 0
 704.916992188 69.7755018831 596.805984028 -10.06640625 426.916992188 -10.06640625 c 0
 239.610759918 -10.06640625 160 24.0849609375 160 24.0849609375 c 1
 165.940429688 654.25 l 1
 268.669921875 654.25 l 1
 270.713867188 96.74609375 l 1
 270.713867188 96.74609375 302.915785292 82.93359375 408.916992188 82.93359375 c 0
 532.870821072 82.93359375 596.666992188 127.11266778 596.666992188 204.9921875 c 0
 596.666992188 272.2296875 547.815496642 327.2421875 405.5 327.2421875 c 0
 284.457653733 327.2421875 239.2578125 322.68359375 239.2578125 322.68359375 c 1
 239.196289062 415.126953125 l 1xf4
EndSplineSet
EndChar

StartChar: C
Encoding: 35 67 56
Width: 651
Flags: W
HStem: -10.0664 102.5<291.622 543.331> 642.742 96.25<302.226 527.924>
VStem: 41.5 110.75<236.169 483.446>
LayerCount: 2
Fore
SplineSet
41.5 361.93359375 m 0
 41.5 592.358449127 179.749849906 738.9921875 397 738.9921875 c 0
 571.675165443 738.9921875 645.916992188 662.840820312 645.916992188 662.840820312 c 1
 601.397460938 584.177734375 l 1
 601.397460938 584.177734375 526.484996463 642.7421875 410 642.7421875 c 0
 252.48514671 642.7421875 152.25 533.540416089 152.25 361.93359375 c 0
 152.25 197.238564451 237.932092285 92.43359375 405.5 92.43359375 c 0
 547.980913132 92.43359375 620.1484375 152.864257812 620.1484375 152.864257812 c 1
 661.146484375 62.31640625 l 1
 661.146484375 62.31640625 594.321700857 -10.06640625 387 -10.06640625 c 0
 175.860965239 -10.06640625 41.5 134.599173678 41.5 361.93359375 c 0
EndSplineSet
EndChar

StartChar: D
Encoding: 36 68 57
Width: 783
Flags: W
HStem: -10.0664 103.25<272.53 501.996> 634.242 104.75<182.396 496.6>
VStem: 165.94 102.729<105.347 650.5> 640.917 108<240.857 484.635>
LayerCount: 2
Fore
SplineSet
748.916992188 361.93359375 m 0
 748.916992188 134.599609375 612.02842426 -10.06640625 396.916992188 -10.06640625 c 0
 217.576653751 -10.06640625 159.770507812 36.06640625 159.770507812 36.06640625 c 1
 165.940429688 650.5 l 1
 268.669921875 650.5 l 1
 272.002929688 105.346679688 l 1
 272.002929688 105.346679688 321.904944976 93.18359375 386.916992188 93.18359375 c 0
 554.981309334 93.18359375 640.916992188 197.696149553 640.916992188 361.93359375 c 0
 640.916992188 528.345728577 554.579646068 634.2421875 377.916992188 634.2421875 c 0
 183.835475766 634.2421875 59.01953125 563.427734375 59.01953125 563.427734375 c 1
 23 664.840820312 l 1
 23 664.840820312 131.541568423 738.9921875 386.916992188 738.9921875 c 0
 608.139749553 738.9921875 748.916992188 592.358398438 748.916992188 361.93359375 c 0
EndSplineSet
EndChar

StartChar: P
Encoding: 48 80 58
Width: 721
Flags: W
HStem: 0 21G<160.271 271.503> 207.434 98.75<281.329 506.772> 636.992 102<186.551 492.588> 636.992 17.2578<205.845 268.17>
VStem: 160.271 111.232<0 254.184 342.877 654.25> 583.667 105.75<378.094 556.386>
LayerCount: 2
Fore
SplineSet
271.502929688 0 m 1xdc
 160.270507812 0 l 1
 166.440429688 654.25 l 1
 268.169921875 654.25 l 1
 271.502929688 0 l 1xdc
249.196289062 342.876953125 m 1
 249.196289062 342.876953125 292.461702663 306.18359375 404.416992188 306.18359375 c 0
 521.902829727 306.18359375 583.666992188 366.12268586 583.666992188 462.93359375 c 0
 583.666992188 579.481071097 517.05170422 636.9921875 369.916992188 636.9921875 c 0
 205.844778089 636.9921875 59.76953125 564.427734375 59.76953125 564.427734375 c 1
 23.75 664.840820312 l 1
 23.75 664.840820312 132.067874069 738.9921875 386.916992188 738.9921875 c 0xec
 573.538372705 738.9921875 689.416992188 637.041553132 689.416992188 458.93359375 c 0
 689.416992188 306.402364095 587.172336647 207.43359375 421.916992188 207.43359375 c 0
 297.605516544 207.43359375 222.7578125 254.18359375 222.7578125 254.18359375 c 1
 249.196289062 342.876953125 l 1
EndSplineSet
EndChar

StartChar: M
Encoding: 45 77 59
Width: 877
VWidth: 1111
Flags: W
HStem: 635.33 95.6807<37.25 173.817> 719.75 20G<646.201 769>
VStem: 715.5 112.5<1.78444 88.9915>
LayerCount: 2
Back
SplineSet
198.817382812 545.212890625 m 1
 93 539.080078125 l 1
 88.6201171875 731.010742188 l 1
 430.729492188 741.010742188 l 1
 483 547 l 1
 552 740 l 1
 766 731 l 1
 825 5 l 1
 613 -9 l 1
 584 361 l 5
 486 160 l 5
 390 352 l 5
 356 -6 l 1
 155 9 l 1
 198.817382812 545.212890625 l 1
EndSplineSet
Fore
SplineSet
173.817382812 641.462890625 m 1x60
 37.25 635.330078125 l 1
 33.6201171875 731.010742188 l 1xa0
 307.229492188 741.010742188 l 1
 475.5 388.25 l 1
 656.5 739.75 l 1
 769 731.5 l 1
 828 2.5 l 1
 715.5 -9 l 1
 681.75 567.25 l 1
 470 161.25 l 1
 269.25 558.25 l 1
 224.25 -6 l 1
 120 6.5 l 1
 173.817382812 641.462890625 l 1x60
EndSplineSet
Substitution2: "'fina' Terminal Forms lookup 25-1" M.fina
Substitution2: "'init' Initial Forms lookup 24-1" M.init
EndChar

StartChar: G
Encoding: 39 71 60
Width: 794
Flags: W
HStem: -10.0664 104.75<286.155 513.251> 291.319 96.6807<659.065 760.097> 638.992 100<298.756 533.208>
VStem: 41.5 110.75<241.81 483.261> 551.058 112.329<-87.7607 293.323>
LayerCount: 2
Fore
SplineSet
556.487304688 388 m 1
 760.096679688 388 l 1
 763.716796875 291.319335938 l 1
 659.065429688 293.323242188 l 1
 663.38671875 -87.7607421875 l 1
 551.057617188 -87.7607421875 l 1
 556.487304688 388 l 1
41.5 361.93359375 m 0
 41.5 592.358449127 179.749849906 738.9921875 397 738.9921875 c 0
 571.675165443 738.9921875 645.916992188 662.840820312 645.916992188 662.840820312 c 1
 609.647460938 580.927734375 l 1
 609.647460938 580.927734375 531.505968091 638.9921875 410 638.9921875 c 0
 249.985146709 638.9921875 152.25 532.123715864 152.25 364.18359375 c 0
 152.25 199.488564451 237.08626709 94.68359375 397.25 94.68359375 c 0
 530.260698572 94.68359375 594.1484375 166.364257812 594.1484375 166.364257812 c 1
 636.146484375 97.31640625 l 1
 636.146484375 97.31640625 572.978037195 -10.06640625 377 -10.06640625 c 0
 171.972080572 -10.06640625 41.5 134.599173678 41.5 361.93359375 c 0
EndSplineSet
Substitution2: "'ss11' Style Set 11 lookup 19-1" G.ss11
EndChar

StartChar: T
Encoding: 52 84 61
Width: 590
Flags: W
HStem: 0 21G<231.83 348.159> 633 30<236.151 344.104> 633.08 97.9307<28.6201 236.151 344.104 553.729>
VStem: 231.83 116.329<0 663>
LayerCount: 2
Fore
SplineSet
344.103515625 663 m 1xd0
 348.159179688 0 l 1
 231.830078125 0 l 1
 236.151367188 665.083984375 l 1
 344.103515625 663 l 1xd0
292.103515625 633 m 1
 25 633.080078125 l 1
 28.6201171875 731.010742188 l 1
 553.729492188 731.010742188 l 1xb0
 559.61328125 629 l 1
 292.103515625 633 l 1
EndSplineSet
EndChar

StartChar: V
Encoding: 54 86 62
Width: 774
Flags: W
HStem: 0 21G<353.046 493.539>
LayerCount: 2
Fore
SplineSet
486.107421875 0 m 1
 359.174804688 0 l 1
 161.901367188 643.75 l 1
 36.5458984375 634.25 l 1
 30 732 l 1
 244.296875 746 l 1
 430.405273438 120.8828125 l 1
 640.904296875 746 l 1
 752.450195312 716.75 l 1
 486.107421875 0 l 1
EndSplineSet
Substitution2: "'fina' Terminal Forms lookup 25-1" V.fina
Substitution2: "'init' Initial Forms lookup 24-1" V.init
EndChar

StartChar: W
Encoding: 55 87 63
Width: 1134
Flags: W
HStem: 0 21G<353.046 493.464 723.261 864.369> 716 20G<996.336 1076.6>
LayerCount: 2
Fore
SplineSet
486.107421875 0 m 1
 359.174804688 0 l 1
 161.901367188 643.75 l 1
 36.5458984375 634.25 l 1
 30 732 l 1
 243.546875 746 l 1
 430.655273438 120.8828125 l 1
 633.904296875 759 l 1
 754.450195312 729.5 l 1
 486.107421875 0 l 1
857.107421875 0 m 1
 730.174804688 0 l 1
 580.5 433 l 1
 645.395507812 590.5 l 1
 800.905273438 120.8828125 l 1
 1002.90429688 736 l 1
 1113.45019531 706 l 1
 857.107421875 0 l 1
EndSplineSet
Substitution2: "'fina' Terminal Forms lookup 25-1" W.fina
Substitution2: "'init' Initial Forms lookup 24-1" W.init
EndChar

StartChar: Q
Encoding: 49 81 64
Width: 785
Flags: W
HStem: -10.0664 101.851<284.513 493.373> 637.083 101.851<284.513 493.373>
VStem: 41.5 104.487<243.278 482.348> 639.013 104.487<243.278 482.348>
LayerCount: 2
Fore
SplineSet
120.5 112 m 1
 799.5 -36 l 1
 772.25 -145 l 1
 99 37.75 l 1
 120.5 112 l 1
EndSplineSet
Refer: 43 79 N 1 0 0 1 0 0 2
Substitution2: "'ss10' Style Set 10 lookup 18-1" Q.ss10
EndChar

StartChar: underscore
Encoding: 63 95 65
Width: 580
Flags: W
HStem: -82 82<33 547>
LayerCount: 2
Fore
SplineSet
33 0 m 1
 549 4 l 1
 547 -87 l 1
 31 -82 l 1
 33 0 l 1
EndSplineSet
EndChar

StartChar: R
Encoding: 50 82 66
Width: 721
Flags: W
HStem: 0 21G<152.771 264.003> 636.992 102<264.5 477.915> 636.992 39.7578<210.427 260.67>
VStem: 152.771 111.232<0 285.434 350.627 676.75> 566.917 107<404.034 559.102>
LayerCount: 2
Back
SplineSet
289.002929688 0 m 5xb8
 157.770507812 0 l 5
 163.940429688 669.25 l 1
 285.669921875 669.25 l 1
 289.002929688 0 l 5xb8
274.196289062 355.876953125 m 1
 274.196289062 355.876953125 298.311785784 334.93359375 373.916992188 334.93359375 c 0
 487.119605202 334.93359375 551.916992188 395.921142577 551.916992188 475.93359375 c 0
 551.916992188 563.722489841 489.063645233 617.9921875 353 617.9921875 c 0
 219.214256452 617.9921875 49.26953125 556.427734375 49.26953125 556.427734375 c 1
 18 674.840820312 l 1
 18 674.840820312 122.067681352 738.9921875 366.916992188 738.9921875 c 0xd8
 557.583984375 738.9921875 678.916992188 638.247073955 678.916992188 479.93359375 c 0
 678.916992188 277.943443494 474.740234375 245.040039062 474.740234375 245.040039062 c 1
 701.770507812 69 l 1
 625.770507812 -37 l 1
 235.2578125 285.43359375 l 1
 274.196289062 355.876953125 l 1
EndSplineSet
Fore
SplineSet
264.002929688 0 m 1xb8
 152.770507812 0 l 1
 158.940429688 676.75 l 1
 260.669921875 676.75 l 1
 264.002929688 0 l 1xb8
249.196289062 350.626953125 m 1
 249.196289062 350.626953125 280.143494357 327.93359375 377.166992188 327.93359375 c 0
 497.842249599 327.93359375 566.916992188 393.787170409 566.916992188 480.18359375 c 0
 566.916992188 577.087645658 499.086995407 636.9921875 352.25 636.9921875 c 0
 210.427261988 636.9921875 51.51953125 571.927734375 51.51953125 571.927734375 c 1
 23 672.340820312 l 1
 23 672.340820312 125.576385661 738.9921875 366.916992188 738.9921875 c 0xd8
 554.528423603 738.9921875 673.916992188 639.608186483 673.916992188 483.43359375 c 0
 673.916992188 358.809772966 592.966332567 288.566519128 503.000001105 266.864747475 c 0
 456.285416841 252.226334572 417.740234375 251.040039062 417.740234375 251.040039062 c 1
 694.270507812 56.5 l 1
 629.770507812 -34.5 l 1
 212.7578125 285.43359375 l 1
 249.196289062 350.626953125 l 1
EndSplineSet
EndChar

StartChar: five
Encoding: 21 53 67
Width: 581
Flags: W
HStem: -10.0664 93.5<120.636 358.937> 379.742 89.7578<185.571 370.321> 634 97.0078<181.5 494.017>
VStem: 433.417 101.5<151.873 317.383>
LayerCount: 2
Back
SplineSet
529.016601562 549.0078125 m 5
 239 550 l 29
 224 471 l 21
 224 471 248.642857143 479 316 479 c 4
 492.46964774 479 559.916992188 386.635747331 559.916992188 246.9921875 c 4
 559.916992188 68.1744133844 445.97265625 -10.06640625 266.916992188 -10.06640625 c 4
 85.2246769868 -10.06640625 8 44.0849609375 8 44.0849609375 c 5
 50 207 l 5
 50 207 126.85984585 163.93359375 233.916992188 163.93359375 c 4
 305.791015625 163.93359375 340.916992188 195.456256431 340.916992188 244.9921875 c 4
 340.916992188 289.603298611 303.700683594 317.9921875 230.916992188 317.9921875 c 4
 164.966339317 317.9921875 125.2578125 288.43359375 125.2578125 288.43359375 c 5
 19 392 l 5
 80 731.0078125 l 5
 365 731.0078125 l 5
 362 798.0078125 l 5
 515.016601562 800.0078125 l 5
 529.016601562 549.0078125 l 5
EndSplineSet
Fore
SplineSet
494.016601562 633.0078125 m 1
 181.5 634 l 1
 148 425.5 l 1
 148 425.5 189.383928572 469.5 302.5 469.5 c 0
 460.756020858 469.5 534.916992188 374.543072587 534.916992188 236.9921875 c 0
 534.916992188 67.6307174514 430.014314306 -10.06640625 265.166992188 -10.06640625 c 0
 98.7375140151 -10.06640625 28 44.0849609375 28 44.0849609375 c 1
 57.75 130.75 l 1
 57.75 130.75 139.624706843 83.43359375 253.666992188 83.43359375 c 0
 374.408634364 83.43359375 433.416992188 142.372815443 433.416992188 234.9921875 c 0
 433.416992188 323.450520833 381.483325195 379.7421875 279.916992188 379.7421875 c 0
 182.414310537 379.7421875 127.7578125 315.93359375 127.7578125 315.93359375 c 1
 44 369.5 l 1
 105 731.0078125 l 1
 494.016601562 731.0078125 l 1
 494.016601562 633.0078125 l 1
EndSplineSet
Substitution2: "'onum' Oldstyle Figures lookup 27-1" five.osf
Substitution2: "'ss02' Style Set 2 lookup 10-1" five.ss02
Substitution2: "'frac' Diagonal Fractions in Latin lookup 26 subtable" five.numr
Substitution2: "'dnom' Denominators lookup 0 subtable" five.dnom
Substitution2: "'numr' Numerators lookup 0 subtable" five.numr
Substitution2: "'sinf' Scientific Inferiors lookup 0 subtable" five.inferior
Substitution2: "'sups' Superscript lookup 0 subtable" five.superior
EndChar

StartChar: Z
Encoding: 58 90 68
Width: 601
Flags: W
HStem: 0 99.5<185.419 548.017> 626.008 105<53 422.598>
LayerCount: 2
Fore
SplineSet
47 626.0078125 m 1
 53 731.0078125 l 1
 546.266601562 731.0078125 l 1
 564.016601562 659.0078125 l 1
 185.418945312 99.5 l 1
 554.016601562 106 l 1
 548.016601562 0 l 1
 55.5 0 l 1
 37 71 l 1
 422.59765625 632.5078125 l 1
 47 626.0078125 l 1
EndSplineSet
EndChar

StartChar: Y
Encoding: 57 89 69
Width: 734
Flags: W
HStem: 0 21G<348.08 467.909>
VStem: 348.08 119.829<0 274.405>
LayerCount: 2
Fore
SplineSet
351.873046875 274.405273438 m 1
 156.901367188 643.5 l 1
 44.5458984375 625.5 l 1
 30 722 l 1
 225.796875 746 l 1
 412.905273438 382.3828125 l 1
 615.904296875 746 l 1
 714.950195312 696.25 l 1
 464.484375 280.900390625 l 1
 467.909179688 0 l 1
 348.080078125 0 l 1
 351.873046875 274.405273438 l 1
EndSplineSet
Substitution2: "'ss13' Style Set 13 lookup 21-1" Y.ss13
EndChar

StartChar: X
Encoding: 56 88 70
Width: 771
Flags: W
LayerCount: 2
Fore
SplineSet
237 745.0078125 m 1
 478.5 364 l 1
 189 -27 l 1
 93 45 l 1
 350.75 364 l 1
 177.5 627.2578125 l 1
 51.5 593.18359375 l 1
 23 691 l 1
 237 745.0078125 l 1
631.5 745.0078125 m 1
 736 675.0078125 l 1
 493.25 364 l 1
 751 45 l 1
 655.5 -27 l 1
 365.5 364 l 1
 631.5 745.0078125 l 1
EndSplineSet
EndChar

StartChar: comma
Encoding: 12 44 71
Width: 270
Flags: W
HStem: -106 258.5
VStem: 27.25 191.75
LayerCount: 2
Fore
SplineSet
130.5 152.5 m 25
 219 103 l 25
 84.25 -106 l 25
 27.25 -72 l 25
 130.5 152.5 l 25
EndSplineSet
EndChar

StartChar: nine
Encoding: 25 57 73
Width: 619
Flags: W
HStem: -20 97.459<134.202 249.538> 245.266 85.7178<218.045 389.211> 645.634 93.3584<217.337 388.349>
VStem: 45 101.441<402.984 574.653> 460.191 113.125<334.455 568.381>
LayerCount: 2
Fore
SplineSet
135.005859375 -20 m 1
 123.81640625 77.458984375 l 1
 453.249788941 95.1684588738 462.858398438 322.059570312 462.858398438 322.059570312 c 1
 462.858398438 322.059570312 415.50885946 245.265625 278.715820312 245.265625 c 0
 143.752676021 245.265625 45 340.769992869 45 485.243164062 c 0
 45 618.903240479 116.829042072 738.9921875 303.005859375 738.9921875 c 0
 464.88198543 738.9921875 573.31640625 636.598632812 573.31640625 422.643554688 c 0
 573.31640625 209.85546875 468.321973488 0.528320312471 135.005859375 -20 c 1
460.19140625 487.633789062 m 0
 460.19140625 584.190318715 399.07777808 645.633789062 303.041015625 645.633789062 c 0
 207.340847828 645.633789062 146.44140625 584.190318715 146.44140625 487.633789062 c 0
 146.44140625 391.902994792 207.340847828 330.983398438 303.041015625 330.983398438 c 0
 399.07777808 330.983398438 460.19140625 391.902994792 460.19140625 487.633789062 c 0
EndSplineSet
Substitution2: "'onum' Oldstyle Figures lookup 27-1" nine.osf
Substitution2: "'frac' Diagonal Fractions in Latin lookup 26 subtable" nine.numr
Substitution2: "'dnom' Denominators lookup 0 subtable" nine.dnom
Substitution2: "'numr' Numerators lookup 0 subtable" nine.numr
Substitution2: "'sinf' Scientific Inferiors lookup 0 subtable" nine.inferior
Substitution2: "'sups' Superscript lookup 0 subtable" nine.superior
EndChar

StartChar: at
Encoding: 32 64 74
Width: 925
Flags: W
HStem: -159.727 79.877<337.223 668.814> 48.4209 84.1357<369.726 520.263 685.462 782.739> 411.11 82.3955<369.933 520.47> 630.433 77.2939<330.422 605.79>
VStem: 35 85.5<132.002 411.469> 222.529 92.0947<189.049 353.653> 576.356 92.6611<187.15 333.478> 583.985 56.5586<128.188 378.021> 811.904 78.3828<165.135 421.824>
LayerCount: 2
Back
SplineSet
365.124023438 363.1875 m 4
 365.124023438 312.997070312 392.912109375 281.056640625 436.578125 281.056640625 c 4
 480.749023438 281.056640625 508.856445312 312.997070312 508.856445312 363.1875 c 4
 508.856445312 411.876953125 480.749023438 442.860351562 436.578125 442.860351562 c 4
 392.912109375 442.860351562 365.124023438 411.876953125 365.124023438 363.1875 c 4
207.529296875 362.254882812 m 4
 207.529296875 497.463867188 289.260742188 583.505859375 417.694335938 583.505859375 c 4
 542.1171875 583.505859375 621.293945312 489.212890625 621.293945312 341.037109375 c 4
 621.293945312 217.215820312 542.1171875 138.420898438 417.694335938 138.420898438 c 4
 289.260742188 138.420898438 207.529296875 225.466796875 207.529296875 362.254882812 c 4
482.713867188 -69.7265625 m 4
 196.205078125 -69.7265625 20 94.120869497 20 358.08984375 c 4
 20 614.04161915 179.602962903 797.7265625 458.420898438 797.7265625 c 4
 719.309753403 797.7265625 905.287109375 654.481445312 905.287109375 383.712890625 c 4
 905.287109375 234.838867187 845.620117188 138.420898438 718.064453125 138.420898438 c 4
 609.642578125 138.420898438 536.985351562 205.224609375 536.985351562 370.025390625 c 4xbec0
 536.985351562 473.729492188 566.369140625 581.030273438 566.369140625 581.030273438 c 5
 721.677734375 569.944335938 l 5
 721.677734375 569.944335938 689.767578125 428.384765625 689.767578125 333.604492188 c 4
 689.767578125 282.138671875 704.185546875 254.978515625 740.811523438 254.978515625 c 4xbf40
 782.825195312 254.978515625 804.404296875 305.185546875 804.404296875 383.712890625 c 4
 804.404296875 614.064453125 662.40625 699.432617188 459.420898438 699.432617188 c 4
 248.553710938 699.432617188 128 560.595703125 128 361.93359375 c 4
 128 157.513671875 252.708984375 31.150390625 483.713867188 31.150390625 c 4
 665.813476562 31.150390625 793 94 793 94 c 5
 818.250976562 5.7744140625 l 5
 818.250976562 5.7744140625 708.095703125 -69.7265625 482.713867188 -69.7265625 c 4
EndSplineSet
Fore
SplineSet
314.624023438 272.9375 m 0xfe80
 314.624023438 187.15030983 365.259643849 132.556640625 444.828125 132.556640625 c 0
 525.208023885 132.556640625 576.356445312 187.15030983 576.356445312 272.9375 c 0
 576.356445312 357.377311647 525.596901515 411.110351562 445.828125 411.110351562 c 0
 365.648538053 411.110351562 314.624023438 357.377311647 314.624023438 272.9375 c 0xfe80
222.529296875 272.254882812 m 0
 222.529296875 407.463867188 304.260742188 493.505859375 432.694335938 493.505859375 c 0
 559.714427842 493.505859375 640.543945312 400.185108372 640.543945312 253.537109375 c 0xfd80
 640.543945312 128.188039187 559.714427842 48.4208984375 432.694335938 48.4208984375 c 0
 304.260742188 48.4208984375 222.529296875 135.466796875 222.529296875 272.254882812 c 0
482.713867188 -159.7265625 m 0
 205.492960207 -159.7265625 35 4.12109375 35 268.08984375 c 0
 35 524.041992188 189.141946069 707.7265625 458.420898438 707.7265625 c 0
 710.552295803 707.7265625 890.287109375 564.481445312 890.287109375 293.712890625 c 0
 890.287109375 144.838867188 835.639569138 48.4208984375 718.814453125 48.4208984375 c 0
 638.08496049 48.4208984375 583.985351562 112.196002467 583.985351562 269.525390625 c 0xfd80
 583.985351562 378.021395469 608.869140625 490.280273438 608.869140625 490.280273438 c 1
 696.427734375 482.194335938 l 1
 696.427734375 482.194335938 669.017578125 333.478042957 669.017578125 234.604492188 c 0xfe80
 669.017578125 165.202609106 687.194129329 127.228515625 730.811523438 127.228515625 c 0
 784.386874699 127.228515625 811.904296875 184.358133051 811.904296875 273.712890625 c 0
 811.904296875 533.978371286 666.407579038 630.432617188 458.420898438 630.432617188 c 0
 243.418073369 630.432617188 120.5 482.956936809 120.5 271.93359375 c 0
 120.5 54.5359320175 247.838393766 -79.849609375 483.713867188 -79.849609375 c 0
 669.638217886 -79.849609375 795.25 -15.25 795.25 -15.25 c 1
 818.250976562 -84.2255859375 l 1
 818.250976562 -84.2255859375 708.095703125 -159.7265625 482.713867188 -159.7265625 c 0
EndSplineSet
EndChar

StartChar: percent
Encoding: 5 37 75
Width: 889
Flags: W
HStem: -10 83.0576<610.985 737.331> 277.725 83.1543<610.985 737.331> 368.113 83.0576<150.985 277.331> 655.838 83.1543<150.985 277.331>
VStem: 32.0205 85.8037<485.198 622.745> 310.784 85.8359<485.198 622.745> 492.021 85.8037<107.085 244.632> 770.784 85.8359<107.085 244.632>
LayerCount: 2
Fore
SplineSet
577.82421875 176.256835938 m 0
 577.82421875 113.190794039 615.231277495 73.0576171875 674.015625 73.0576171875 c 0
 733.152042476 73.0576171875 770.784179688 113.190794039 770.784179688 176.256835938 c 0
 770.784179688 238.265218397 733.152042476 277.724609375 674.015625 277.724609375 c 0
 615.231277495 277.724609375 577.82421875 238.265218397 577.82421875 176.256835938 c 0
492.020507812 176.399414062 m 0
 492.020507812 289.137173592 562.790022206 360.87890625 674 360.87890625 c 0
 785.601374735 360.87890625 856.620117188 289.137173592 856.620117188 176.399414062 c 0
 856.620117188 62.4884665476 785.601374735 -10 674 -10 c 0
 562.790022206 -10 492.020507812 62.4884665476 492.020507812 176.399414062 c 0
117.82421875 554.370117188 m 0
 117.82421875 491.304075289 155.231277495 451.170898438 214.015625 451.170898438 c 0
 273.152042476 451.170898438 310.784179688 491.304075289 310.784179688 554.370117188 c 0
 310.784179688 616.378499647 273.152042476 655.837890625 214.015625 655.837890625 c 0
 155.231277495 655.837890625 117.82421875 616.378499647 117.82421875 554.370117188 c 0
32.0205078125 554.512695312 m 0
 32.0205078125 667.250454842 102.790022206 738.9921875 214 738.9921875 c 0
 325.601374736 738.9921875 396.620117188 667.250454842 396.620117188 554.512695312 c 0
 396.620117188 440.601747797 325.601374736 368.11328125 214 368.11328125 c 0
 102.790022206 368.11328125 32.0205078125 440.601747797 32.0205078125 554.512695312 c 0
EndSplineSet
Refer: 168 8260 N 1 0 0 1 304 0 2
EndChar

StartChar: ampersand
Encoding: 6 38 76
Width: 715
Flags: W
HStem: -9.99805 94.248<214.284 451.977> 296.5 93<506.5 669> 320.5 90<250.699 355> 652.75 92.25<277.794 375.645>
VStem: 45 112<133.256 264.274> 63 106.75<472.065 583.791> 454.5 111<107.5 296.5 389.5 552> 458.5 100<107.5 552>
LayerCount: 2
Fore
SplineSet
670 389.5 m 1xd0
 669 292.5 l 1
 501.5 296.5 l 1
 506.5 389.5 l 1
 670 389.5 l 1xd0
375 745 m 1
 383.5 652.75 l 1
 290.351615212 643.322636433 169.75 614.723115073 169.75 528.18359375 c 0xb4
 169.75 466.581823225 224.11237451 420.500559872 357 410.5 c 1
 355 320.5 l 1
 228.076923077 311.83802817 157 287.316901409 157 197.5 c 0
 157 128.807377049 206.575 84.25 322.25 84.25 c 0
 415.86516854 84.25 454.5 107.5 454.5 107.5 c 1xba
 458.5 555 l 1
 558.5 552 l 1xb1
 565.5 37 l 1
 565.5 37 477.172547831 -9.998046875 320 -9.998046875 c 0
 159.661016949 -9.998046875 45 48.4071913126 45 199 c 0xba
 45 345.967086911 204.5 371 204.5 371 c 1
 204.5 371 63 402.467747779 63 531.25 c 0xb4
 63 638.533653846 145.055045871 728.557692308 375 745 c 1
EndSplineSet
Substitution2: "'ss18' Style Set 18 lookup 30-1" ampersand.ss18
Substitution2: "'ss09' Style Set 9 lookup 17-1" ampersand.ss09
EndChar

StartChar: two
Encoding: 18 50 77
Width: 595
Flags: W
HStem: 0 98.5<244.652 546> 637.5 101.5<159.514 359.05>
VStem: 422.614 107.35<391.426 573.441>
LayerCount: 2
Fore
SplineSet
244.65234375 98.5 m 1
 550 104.5 l 1
 546 0 l 1
 53.9833984375 0 l 1
 44.9833984375 70 l 1
 44.9833984375 70 422.614257812 260.969559772 422.614257812 484.75 c 0
 422.614257812 587.554400275 365.387203601 637.5 268.955078125 637.5 c 0
 153.154790248 637.5 83.9638671875 568.5 83.9638671875 568.5 c 1
 41.5634765625 663 l 1
 41.5634765625 663 131.361531393 739 282.03125 739 c 0
 442.271602561 739 529.963867188 647.257762042 529.963867188 501.43359375 c 0
 529.963867188 247.100999653 244.65234375 98.5 244.65234375 98.5 c 1
EndSplineSet
Substitution2: "'onum' Oldstyle Figures lookup 27-1" two.osf
Substitution2: "'frac' Diagonal Fractions in Latin lookup 26 subtable" two.numr
Substitution2: "'dnom' Denominators lookup 0 subtable" two.dnom
Substitution2: "'numr' Numerators lookup 0 subtable" two.numr
Substitution2: "'sinf' Scientific Inferiors lookup 0 subtable" two.inferior
Substitution2: "'sups' Superscript lookup 0 subtable" two.superior
EndChar

StartChar: three.ss01
Encoding: 736 -1 78
Width: 579
Flags: W
HStem: -10.0664 90<111.941 360.316> 332.492 83.4414<155.273 351.15> 641.992 97<125.091 356.386>
VStem: 411.667 103.75<465.667 591.935> 433.167 101.25<140.744 274.974>
LayerCount: 2
Fore
SplineSet
61.75 122.75 m 1xe8
 61.75 122.75 136.206891624 79.93359375 239.916992188 79.93359375 c 0
 369.726852273 79.93359375 433.166992188 129.247853236 433.166992188 206.7421875 c 0xe8
 433.166992188 283.589409722 374.011202298 332.4921875 249.416992188 332.4921875 c 0
 175.255565383 332.4921875 155.2578125 325.93359375 155.2578125 325.93359375 c 1
 155.196289062 419.876953125 l 1
 155.196289062 419.876953125 173.993007981 415.93359375 235.416992188 415.93359375 c 0
 358.129137539 415.93359375 411.666992188 460.7109375 411.666992188 527.93359375 c 0
 411.666992188 598.759837974 360.733398437 641.9921875 245.916992188 641.9921875 c 0
 142.086629001 641.9921875 73.76953125 596.927734375 73.76953125 596.927734375 c 1
 46.25 692.840820312 l 1
 46.25 692.840820312 109.977786736 738.9921875 259.916992188 738.9921875 c 0
 418.278794693 738.9921875 515.416992188 663.358398438 515.416992188 542.93359375 c 0xf0
 515.416992188 412.521105404 390.275390625 377.21875 390.275390625 377.21875 c 1
 390.275390625 377.21875 534.416992188 348.002437002 534.416992188 196.9921875 c 0
 534.416992188 70.4560546875 430.389313473 -10.06640625 266.916992188 -10.06640625 c 0
 102.768167824 -10.06640625 33 34.0849609375 33 34.0849609375 c 1
 61.75 122.75 l 1xe8
EndSplineSet
Substitution2: "'dnom' Denominators lookup 0 subtable" three.ss01.dnom
Substitution2: "'numr' Numerators lookup 0 subtable" three.ss01.numr
Substitution2: "'subs' Subscript lookup 0 subtable" three.ss01.subscript
Substitution2: "'sinf' Scientific Inferiors lookup 0 subtable" three.ss01.inferior
Substitution2: "'sups' Superscript lookup 0 subtable" three.ss01.superior
EndChar

StartChar: four
Encoding: 20 52 79
Width: 679
Flags: W
HStem: 0 21G<402.5 506.329> 199.62 88.96<168.72 628.76>
VStem: 402.5 103.829<0 629.934>
LayerCount: 2
Fore
SplineSet
500.899414062 629.93359375 m 1
 506.329101562 0 l 1
 402.5 0 l 1
 408.669921875 629.93359375 l 1
 500.899414062 629.93359375 l 1
373.559570312 752.280273438 m 1
 453.759765625 704.400390625 l 1
 168.719726562 288.580078125 l 1
 630.639648438 288.459960938 l 1
 628.759765625 197.1796875 l 1
 57.259765625 199.620117188 l 1
 38.5595703125 251.110351562 l 1
 373.559570312 752.280273438 l 1
EndSplineSet
Substitution2: "'onum' Oldstyle Figures lookup 27-1" four.osf
Substitution2: "'frac' Diagonal Fractions in Latin lookup 26 subtable" four.numr
Substitution2: "'dnom' Denominators lookup 0 subtable" four.dnom
Substitution2: "'numr' Numerators lookup 0 subtable" four.numr
Substitution2: "'sinf' Scientific Inferiors lookup 0 subtable" four.inferior
Substitution2: "'sups' Superscript lookup 0 subtable" four.superior
EndChar

StartChar: seven
Encoding: 23 55 80
Width: 568
Flags: W
HStem: 627.713 103.295<151.25 431.598>
LayerCount: 2
Fore
SplineSet
32 458.7578125 m 1
 57 731.0078125 l 1
 514.516601562 731.0078125 l 1
 552.016601562 668.0078125 l 1
 286 -16 l 1
 183.75 18.25 l 1
 431.59765625 629.0078125 l 1
 151.25 627.712890625 l 1
 133.75 451.5 l 1
 32 458.7578125 l 1
EndSplineSet
Substitution2: "'onum' Oldstyle Figures lookup 27-1" seven.osf
Substitution2: "'frac' Diagonal Fractions in Latin lookup 26 subtable" seven.numr
Substitution2: "'dnom' Denominators lookup 0 subtable" seven.dnom
Substitution2: "'numr' Numerators lookup 0 subtable" seven.numr
Substitution2: "'sinf' Scientific Inferiors lookup 0 subtable" seven.inferior
Substitution2: "'sups' Superscript lookup 0 subtable" seven.superior
EndChar

StartChar: dollar
Encoding: 4 36 81
Width: 408
Flags: W
HStem: 0 21G<173 260> 719 20G<138 225>
VStem: 42.5 96.9316<447.545 519.472> 147 71<581.5 704> 180 71<35 157.5> 267.438 98.3516<231.068 308.826>
LayerCount: 2
Fore
SplineSet
260 0 m 1xec
 173 0 l 1
 180 157.5 l 1
 251 157.5 l 1
 260 0 l 1xec
138 739 m 1
 225 739 l 1
 218 581.5 l 1
 147 581.5 l 1xf4
 138 739 l 1
284.802734375 645.848632812 m 1
 296.982421875 566.080078125 l 1
 296.982421875 566.080078125 139.431640625 548.647678065 139.431640625 480.342773438 c 0
 139.431640625 450.377850857 176.844244157 434.86048295 265.232421875 395.459960938 c 0
 336.399311481 363.746034419 365.7890625 332.376753184 365.7890625 276.793945312 c 0
 365.7890625 105.19896225 95.5390625 87.0791015625 95.5390625 87.0791015625 c 1
 85.3193359375 180.921875 l 1
 85.3193359375 180.921875 267.4375 189.852970013 267.4375 270.423828125 c 0
 267.4375 306.304098513 234.71906907 320.756295501 149.536132812 354.397460938 c 0
 69.9450414082 385.207137489 42.5 418.547832986 42.5 471.14453125 c 0
 42.5 630.864642346 284.802734375 645.848632812 284.802734375 645.848632812 c 1
EndSplineSet
EndChar

StartChar: quotesingle
Encoding: 7 39 82
Width: 256
Flags: W
HStem: 465 300<92 158>
VStem: 92 66<465 544.245>
LayerCount: 2
Fore
SplineSet
71.5 765 m 25
 184.5 765 l 25
 158 465 l 25
 92 465 l 25
 71.5 765 l 25
EndSplineSet
EndChar

StartChar: quotedbl
Encoding: 2 34 83
Width: 462
VWidth: 1111
Flags: W
HStem: 455.5 310.5
VStem: 96 65<460 498.207> 281.5 69.5<458.5 492.038>
LayerCount: 2
Fore
SplineSet
46.5 757.5 m 1
 163.5 766 l 1
 161 460 l 1
 96 455.5 l 1
 46.5 757.5 l 1
291 765 m 1
 409.5 753.5 l 1
 351 456.5 l 1
 281.5 458.5 l 1
 291 765 l 1
EndSplineSet
EndChar

StartChar: plus
Encoding: 11 43 84
Width: 450
Flags: W
HStem: 330 80<21 277.261>
VStem: 190.5 73<284.984 569.5>
LayerCount: 2
Fore
SplineSet
270 569.5 m 1
 263.5 386.5 l 1
 269 158.5 l 1
 175 160.5 l 1
 190.5 387.5 l 1
 184 572.5 l 1
 270 569.5 l 1
21 410 m 1
 223 407 l 1
 432 412.5 l 1
 431 318.5 l 1
 223 334 l 1
 19 330 l 1
 21 410 l 1
EndSplineSet
EndChar

StartChar: minus
Encoding: 719 8722 85
Width: 450
Flags: W
HStem: 326.25 87<79.25 417> 334.25 78<33 368.75>
LayerCount: 2
Fore
SplineSet
33 412.25 m 1x40
 419 413.25 l 1
 417 326.25 l 1x80
 31 334.25 l 1
 33 412.25 l 1x40
EndSplineSet
EndChar

StartChar: question
Encoding: 31 63 86
Width: 437
Flags: W
HStem: -10 130<95.5623 196.438> 201.635 188.339<104.511 186.025> 654 91.3838<61.593 156.485>
VStem: 81 130<4.56229 105.438> 100.405 89.4219<201.635 308.5> 291.25 100.75<434.803 566.383>
LayerCount: 2
Fore
SplineSet
44.75 654 m 1xec
 62.990234375 745.383789062 l 1
 288.617369133 712.580194089 392 639.341073709 392 498.260742188 c 0
 392 384.127092402 308.290708187 325.962677294 223.25 312 c 0
 203.863664721 308.544449364 189.827148438 308.5 189.827148438 308.5 c 1
 186.5 196.75 l 1
 186.5 196.75 174.897260274 201.634765625 148 201.634765625 c 0
 119.557692308 201.634765625 104.5 195.25 104.5 195.25 c 1
 100.405273438 391 l 1
 100.405273438 391 119.909261831 389.973632812 158.75 389.973632812 c 0
 233.920329671 389.973632812 291.25 421.72220833 291.25 504.25 c 0
 291.25 590.810834611 204.835540078 635.117424613 44.75 654 c 1xec
81 55 m 0xf4
 81 94.7224786936 106.277521307 120 146 120 c 0
 185.722478694 120 211 94.7224786936 211 55 c 0
 211 15.2775213069 185.722478694 -10 146 -10 c 0
 106.277521307 -10 81 15.2775213069 81 55 c 0xf4
EndSplineSet
EndChar

StartChar: parenleft
Encoding: 8 40 87
Width: 361
Flags: W
VStem: 45 96.1367<121.581 473.396>
LayerCount: 2
Fore
SplineSet
141.13671875 300.836914062 m 0
 141.13671875 4.72401720358 300 -153.994140625 300 -153.994140625 c 1
 232.5 -198.994140625 l 1
 232.5 -198.994140625 45 -37 45 301.005859375 c 0
 45 613 232.5 791.001953125 232.5 791.001953125 c 1
 300 746.001953125 l 1
 300 746.001953125 141.13671875 593.431822039 141.13671875 300.836914062 c 0
EndSplineSet
EndChar

StartChar: parenright
Encoding: 9 41 88
Width: 361
Flags: W
VStem: 219.863 96.1367<118.611 470.427>
LayerCount: 2
Fore
SplineSet
219.86328125 291.170898438 m 0
 219.86328125 587.283795296 61 746.001953125 61 746.001953125 c 1
 128.5 791.001953125 l 1
 128.5 791.001953125 316 629.0078125 316 291.001953125 c 0
 316 -20.9921875 128.5 -198.994140625 128.5 -198.994140625 c 1
 61 -153.994140625 l 1
 61 -153.994140625 219.86328125 -1.42400953817 219.86328125 291.170898438 c 0
EndSplineSet
EndChar

StartChar: bracketleft
Encoding: 59 91 89
Width: 394
Flags: W
HStem: -190 76<153.747 356.824> 709 82.0107<150.672 347.395>
VStem: 55 98.7471<-114 709>
LayerCount: 2
Fore
SplineSet
347.39453125 791.010742188 m 1
 353.665039062 708 l 1
 150.671875 709 l 1
 153.747070312 -114 l 1
 359.806640625 -112 l 1
 356.82421875 -190 l 1
 55 -190 l 1
 57.69140625 791.010742188 l 1
 347.39453125 791.010742188 l 1
EndSplineSet
EndChar

StartChar: bracketright
Encoding: 61 93 90
Width: 394
Flags: W
HStem: -190 78<37.9824 241.06> 708 83.0107<47.4121 244.135>
VStem: 241.06 98.7471<-116 711>
LayerCount: 2
Fore
SplineSet
47.412109375 791.010742188 m 1
 337.115234375 791.010742188 l 1
 339.806640625 -190 l 1
 37.982421875 -190 l 1
 35 -112 l 1
 241.059570312 -116 l 1
 244.134765625 711 l 1
 41.1416015625 708 l 1
 47.412109375 791.010742188 l 1
EndSplineSet
EndChar

StartChar: less
Encoding: 28 60 91
Width: 450
Flags: W
LayerCount: 2
Fore
SplineSet
189.37109375 339 m 1
 415.349609375 206 l 1
 372.849609375 122 l 1
 39.650390625 332 l 1
 372.849609375 561 l 1
 415.349609375 477 l 1
 189.37109375 339 l 1
EndSplineSet
EndChar

StartChar: greater
Encoding: 30 62 92
Width: 450
Flags: W
LayerCount: 2
Fore
SplineSet
263.12890625 346.75 m 1
 34.650390625 477 l 1
 77.150390625 561 l 1
 410.349609375 351 l 1
 77.150390625 122 l 1
 34.650390625 206 l 1
 263.12890625 346.75 l 1
EndSplineSet
EndChar

StartChar: asciicircum
Encoding: 62 94 93
Width: 392
Flags: W
HStem: 421 327
LayerCount: 2
Fore
SplineSet
194 748 m 25
 382 468.5 l 25
 315.25 421 l 25
 195 619 l 25
 81.5 427 l 25
 10 465 l 25
 194 748 l 25
EndSplineSet
EndChar

StartChar: asterisk
Encoding: 10 42 94
Width: 401
Flags: W
LayerCount: 2
Fore
SplineSet
157.357421875 765 m 1
 242.357421875 765 l 1
 235.416992188 638.037109375 l 1
 348.830078125 681.389648438 l 1
 370.1640625 602.3046875 l 1
 249.24609375 570.830078125 l 1
 330.837890625 463 l 1
 266.510742188 419.829101562 l 1
 201.842773438 523.431640625 l 1
 136.2734375 419.829101562 l 1
 72.9462890625 463 l 1
 154.538085938 570.830078125 l 1
 31 610.754882812 l 1
 57.3681640625 682.139648438 l 1
 168.368164062 638.037109375 l 1
 157.357421875 765 l 1
EndSplineSet
EndChar

StartChar: sterling
Encoding: 97 163 95
Width: 576
Flags: W
HStem: 0 96.293<174.064 531.539> 282.5 97<155.583 416.25> 293 82.75<28.75 285.917>
VStem: 58.4297 115.635<96.293 227.921>
LayerCount: 2
Fore
SplineSet
28.75 375.75 m 1xb0
 419.75 379.5 l 1
 416.25 282.5 l 1xd0
 25.25 293 l 1
 28.75 375.75 l 1xb0
174.064453125 96.29296875 m 1
 535.159179688 97.9306640621 l 1
 531.5390625 0 l 1
 58.4296875 0 l 1
 79.4187518606 452.125433501 170.496678415 643.005046291 456.930664062 747.6640625 c 1
 488.798828125 654.354492188 l 1
 282.072878921 579.308292839 186.53887898 418.683265497 174.064453125 96.29296875 c 1
EndSplineSet
EndChar

StartChar: braceleft
Encoding: 91 123 96
Width: 474
Flags: W
HStem: -199.681 88.6201<231.419 422.937> 257.352 86.9004<35.0282 157.544> 712.427 88.6201<234.178 422.933>
VStem: 98.3398 103.477<-81.3257 62.3595 530.126 681.381> 167.296 93.7012<116.533 246.865 352.05 462.078>
LayerCount: 2
Fore
SplineSet
296.986328125 801.046875 m 0xf0
 388.712128346 801.046875 442.4609375 770.7265625 442.4609375 770.7265625 c 1
 423.530273438 692.016601562 l 1
 423.530273438 692.016601562 380.013403314 712.426757812 317.657226562 712.426757812 c 0
 240.453528699 712.426757812 200.56640625 683.807877495 200.56640625 612 c 0
 200.56640625 528.939789964 263.600585938 505.946827095 263.600585938 389.243164062 c 0
 263.600585938 320.551424354 202.155273438 296.681640625 202.155273438 296.681640625 c 1
 202.155273438 296.681640625 260.997070312 269.310162193 260.997070312 204.143554688 c 0xe8
 260.997070312 112.111855646 201.81640625 80.8585895393 201.81640625 -16.5 c 0
 201.81640625 -84.8638427515 242.660633931 -111.060546875 316.867919922 -111.060546875 c 0
 390.174018954 -111.060546875 423.530273438 -90.650390625 423.530273438 -90.650390625 c 1
 442.4609375 -169.360351562 l 1
 442.4609375 -169.360351562 388.712128346 -199.680664062 296.986328125 -199.680664062 c 0
 169.525534056 -199.680664062 98.33984375 -145.895507812 98.33984375 -39 c 0xf0
 98.33984375 68.4997648532 167.295898438 118.28413915 167.295898438 198.765625 c 0
 167.295898438 240.124507069 144.018774966 257.3515625 106.243164062 257.3515625 c 0
 70.1748557965 257.3515625 35 255.471679688 35 255.471679688 c 1
 35 348.25 l 1
 35 348.25 73.699852034 344.251953125 111.482421875 344.251953125 c 0
 144.262142881 344.251953125 167.295898438 357.229243311 167.295898438 393.12109375 c 0xe8
 167.295898438 463.240850967 98.33984375 493.804591507 98.33984375 622 c 0
 98.33984375 733.947265625 169.525534056 801.046875 296.986328125 801.046875 c 0xf0
EndSplineSet
EndChar

StartChar: braceright
Encoding: 93 125 97
Width: 474
Flags: W
HStem: -199.681 88.6201<51.0664 243.157> 257.114 88.4004<315.153 438.969> 712.427 88.6201<51.0635 244.169>
VStem: 210.399 98.0547<144.776 251.933 352.634 481.244> 273.434 102.227<-80.3151 69.6223 536.894 683.856>
LayerCount: 2
Fore
SplineSet
177.013671875 -199.680664062 m 0xe8
 85.2878716539 -199.680664062 31.5390625 -169.360351562 31.5390625 -169.360351562 c 1
 50.4697265625 -90.650390625 l 1
 50.4697265625 -90.650390625 92.9590247154 -111.060546875 157.632080078 -111.060546875 c 0
 232.57698939 -111.060546875 273.43359375 -84.5789615075 273.43359375 -18.1337890625 c 0xe8
 273.43359375 67.7229752191 210.399414062 110.895063461 210.399414062 212.123046875 c 0xf0
 210.399414062 280.814786584 271.844726562 304.684570312 271.844726562 304.684570312 c 1
 271.844726562 304.684570312 213.002929688 332.056048745 213.002929688 397.22265625 c 0
 213.002929688 492.382648541 273.43359375 524.698259279 273.43359375 625.366210938 c 0
 273.43359375 688.307825947 233.338112655 712.426757812 157.092773438 712.426757812 c 0
 84.8746860057 712.426757812 50.4697265625 692.016601562 50.4697265625 692.016601562 c 1
 31.5390625 770.7265625 l 1
 31.5390625 770.7265625 85.2878716539 801.046875 177.013671875 801.046875 c 0
 304.474465944 801.046875 375.66015625 747.26171875 375.66015625 640.366210938 c 0xe8
 375.66015625 530.153696546 308.454101562 479.113016819 308.454101562 396.600585938 c 0
 308.454101562 360.536346726 328.204546101 345.514648438 360.256835938 345.514648438 c 0
 400.12217253 345.514648438 439 347.39453125 439 347.39453125 c 1
 439 253.116210938 l 1
 439 253.116210938 396.505172819 257.114257812 355.017578125 257.114257812 c 0
 327.670459386 257.114257812 308.454101562 246.128606423 308.454101562 215.745117188 c 0xf0
 308.454101562 143.327646355 375.66015625 111.762380345 375.66015625 -20.6337890625 c 0
 375.66015625 -132.581054688 304.474465944 -199.680664062 177.013671875 -199.680664062 c 0xe8
EndSplineSet
EndChar

StartChar: cent
Encoding: 96 162 98
Width: 391
Flags: W
HStem: 0 21G<203 290> 158.934 50.0664<210 281> 529 47.9336<208 279> 719 20G<199 286>
VStem: 45 94<286.141 446.778> 203 87<0 89.5714 613 739> 210 71<92.8889 209 529 662.636>
LayerCount: 2
Fore
SplineSet
290 0 m 1xfc
 203 0 l 1xfc
 210 209 l 1
 281 209 l 1xfa
 290 0 l 1xfc
199 739 m 1
 286 739 l 1
 279 529 l 1
 208 529 l 1
 199 739 l 1
45 369.93359375 m 0
 45 496.433681147 120.638806769 576.93359375 239.5 576.93359375 c 0
 342.246751474 576.93359375 385.916992188 534.782226562 385.916992188 534.782226562 c 1
 358.147460938 468.369140625 l 1
 358.147460938 468.369140625 316.993020363 494.43359375 253 494.43359375 c 0
 183.332906789 494.43359375 139 446.01762343 139 369.93359375 c 0
 139 288.961083983 177.911671625 237.43359375 262.5 237.43359375 c 0
 339.058146895 237.43359375 381.6484375 264.114257812 381.6484375 264.114257812 c 1
 401.146484375 191.31640625 l 1
 401.146484375 191.31640625 343.572391561 158.93359375 247 158.93359375 c 0
 123.555470269 158.93359375 45 240.988532903 45 369.93359375 c 0
EndSplineSet
EndChar

StartChar: asciitilde
Encoding: 94 126 99
Width: 524
Flags: W
HStem: 237.96 224.04
LayerCount: 2
Fore
SplineSet
353.571289062 330.668945312 m 1
 476.98046875 421.030273438 l 1
 518.66015625 354 l 1
 347.530273438 237.959960938 l 1
 178.33984375 364.791015625 l 1
 52.1806640625 267.4296875 l 1
 6 329.959960938 l 1
 177.380859375 462 l 1
 353.571289062 330.668945312 l 1
EndSplineSet
EndChar

StartChar: numbersign
Encoding: 3 35 100
Width: 704
Flags: W
HStem: 201.25 85.5<221.201 643.25> 211.5 71.75<28.75 447.299> 453.25 85.5<261.396 675.25> 463.5 71.75<72.75 483.104> 718.008 20G<246.132 330 506.132 590>
LayerCount: 2
Fore
SplineSet
28.75 283.25 m 1x48
 646.75 286.75 l 1
 643.25 201.25 l 1x88
 25.25 211.5 l 1
 28.75 283.25 l 1x48
72.75 535.25 m 1x18
 678.75 538.75 l 1
 675.25 453.25 l 1x28
 69.25 463.5 l 1
 72.75 535.25 l 1x18
368.25 5 m 1
 510 738.0078125 l 1
 590 726.0078125 l 1
 455.5 -7 l 1
 368.25 5 l 1
108.25 5 m 1
 250 738.0078125 l 1
 330 726.0078125 l 1
 195.75 -7 l 1
 108.25 5 l 1
EndSplineSet
EndChar

StartChar: five.ss02
Encoding: 737 -1 101
Width: 581
Flags: W
HStem: -10.0664 93.5<120.636 358.937> 379.742 89.7578<186.787 370.321> 634 97.0078<181.5 406.5>
VStem: 413.5 80.5166<731.008 798.258> 433.417 101.5<151.873 317.363>
LayerCount: 2
Fore
SplineSet
494.016601562 633.0078125 m 1xf0
 181.5 634 l 1
 148 425.5 l 1
 148 425.5 189.383928572 469.5 302.5 469.5 c 0
 460.756020858 469.5 534.916992188 374.436693144 534.916992188 236.9921875 c 0
 534.916992188 67.6307174514 430.014314306 -10.06640625 265.166992188 -10.06640625 c 0
 98.7375140151 -10.06640625 28 44.0849609375 28 44.0849609375 c 1
 57.75 130.75 l 1
 57.75 130.75 139.624706843 83.43359375 253.666992188 83.43359375 c 0
 374.408634364 83.43359375 433.416992188 142.372815443 433.416992188 234.9921875 c 0xe8
 433.416992188 323.450520833 381.483325195 379.7421875 279.916992188 379.7421875 c 0
 182.441834606 379.7421875 127.7578125 315.93359375 127.7578125 315.93359375 c 1
 44 369.5 l 1
 105 731.0078125 l 1
 406.5 731.0078125 l 1
 413.5 798.2578125 l 1
 494.016601562 800.0078125 l 1
 494.016601562 633.0078125 l 1xf0
EndSplineSet
Substitution2: "'dnom' Denominators lookup 0 subtable" five.ss02.dnom
Substitution2: "'numr' Numerators lookup 0 subtable" five.ss02.numr
Substitution2: "'subs' Subscript lookup 0 subtable" five.ss02.subscript
Substitution2: "'sinf' Scientific Inferiors lookup 0 subtable" five.ss02.inferior
Substitution2: "'sups' Superscript lookup 0 subtable" five.ss02.superior
EndChar

StartChar: yen
Encoding: 99 165 102
Width: 734
Flags: W
HStem: 0 21G<348.08 467.909> 122.712 80<183 467.78> 255.712 89<413.879 633.5> 263.712 80<185 577.375>
VStem: 348.08 119.829<0 274.405>
LayerCount: 2
Fore
SplineSet
183 202.711914062 m 1xc8
 404 201.711914062 l 1
 632.5 203.711914062 l 1
 631.5 114.711914062 l 1
 395 127.25 l 1
 182 122.711914062 l 1
 183 202.711914062 l 1xc8
185 343.711914062 m 1xd8
 406 337.461914062 l 1
 634.5 344.711914062 l 1
 633.5 255.711914062 l 1xe8
 397 263 l 1
 184 263.711914062 l 1
 185 343.711914062 l 1xd8
EndSplineSet
Refer: 69 89 N 1 0 0 1 0 0 2
EndChar

StartChar: brokenbar
Encoding: 100 166 103
Width: 246
Flags: W
VStem: 81.0068 84.7656<-170 239.44 355.92 788.992>
LayerCount: 2
Back
SplineSet
188.022460938 355.919921875 m 5
 58.7568359375 355.919921875 l 5
 31.169921875 788.9921875 l 5
 215.899414062 788.9921875 l 5
 188.022460938 355.919921875 l 5
189.291015625 239.440429688 m 5
 221.329101562 -170 l 5
 25 -170 l 5
 57.31640625 239.440429688 l 5
 189.291015625 239.440429688 l 5
EndSplineSet
Fore
SplineSet
165.772460938 355.919921875 m 1
 81.0068359376 355.919921875 l 1
 83.169921875 788.9921875 l 1
 163.899414062 788.9921875 l 1
 165.772460938 355.919921875 l 1
167.041015625 239.440429688 m 1
 168.829101562 -170 l 1
 77.5 -170 l 1
 79.56640625 239.440429688 l 1
 167.041015625 239.440429688 l 1
EndSplineSet
EndChar

StartChar: section
Encoding: 101 167 104
Width: 609
Flags: W
VStem: 117.753 105.349<525.626 630.523> 386.254 105.349<40.2748 144.066>
LayerCount: 2
Fore
SplineSet
69.890625 438.674804688 m 1
 109.677734375 352.695130739 202.060916271 319.721073427 326.131835938 278.893554688 c 0
 443.134065256 239.810405542 491.602539062 181.335397366 491.602539062 102.5 c 0
 491.602539062 -108.239257812 177.588867188 -114.163085938 177.588867188 -114.163085938 c 1
 162.302734375 -23.0234375 l 1
 162.302734375 -23.0234375 386.25390625 -22.4496050864 386.25390625 94.279296875 c 0
 386.25390625 134.43964409 355.720080622 174.470342157 213.58984375 218.373046875 c 0
 113.555304701 248.921966681 42.5 305.406829442 42.5 367.936523438 c 0
 42.5 407.262015977 69.890625 438.674804688 69.890625 438.674804688 c 1
540.71484375 231.825195312 m 1
 500.879990741 318.07392359 407.687661121 350.782645824 283.223632812 392.106445312 c 0
 165.884325709 431.132660718 117.752929688 489.664602634 117.752929688 568.5 c 0
 117.752929688 779.239257812 431.766601562 785.163085938 431.766601562 785.163085938 c 1
 447.052734375 694.0234375 l 1
 447.052734375 694.0234375 223.1015625 693.445936167 223.1015625 575.970703125 c 0
 223.1015625 531.800218586 254.389767594 496.282225624 410.765625 447.626953125 c 0
 503.07588111 418.820577393 566.85546875 363.502764015 566.85546875 303.063476562 c 0
 566.85546875 263.460019307 540.71484375 231.825195312 540.71484375 231.825195312 c 1
EndSplineSet
EndChar

StartChar: currency
Encoding: 98 164 105
Width: 465
Flags: W
HStem: 153.532 86.4658<178.44 297.134> 474.188 86.4668<178.44 297.134>
VStem: 37.7803 83.4893<282.746 429.181> 343.991 83.4883<282.746 429.181>
LayerCount: 2
Fore
SplineSet
298.739257812 213.436523438 m 1
 359.889648438 243.825195312 l 1
 454.259765625 109.765625 l 1
 368.080078125 66.1455078125 l 1
 298.739257812 213.436523438 l 1
176.520507812 213.436523438 m 1
 104.6796875 66.1455078125 l 1
 11 109.765625 l 1
 105.370117188 243.825195312 l 1
 176.520507812 213.436523438 l 1
298.739257812 497.74609375 m 1
 368.080078125 645.036132812 l 1
 454.259765625 599.416015625 l 1
 359.889648438 467.356445312 l 1
 298.739257812 497.74609375 l 1
176.520507812 497.74609375 m 1
 105.370117188 467.356445312 l 1
 11 599.416015625 l 1
 104.6796875 645.036132812 l 1
 176.520507812 497.74609375 l 1
121.26953125 355.671875 m 0
 121.26953125 281.155327785 169.242761815 239.998046875 232.629882812 239.998046875 c 0
 296.021867793 239.998046875 343.991210938 281.155327785 343.991210938 355.671875 c 0
 343.991210938 430.60621893 296.021867793 474.188476562 232.629882812 474.188476562 c 0
 169.242761815 474.188476562 121.26953125 430.60621893 121.26953125 355.671875 c 0
37.7802734375 355.590820312 m 0
 37.7802734375 485.24609375 121.846253658 560.655273438 232.629882812 560.655273438 c 0
 343.413511966 560.655273438 427.479492188 485.24609375 427.479492188 355.590820312 c 0
 427.479492188 225.424804688 343.413511966 153.532226562 232.629882812 153.532226562 c 0
 121.846253658 153.532226562 37.7802734375 225.424804688 37.7802734375 355.590820312 c 0
EndSplineSet
EndChar

StartChar: dieresis
Encoding: 102 168 106
Width: 450
Flags: W
HStem: 629.008 110<84.2446 175.755 274.245 365.755>
VStem: 75 110<638.252 729.763> 265 110<638.252 729.763>
LayerCount: 2
Fore
SplineSet
265 684.0078125 m 0
 265 717.619140626 286.388671874 739.0078125 320 739.0078125 c 0
 353.611328126 739.0078125 375 717.619140626 375 684.0078125 c 0
 375 650.396484374 353.611328126 629.0078125 320 629.0078125 c 0
 286.388671874 629.0078125 265 650.396484374 265 684.0078125 c 0
75 684.0078125 m 0
 75 717.619140626 96.388671875 739.0078125 130 739.0078125 c 0
 163.611328126 739.0078125 185 717.619140626 185 684.0078125 c 0
 185 650.396484374 163.611328126 629.0078125 130 629.0078125 c 0
 96.388671875 629.0078125 75 650.396484374 75 684.0078125 c 0
EndSplineSet
EndChar

StartChar: guillemotleft
Encoding: 105 171 107
Width: 632
Flags: W
HStem: 491 20G<291.634 329.993>
LayerCount: 2
Fore
SplineSet
438.470703125 264.75 m 1
 606.69921875 119.25 l 1
 556.69921875 57 l 1
 316 260 l 1
 562.94921875 469 l 1
 606.69921875 410 l 1
 438.470703125 264.75 l 1
148.220703125 259.25 m 1
 366.69921875 71 l 1
 315.19921875 2 l 1
 16 252 l 1
 314.69921875 511 l 1
 366.69921875 443 l 1
 148.220703125 259.25 l 1
EndSplineSet
EndChar

StartChar: guillemotright
Encoding: 121 187 108
Width: 632
Flags: W
HStem: 491 20G<301.572 340.436>
LayerCount: 2
Fore
SplineSet
193.228515625 248.25 m 1
 25 393.75 l 1
 75 456 l 1
 315.69921875 253 l 1
 68.75 44 l 1
 25 103 l 1
 193.228515625 248.25 l 1
483.478515625 253.75 m 1
 265 442 l 1
 316.5 511 l 1
 615.69921875 261 l 1
 317 2 l 1
 265 70 l 1
 483.478515625 253.75 l 1
EndSplineSet
EndChar

StartChar: logicalnot
Encoding: 106 172 109
Width: 497
Flags: W
HStem: 296.5 76<53 365>
VStem: 361 87<158.824 291.466>
LayerCount: 2
Fore
SplineSet
53 372.5 m 1
 446 373.5 l 1
 448 156 l 1
 361 158.82421875 l 1
 365 291.465820312 l 1
 51 296.5 l 1
 53 372.5 l 1
EndSplineSet
EndChar

StartChar: macron
Encoding: 109 175 111
Width: 330
Flags: W
HStem: 650.758 80.25<101.917 307.25> 660.508 67<23 226.583>
VStem: 23 286
LayerCount: 2
Fore
SplineSet
23 727.5078125 m 1x60
 309 731.0078125 l 1
 307.25 650.7578125 l 1xa0
 21.25 660.5078125 l 1
 23 727.5078125 l 1x60
EndSplineSet
EndChar

StartChar: mu
Encoding: 115 181 112
Width: 633
Flags: W
HStem: -9.93164 84.25<196.92 343.984> 0 77.6768<502.849 614.38> 489.002 8G<67.8408 164.17 410.31 500.298>
VStem: 50 93.75<-23.6784 478.908> 410.5 89.6699<198.068 497.002>
LayerCount: 2
Fore
SplineSet
143.75 232.568359375 m 0x38
 143.75 1.71287798055 173 -170.75 173 -170.75 c 1
 77 -187 l 1
 77 -187 50 -6.66644428042 50 208.068359375 c 0
 50 356.067568079 67.8408203125 509.001953125 67.8408203125 509.001953125 c 1
 164.169921875 500.751953125 l 1
 164.169921875 500.751953125 143.75 356.148242002 143.75 232.568359375 c 0x38
263.5 -9.931640625 m 0xb8
 148.641686242 -9.931640625 90.2312480546 86.228877732 77 160.568359375 c 1
 132.5 270.068359375 l 1
 135.747933884 137.240976466 188.295128096 74.318359375 263.5 74.318359375 c 0
 341.37103008 74.318359375 406.115384616 112.216639259 418 270.068359375 c 1
 452.5 198.068359375 l 1
 423.971698113 83.2781407651 395.001077963 -9.931640625 263.5 -9.931640625 c 0xb8
405.770507812 0 m 1x78
 410.5 497.001953125 l 1
 500.169921875 497.001953125 l 1
 502.848632812 77.6767578125 l 1
 618 79.6806640625 l 1
 614.379882812 0 l 1
 405.770507812 0 l 1x78
EndSplineSet
EndChar

StartChar: acute
Encoding: 114 180 113
Width: 230
Flags: W
HStem: 526.72 213.784
VStem: 11 208.518
LayerCount: 2
Fore
SplineSet
161.340820312 740.50390625 m 1
 219.517578125 681.68359375 l 1
 49.4375 526.719726562 l 1
 11 567.465820312 l 1
 161.340820312 740.50390625 l 1
EndSplineSet
EndChar

StartChar: plusminus
Encoding: 111 177 114
Width: 450
Flags: W
HStem: 114 83.75<179.217 430> 125.5 71<21 268.783> 163 29.25<175 223> 370 80<21 277.261>
VStem: 191.25 71.5<313.562 603.19>
LayerCount: 2
Fore
SplineSet
21 450 m 1x18
 223 447 l 1
 432 452.5 l 1
 431 358.5 l 1
 223 374 l 1
 19 370 l 1
 21 450 l 1x18
270 609.5 m 1
 262.75 426.5 l 1
 269 161 l 1
 175 163 l 1x38
 191.25 427.5 l 1
 184 612.5 l 1
 270 609.5 l 1
21 196.5 m 1x58
 223 192.25 l 1x38
 432 197.75 l 1
 430 114 l 1x98
 18 125.5 l 1
 21 196.5 l 1x58
EndSplineSet
EndChar

StartChar: copyright
Encoding: 103 169 116
Width: 795
Flags: W
HStem: -10.0664 63.377<276.815 523.561> 139.745 73.6801<336.343 520.069> 518.621 70.56<342.104 509.7> 678.14 60.7939<280.286 515.581>
VStem: 30 68<234.149 492.147> 194.789 81.5998<274.127 451.145> 701.617 63.3828<234.149 492.147>
LayerCount: 2
Fore
SplineSet
194.789453125 362.9453125 m 0
 194.789453125 501.200345084 278.742725694 589.180664062 410.66953125 589.180664062 c 0
 515.474356398 589.180664062 560.019335938 543.489257812 560.019335938 543.489257812 c 1
 531.29765625 483.48203125 l 1
 531.29765625 483.48203125 488.311216032 518.620703125 421.46953125 518.620703125 c 0
 332.808821315 518.620703125 276.389257812 458.081144153 276.389257812 362.9453125 c 0
 276.389257812 271.571583072 324.459221744 213.425195313 418.469335937 213.425195313 c 0
 501.687912654 213.425195313 543.838671875 249.443945313 543.838671875 249.443945313 c 1
 569.157031251 181.974804688 l 1
 569.157031251 181.974804688 529.062256356 139.745117188 404.66953125 139.745117188 c 0
 276.409394894 139.745117188 194.789453125 226.544541099 194.789453125 362.9453125 c 0
30 361.93359375 m 0
 30 592.322641811 172.722067272 738.93359375 397 738.93359375 c 0
 621.889353198 738.93359375 765 592.322641811 765 361.93359375 c 0
 765 134.599173678 621.889353198 -10.06640625 397 -10.06640625 c 0
 172.722067272 -10.06640625 30 134.599173678 30 361.93359375 c 0
98 361.93359375 m 0
 98 173.330214965 214.665625 53.310546875 398 53.310546875 c 0
 583.544326346 53.310546875 701.6171875 173.330214965 701.6171875 361.93359375 c 0
 701.6171875 555.172156521 583.544326346 678.139648438 398 678.139648438 c 0
 214.665625 678.139648438 98 555.172156521 98 361.93359375 c 0
EndSplineSet
EndChar

StartChar: registered
Encoding: 108 174 117
Width: 795
Flags: W
HStem: -10.0664 63.377<276.815 523.561> 512.673 71.5205<301.895 476.085> 512.673 24.8748<304.479 340.556> 678.14 60.7939<280.286 515.581>
VStem: 30 68<234.149 492.147> 263.816 78.7393<140.798 308.338 356.245 537.548> 507.024 76.6803<373.218 483.853> 701.617 63.3828<234.149 492.147>
LayerCount: 2
Fore
SplineSet
342.55546875 140.7984375 m 1xbf
 263.816210938 140.7984375 l 1
 267.518359375 537.548242188 l 1
 340.556445312 537.548242188 l 1
 342.55546875 140.7984375 l 1xbf
330.071679688 356.244726563 m 1
 330.071679688 356.244726563 347.820333038 343.728515625 403.464660644 343.728515625 c 0
 469.325529689 343.728515625 507.024414062 379.936240116 507.024414062 427.438867188 c 0
 507.024414062 480.111842746 470.108583461 512.6734375 390.193945312 512.6734375 c 0
 304.479053285 512.6734375 205.795703125 472.254882812 205.795703125 472.254882812 c 1
 187.15390625 543.302734375 l 1
 187.15390625 543.302734375 250.3104535 584.193945312 398.904492188 584.193945312 c 0xdf
 511.838137687 584.193945312 583.7046875 524.680059581 583.7046875 431.158398438 c 0
 583.7046875 355.846087747 534.616817029 313.744733738 484.142944336 301.300354004 c 0
 461.148701448 293.581517923 442.237890624 292.62265625 442.237890624 292.62265625 c 1
 594.216601562 186.11875 l 1
 548.136132813 121.798242188 l 1
 306.708398438 308.33828125 l 1
 330.071679688 356.244726563 l 1
30 361.93359375 m 0
 30 592.322641811 172.722067272 738.93359375 397 738.93359375 c 0
 621.889353198 738.93359375 765 592.322641811 765 361.93359375 c 0
 765 134.599173678 621.889353198 -10.06640625 397 -10.06640625 c 0
 172.722067272 -10.06640625 30 134.599173678 30 361.93359375 c 0
98 361.93359375 m 0
 98 173.330214965 214.665625 53.310546875 398 53.310546875 c 0
 583.544326346 53.310546875 701.6171875 173.330214965 701.6171875 361.93359375 c 0
 701.6171875 555.172156521 583.544326346 678.139648438 398 678.139648438 c 0
 214.665625 678.139648438 98 555.172156521 98 361.93359375 c 0
EndSplineSet
EndChar

StartChar: degree
Encoding: 110 176 118
Width: 429
Flags: W
HStem: 371.113 77.8027<150.662 278.602> 661.093 77.8994<150.662 278.602>
VStem: 31 82.8838<486.661 624.313> 315.684 82.916<486.661 624.313>
LayerCount: 2
Fore
SplineSet
113.883789062 555.916015625 m 0
 113.883789062 490.528163365 153.002751625 448.916015625 214.479492188 448.916015625 c 0
 276.326555876 448.916015625 315.68359375 490.528163365 315.68359375 555.916015625 c 0
 315.68359375 620.191438233 276.326555876 661.092773438 214.479492188 661.092773438 c 0
 153.002751625 661.092773438 113.883789062 620.191438233 113.883789062 555.916015625 c 0
31 556.012695312 m 0
 31 667.833443701 102.353084666 738.9921875 214.479492188 738.9921875 c 0
 326.997495164 738.9921875 398.599609375 667.833443701 398.599609375 556.012695312 c 0
 398.599609375 443.018137243 326.997495164 371.11328125 214.479492188 371.11328125 c 0
 102.353084666 371.11328125 31 443.018137243 31 556.012695312 c 0
EndSplineSet
EndChar

StartChar: AE
Encoding: 132 198 119
Width: 960
Flags: W
HStem: 0 96.4805<604.018 926.539> 185.5 97<252 566.5> 315.5 97<541.767 874.5> 323 88.75<522 850.733> 628.08 102.928<224 492.996 601.104 918.729>
VStem: 518 86.0176<323 411.75>
LayerCount: 2
Fore
SplineSet
252 281.5 m 1xcc
 570.5 282.5 l 1
 566.5 185.5 l 1
 218 192.75 l 1
 252 281.5 l 1xcc
918.729492188 731.010742188 m 1
 924.61328125 629 l 1
 601.103515625 633 l 1
 604.017578125 96.48046875 l 1
 659.064453125 96.29296875 l 1
 930.159179688 97.9306640621 l 1
 926.5390625 0 l 1
 488.4296875 0 l 1
 493.151367188 635.083984375 l 1
 215 628.080078125 l 1
 224 731.0078125 l 1
 918.729492188 731.010742188 l 1
522 411.75 m 1xdc
 878 412.5 l 1
 874.5 315.5 l 1xec
 518 323 l 1
 522 411.75 l 1xdc
548 656.5 m 1
 110.819335938 -15 l 1
 15.2734375 52.5 l 1
 474.5 705.5 l 1
 548 656.5 l 1
EndSplineSet
EndChar

StartChar: ae
Encoding: 164 230 120
Width: 882
Flags: W
HStem: -23.9004 82.3008<620.219 781.819> -10.0664 80.25<162.878 325.872> 203 74.5<463.75 771.25> 264.184 72.75<161.532 326.975> 422.934 84<543.339 712.147> 501 20G<164.593 168>
VStem: 32.5 89<110.172 226.311> 366.5 98.0986<158.488 367.196> 366.5 81<108.452 164.666> 771.5 96.1191<237.214 364.516>
LayerCount: 2
Fore
SplineSet
366.5 170.93359375 m 0x5340
 366.5 224.890141325 318.666467469 264.18359375 243.5 264.18359375 c 0
 166.444249771 264.18359375 121.5 224.363419443 121.5 169.68359375 c 0
 121.5 109.735982959 169.333137064 70.18359375 244.5 70.18359375 c 0
 321.555357977 70.18359375 366.5 110.232872271 366.5 170.93359375 c 0x5340
447.5 153.18359375 m 0x52c0
 447.5 99.6581505673 392.621055989 -10.06640625 238 -10.06640625 c 0
 112.416452261 -10.06640625 32.5 58.7666015625 32.5 166.93359375 c 0
 32.5 270.823242188 108.74920005 336.93359375 228.5 336.93359375 c 0
 380.904444783 336.93359375 447.5 233.445256881 447.5 153.18359375 c 0x52c0
464.598632812 158.426757812 m 1x0740
 368.020507812 168.5 l 1
 368.020507812 168.5 372 249.258709343 372 295.75 c 0
 372 433.646954198 154.5 441.75 154.5 441.75 c 1
 168 521 l 1
 168 521 461.919921875 513.796133325 461.919921875 294.501953125 c 0
 461.919921875 243.129444454 464.598632812 158.426757812 464.598632812 158.426757812 c 1x0740
EndSplineSet
Refer: 9 101 N 1 0 0 1 352.5 0 2
EndChar

StartChar: cedilla
Encoding: 118 184 121
Width: 227
Flags: W
HStem: -248 57.5<13.75 109.875> -101 49<84.5 113.112>
VStem: 121.75 72.75<-175.945 -112.937>
LayerCount: 2
Fore
SplineSet
39.5 20 m 1
 102.5 17 l 1
 84.5 -52 l 1
 96.5 -52 194.5 -61.8413878858 194.5 -139.75 c 0
 194.5 -217.461060125 127.426649746 -243.124702381 13.75 -248 c 1
 8.5 -190.5 l 1
 83.8045454545 -189.869318182 121.75 -177.15796015 121.75 -144.25 c 0
 121.75 -114.897660624 97.3137340863 -102.721691616 24.75 -101 c 1
 15.5 -69.5 l 1
 39.5 20 l 1
EndSplineSet
EndChar

StartChar: paragraph
Encoding: 116 182 124
Width: 823
Flags: W
HStem: 630.992 108<417.6 528.38>
VStem: 45 372.6<381.214 596.107> 302 115.6<-173.994 90.0881> 313 104.6<-23.09 243.185> 530 114<-173.994 401.394> 530 104.261<51.1683 626.557>
LayerCount: 2
Fore
SplineSet
778 714.234375 m 1xc0
 767.75 615.484375 l 1
 767.75 615.484375 683.876604167 625.827571414 634.260742188 626.556640625 c 1xc4
 644 -173.994140625 l 1
 530 -173.994140625 l 1x88
 530 630.2421875 l 1
 530 630.2421875 437.651787314 630.9921875 417.599609375 630.9921875 c 1x94
 417.599609375 -173.994140625 l 1
 302 -173.994140625 l 1xa0
 313 240.9921875 l 1x90
 156.009234716 253.871308694 45 324.077035731 45 485.9921875 c 0
 45 667.805875713 164.999936311 738.9921875 393 738.9921875 c 0
 636.380233374 738.9921875 778 714.234375 778 714.234375 c 1xc0
EndSplineSet
EndChar

StartChar: Eth
Encoding: 142 208 125
Width: 783
Flags: W
HStem: -10.0664 103.25<272.53 501.996> 303.25 96.25<159.654 465.5> 313 83<41.5 345.346> 634.242 104.75<182.396 496.6>
VStem: 165.94 102.729<105.347 650.5> 640.917 108<240.857 484.635>
LayerCount: 2
Fore
SplineSet
41.5 396 m 1xbc
 467.5 399.5 l 1
 465.5 303.25 l 1xdc
 39.5 313 l 1
 41.5 396 l 1xbc
EndSplineSet
Refer: 57 68 N 1 0 0 1 0 0 2
EndChar

StartChar: eth
Encoding: 174 240 126
Width: 585
Flags: W
HStem: -10.0664 89.6748<204.307 371.56> 414.259 92.6748<201.39 375.311>
VStem: 31.25 95.875<159.56 339.489> 448.875 105.125<160.423 334.002>
LayerCount: 2
Fore
SplineSet
143.401367188 614.920898438 m 1
 322.940429688 691.775390625 l 1
 462.33984375 772.794921875 l 1
 507.955078125 677.39453125 l 1
 354.6171875 619.629882812 l 1
 184.368164062 528.965820312 l 1
 143.401367188 614.920898438 l 1
127.125 252.858398438 m 0
 127.125 146.983200554 189.308065394 79.6083984375 287.025390625 79.6083984375 c 0
 385.933905384 79.6083984375 448.875 146.983200554 448.875 252.858398438 c 0
 448.875 351.492540631 385.933905384 414.258789062 287.025390625 414.258789062 c 0
 189.308065394 414.258789062 127.125 351.492540631 127.125 252.858398438 c 0
31.25 249.93359375 m 0
 31.25 406.989257812 125.847119521 506.93359375 274.5 506.93359375 c 0
 397.164491445 506.93359375 432.90234375 447.057617188 432.90234375 447.057617188 c 1
 391.544196954 636.440482668 222.021484375 718.267578125 222.021484375 718.267578125 c 1
 311.770507812 782.510742188 l 1
 311.770507812 782.510742188 554 639.959487241 554 312 c 0
 554 76.5609773511 447.667003543 -10.06640625 287 -10.06640625 c 0
 130.708225355 -10.06640625 31.25 91.0439453125 31.25 249.93359375 c 0
EndSplineSet
EndChar

StartChar: multiply
Encoding: 149 215 127
Width: 450
Flags: W
LayerCount: 2
Fore
SplineSet
363.034179688 568.0859375 m 1
 429 506.36328125 l 1
 254.92578125 335.126953125 l 1
 92.2861328121 158.670898438 l 1
 23.12109375 226.7578125 l 1
 208.318359375 392.094726562 l 1
 363.034179688 568.0859375 l 1
89.0869140625 568.0859375 m 1
 253.802734375 392.094726562 l 1
 429 226.7578125 l 1
 359.834960938 158.670898438 l 1
 202.1953125 335.126953125 l 1
 23.12109375 506.36328125 l 1
 89.0869140625 568.0859375 l 1
EndSplineSet
EndChar

StartChar: divide
Encoding: 181 247 128
Width: 450
Flags: W
HStem: 161 124<175.98 274.02> 331.5 79<40 411> 454 124<175.98 274.02>
VStem: 163 124<173.98 272.02 466.98 565.02>
LayerCount: 2
Fore
SplineSet
163 516 m 0
 163 553.889369419 187.111111111 578 225 578 c 0
 262.888888889 578 287 553.889369419 287 516 c 0
 287 478.110630581 262.888888889 454 225 454 c 0
 187.111111111 454 163 478.110630581 163 516 c 0
39 410.5 m 1
 415 414.5 l 1
 411 327.5 l 1
 40 331.5 l 1
 39 410.5 l 1
163 223 m 0
 163 260.889369419 187.111111111 285 225 285 c 0
 262.888888889 285 287 260.889369419 287 223 c 0
 287 185.110630581 262.888888889 161 225 161 c 0
 187.111111111 161 163 185.110630581 163 223 c 0
EndSplineSet
EndChar

StartChar: Oslash
Encoding: 150 216 129
Width: 785
Flags: W
HStem: -10.0664 101.851<284.513 493.373> 637.083 101.851<284.513 493.373>
VStem: 41.5 104.487<243.278 482.348> 639.013 104.487<243.278 482.348>
LayerCount: 2
Fore
SplineSet
708.94921875 731.43359375 m 1
 437.830078125 351.799804688 l 1
 183.37890625 -77.25 l 1
 91.05078125 -22 l 1
 376.029296875 379.950195312 l 1
 622.220703125 787.18359375 l 1
 708.94921875 731.43359375 l 1
EndSplineSet
Refer: 43 79 N 1 0 0 1 0 0 2
EndChar

StartChar: oslash
Encoding: 182 248 130
Width: 565
Flags: W
HStem: -10.0664 87.4248<200.826 363.386> 419.509 87.4248<200.826 363.386>
VStem: 31.25 93.625<155.157 343.308> 439.125 94.875<155.157 343.308>
LayerCount: 2
Fore
SplineSet
504.5390625 499.638671875 m 1
 312.544921875 234.815429688 l 1
 137.435546875 -49.7802734375 l 1
 63.9609375 -1.400390625 l 1
 258.34765625 263.624023438 l 1
 435.15625 548.87890625 l 1
 504.5390625 499.638671875 l 1
EndSplineSet
Refer: 3 111 N 1 0 0 1 0 0 2
EndChar

StartChar: Thorn
Encoding: 156 222 131
Width: 714
Flags: W
HStem: 0 21G<148.958 265.287> 124.934 92.75<295.243 507.533> 516.242 93.75<296.342 505.907> 635.084 95.9268<38.748 153.279>
VStem: 148.958 116.329<0 184.434 264.877 468.428 550.841 635.084> 573.917 103<280.53 450.154>
LayerCount: 2
Fore
SplineSet
249.196289062 264.876953125 m 1
 249.196289062 264.876953125 294.830948571 217.68359375 412.916992188 217.68359375 c 0
 516.601945491 217.68359375 573.916992188 272.078080848 573.916992188 359.93359375 c 0
 573.916992188 464.595891064 515.545845263 516.2421875 403.416992188 516.2421875 c 0
 311.867820286 516.2421875 244.26953125 468.427734375 244.26953125 468.427734375 c 1
 215.5 550.840820312 l 1
 215.5 550.840820312 292.097160852 609.9921875 414.416992188 609.9921875 c 0
 576.361165363 609.9921875 676.916992188 517.142383873 676.916992188 354.93359375 c 0
 676.916992188 215.441813151 580.405681816 124.93359375 424.416992188 124.93359375 c 0
 296.98460904 124.93359375 220.2578125 184.43359375 220.2578125 184.43359375 c 1
 249.196289062 264.876953125 l 1
259.857421875 731.010742188 m 1
 265.287109375 0 l 1
 148.958007812 0 l 1
 153.279296875 635.083984375 l 1
 35.1279296875 633.080078125 l 1
 38.748046875 731.010742188 l 1
 259.857421875 731.010742188 l 1
EndSplineSet
EndChar

StartChar: thorn
Encoding: 188 254 132
Width: 662
Flags: W
HStem: -10.0664 86<295.035 459.593> 421.434 85.5<292.939 459.593> 676.584 78.4268<18.6201 119.151>
VStem: 119.151 89.5781<-174 676.584> 158.25 55.9092<94.6763 391.494> 537.75 94.25<154.786 343.849>
LayerCount: 2
Fore
SplineSet
218.25 249.93359375 m 0xe4
 218.25 143.599882812 279.985517128 75.93359375 377 75.93359375 c 0
 475.237102161 75.93359375 537.75 143.599882812 537.75 249.93359375 c 0
 537.75 354.740108529 475.237102161 421.43359375 377 421.43359375 c 0
 279.985517128 421.43359375 218.25 354.740108529 218.25 249.93359375 c 0xe4
158.25 257.93359375 m 0xec
 158.25 391.493553084 239.896105796 506.93359375 393.75 506.93359375 c 0
 539.347902533 506.93359375 632 406.989257812 632 249.93359375 c 0
 632 91.0439453125 539.347902533 -10.06640625 393.75 -10.06640625 c 0
 249.832883054 -10.06640625 158.25 94.6763053675 158.25 257.93359375 c 0xec
208.729492188 755.010742188 m 1xf4
 214.159179688 -174 l 1xec
 114.830078125 -174 l 1
 119.151367188 676.583984375 l 1
 15 674.580078125 l 1
 18.6201171875 755.010742188 l 1
 208.729492188 755.010742188 l 1xf4
EndSplineSet
EndChar

StartChar: kgreenlandic
Encoding: 246 312 133
Width: 598
Flags: W
HStem: 0 21G<139.83 239.159> 419.084 77.9268<18.6201 144.151> 494 20G<462.444 505.488>
VStem: 139.83 99.3291<0 419.084>
LayerCount: 2
Fore
SplineSet
484.75 514 m 1xb0
 548 453 l 1
 318.75 254.75 l 1
 568 56.25 l 1
 503.5 -17 l 1
 197 256 l 1
 484.75 514 l 1xb0
233.729492188 497.010742188 m 1xd0
 239.159179688 0 l 1
 139.830078125 0 l 1
 144.151367188 419.083984375 l 1
 15 417.080078125 l 1
 18.6201171875 497.010742188 l 1
 233.729492188 497.010742188 l 1xd0
EndSplineSet
EndChar

StartChar: Eng
Encoding: 264 330 134
Width: 830
Flags: W
HStem: 0 21G<148.83 265.159> 635.084 95.9268<38.6201 153.151> 636.492 102.5<365.821 563.864>
VStem: 148.83 116.329<0 445.992> 652.372 112<144.062 540.83>
LayerCount: 2
Back
SplineSet
242.872070312 445.9921875 m 1xb8
 269.833984375 629.037109375 354.87109375 738.9921875 530.872070312 738.9921875 c 0
 688.88671875 738.9921875 785.872070312 652.708007812 785.872070312 430.9921875 c 0
 785.872070312 211.653320312 768.03125 -15 768.03125 -15 c 1
 546.702148438 0 l 1
 546.702148438 0 566.872070312 216.249023438 566.872070312 393.9921875 c 0
 566.872070312 495.55078125 538.45703125 553.9921875 457.872070312 553.9921875 c 0
 375.891601562 553.9921875 326.822265625 510.404296875 300.872070312 398.9921875 c 1
 242.872070312 445.9921875 l 1xb8
334.729492188 731.010742188 m 1
 340.159179688 0 l 1
 123.830078125 0 l 1
 128.151367188 560.083984375 l 1
 10 558.080078125 l 1
 13.6201171875 731.010742188 l 1
 334.729492188 731.010742188 l 1
EndSplineSet
Fore
SplineSet
182.872070312 445.9921875 m 1xb8
 211.706721608 629.037109375 302.649032965 738.9921875 490.872070312 738.9921875 c 0
 650.404782323 738.9921875 764.372070312 652.708007812 764.372070312 430.9921875 c 0
 764.372070312 274.59375 749.801757812 29.9814453125 749.801757812 29.9814453125 c 1
 575.642578125 -187.018554688 l 1
 484.142578125 -120.768554688 l 1
 639.72265625 55.7314453125 l 1
 639.72265625 55.7314453125 652.372070312 271.220423516 652.372070312 408.9921875 c 0
 652.372070312 553.395812988 603.4937448 636.4921875 464.872070312 636.4921875 c 0
 342.684649627 636.4921875 269.549209827 569.704290575 230.872070312 398.9921875 c 1
 182.872070312 445.9921875 l 1xb8
259.729492188 731.010742188 m 1xd8
 265.159179688 0 l 1
 148.830078125 0 l 1
 153.151367188 635.083984375 l 1
 35 633.080078125 l 1
 38.6201171875 731.010742188 l 1
 259.729492188 731.010742188 l 1xd8
EndSplineSet
EndChar

StartChar: eng
Encoding: 265 331 135
Width: 633
Flags: W
HStem: 0 21G<135.58 235.159> 419.325 77.6768<18.6201 139.901> 421.934 85<297.753 443.178>
VStem: 135.58 99.5791<0 266.434> 490.5 95<17.6385 368.754>
LayerCount: 2
Back
SplineSet
188 253.93359375 m 5xb8
 210.000338808 411.989257812 279.388472577 506.93359375 423 506.93359375 c 4
 558.0703125 506.93359375 628 429.158131451 628 278.93359375 c 4
 628 134.376986611 610.159179688 -15 610.159179688 -15 c 5
 415.830078125 0 l 5
 415.830078125 0 436 138.277935542 436 251.93359375 c 4
 436 312.868913517 418.012695312 347.93359375 367 347.93359375 c 4
 307.390237894 347.93359375 282.693825662 311.094726562 266 216.93359375 c 5
 188 253.93359375 l 5xb8
EndSplineSet
Fore
SplineSet
490.5 256.93359375 m 0xb8
 490.5 361.666174599 459.739102127 421.93359375 372.5 421.93359375 c 0
 283.085356841 421.93359375 242.790738493 361.800143874 221 229.43359375 c 1
 170.5 266.43359375 l 1
 191.330108021 410.680183501 257.027383611 506.93359375 393 506.93359375 c 0
 519.834317835 506.93359375 585.5 429.158131451 585.5 278.93359375 c 0
 585.5 170.142989767 569.659179688 0 569.659179688 0 c 1
 438.5 -184 l 1
 355.199951172 -127.800048828 l 1
 471.979980469 16.0500488281 l 1
 471.979980469 16.0500488281 490.5 162.987912831 490.5 256.93359375 c 0xb8
229.729492188 497.001953125 m 1xd8
 235.159179688 0 l 1
 135.580078125 0 l 1
 139.901367188 419.325195312 l 1
 15 417.321289062 l 1
 18.6201171875 497.001953125 l 1
 229.729492188 497.001953125 l 1xd8
EndSplineSet
EndChar

StartChar: OE
Encoding: 272 338 136
Width: 1123
Flags: W
HStem: -10.0664 101.851<284.513 493.373> 0 96.4805<767.768 1090.29> 315.5 97<705.517 1038.25> 323 88.75<685.75 1014.48> 633 98.0107<764.854 1082.48> 637.083 101.851<284.513 493.373>
VStem: 41.5 104.487<243.278 482.348> 639.013 104.487<243.278 482.348> 681.75 86.0176<323 411.75>
LayerCount: 2
Fore
SplineSet
685.75 411.75 m 1x1280
 1041.75 412.5 l 1
 1038.25 315.5 l 1x2280
 681.75 323 l 1
 685.75 411.75 l 1x1280
1082.47949219 731.010742188 m 1x4a80
 1088.36328125 629 l 1
 764.853515625 633 l 1
 767.767578125 96.48046875 l 1
 782.814453125 96.29296875 l 1
 1093.90917969 97.9306640621 l 1
 1090.2890625 0 l 1
 652.1796875 0 l 1
 656.901367188 731.010742188 l 1
 1082.47949219 731.010742188 l 1x4a80
EndSplineSet
Refer: 43 79 N 1 0 0 1 0 0 2
EndChar

StartChar: longs
Encoding: 317 383 138
Width: 401
Flags: W
HStem: 0 21G<142.335 241.137> 419 74.75<35 187> 711.124 86.7197<287.937 338.328>
VStem: 119.869 96.7832<495.754 650.742> 144.994 92.1436<0 548.614> 144.994 42.0059<419 493.75>
LayerCount: 2
Fore
SplineSet
144.984375 412.096679688 m 2xe8
 144.99091194 413.106858318 144.994140625 414.107770821 144.994140625 415.099609375 c 0xe8
 144.994140625 500.4698105 119.869140625 522.458751663 119.869140625 590 c 0
 119.869140625 715.380534854 198.565259587 769.237898503 337.01953125 797.84375 c 1
 353.2265625 711.124023438 l 1
 253.855816379 688.757895786 216.65234375 650.473708068 216.65234375 578.5 c 0xf0
 216.65234375 531.285280557 236.171414091 487.602544053 237.137695312 399.96484375 c 2
 241.13671875 0 l 1
 142.334960938 0 l 1
 144.984375 412.096679688 l 2xe8
187 419 m 1xe4
 32 415.25 l 1
 35 497 l 1
 190 493.75 l 1
 187 419 l 1xe4
EndSplineSet
EndChar

StartChar: uni018F
Encoding: 318 399 139
Width: 761
Flags: W
HStem: -9.99805 101.5<268.336 481.825> 329.494 92<153.162 630.31> 650.13 104.548<169.663 360.794>
VStem: 41.5 110<203.711 326.713>
LayerCount: 2
Back
SplineSet
20 361.93359375 m 0
 20 592.358449127 162.722067273 738.9921875 387 738.9921875 c 0
 692.703602516 738.9921875 740.809570312 528.036293548 740.809570312 395.250976562 c 0
 740.809570312 330.260178936 729.916992188 282.840820312 729.916992188 282.840820312 c 5
 148 284 l 5
 137 441 l 1
 505.647460938 445.427734375 l 1
 505.647460938 445.427734375 494.816386769 543.9921875 381 543.9921875 c 0
 300.33283944 543.9921875 249 476.30370791 249 369.93359375 c 0
 249 231.45533579 353.417075805 194.391339376 594.1484375 183.364257812 c 1
 571.146484375 -25.68359375 l 1
 248.292348682 -22.428262906 20 98.1280331654 20 361.93359375 c 0
EndSplineSet
Fore
SplineSet
719.309570312 357.060546875 m 0
 719.309570312 132.746806831 587.281935874 -9.998046875 379.809570312 -9.998046875 c 0
 87.4984993632 -9.998046875 41.5 194.820791431 41.5 321.057373047 c 0
 41.5 380.928832713 52.392578125 422.653320312 52.392578125 422.653320312 c 1
 630.309570312 421.494140625 l 1
 641.309570312 329.494140625 l 1
 153.162109375 326.81640625 l 1
 153.162109375 326.81640625 151.5 316.698367314 151.5 304.25 c 0
 151.5 202.203915253 208.004767823 91.501953125 379.607177734 91.501953125 c 0
 518.560412176 91.501953125 606.059570312 183.433199218 606.059570312 349.060546875 c 0
 606.059570312 572.524692023 477.522761723 639.767332642 161.161132812 650.129882812 c 1
 169.663085938 754.677734375 l 1
 511.584109984 751.338420391 719.309570312 627.671934681 719.309570312 357.060546875 c 0
EndSplineSet
EndChar

StartChar: ordfeminine
Encoding: 104 170 140
Width: 468
Flags: W
HStem: 287 64<62.5 418.5> 402 70<135.549 264.882> 410 63<384.25 446.5> 678.25 69.75<135.549 265.11>
VStem: 25.5 75.25<506.627 642.371> 298 86.25<511.231 637.708> 306 76.25<579 741> 306 41<483.761 682.215>
LayerCount: 2
Fore
SplineSet
61.5 351 m 1x98
 422.5 355 l 1
 418.5 283 l 1
 62.5 287 l 1
 61.5 351 l 1x98
298 574 m 0xdc
 298 637.708333333 260.827586207 678.25 200 678.25 c 0
 140.45 678.25 100.75 637.708333333 100.75 574 c 0
 100.75 511.230769231 140.45 472 200 472 c 0
 260.827586207 472 298 511.230769231 298 574 c 0xdc
347 579 m 0xd9
 347 483.76142132 289.826219512 402 182.5 402 c 0
 86.396969697 402 25.5 469 25.5 574 c 0
 25.5 680 86.396969697 748 182.5 748 c 0
 282.804878049 748 347 682.214765101 347 579 c 0xd9
303 410 m 1xbc
 306 741 l 1
 382.25 741 l 1xba
 384.25 473 l 1
 448.5 475 l 1
 446.5 410 l 1
 303 410 l 1xbc
EndSplineSet
EndChar

StartChar: ordmasculine
Encoding: 120 186 141
Width: 399
Flags: W
HStem: 287 64<32.5 362.5> 403 72.75<134.869 264.096> 675.25 72.75<134.869 264.096>
VStem: 25.5 75.25<509.426 640.648> 298.25 75.25<508.534 641.535>
LayerCount: 2
Fore
SplineSet
31.5 351 m 1
 366.5 355 l 1
 362.5 283 l 1
 32.5 287 l 1
 31.5 351 l 1
100.75 576 m 0
 100.75 514.62244898 139.741071429 475.75 200 475.75 c 0
 260.736363636 475.75 298.25 514.62244898 298.25 576 c 0
 298.25 635.963541667 260.736363636 675.25 200 675.25 c 0
 139.741071429 675.25 100.75 635.963541667 100.75 576 c 0
25.5 577 m 0
 25.5 682 92.6612903226 748 199 748 c 0
 305.379679145 748 373.5 682 373.5 577 c 0
 373.5 471 305.379679145 403 199 403 c 0
 92.6612903226 403 25.5 471 25.5 577 c 0
EndSplineSet
EndChar

StartChar: germandbls
Encoding: 157 223 142
Width: 688
Flags: W
HStem: 0 21G<142.335 241.137> 419 74.75<35 189> 689.374 85.4697<268.79 461.901>
VStem: 119.869 96.7832<496.236 644.205> 142.335 98.8018<0 545.476> 145.002 43.998<419 493.75> 342.5 95.1816<322.625 398.99> 523.509 90.9912<507.214 631.583> 549.188 96.6016<108.486 191.238>
LayerCount: 2
Fore
SplineSet
190 493.75 m 1xe6
 189 419 l 1
 32 415.25 l 1
 35 497 l 1
 190 493.75 l 1xe6
144.984375 412.096679688 m 2
 144.995907697 413.890505028 145.001953125 415.655786034 145.001953125 417.393554688 c 0xe6
 145.001953125 500.864346543 119.869140625 523.066741386 119.869140625 590 c 0
 119.869140625 701.505918457 207.582141842 774.84375 362.01953125 774.84375 c 0
 513.807945091 774.84375 614.5 706.000899656 614.5 551.93359375 c 0xf3
 614.5 486.587543128 591.732421875 436.700195312 591.732421875 436.700195312 c 1
 591.732421875 436.700195312 437.681640625 428.931880352 437.681640625 361.75 c 0
 437.681640625 336.021947449 452.263579478 318.447638743 522.298828125 291.111328125 c 0
 610.343579625 256.738021637 645.7890625 217.158868286 645.7890625 152 c 0
 645.7890625 -20.3087614289 372.5390625 -23.900390625 372.5390625 -23.900390625 c 1
 361.819335938 62.650390625 l 1
 361.819335938 62.650390625 549.1875 68.8423928801 549.1875 149.75 c 0xe280
 549.1875 182.484033599 524.335240292 201.164805633 454.036132812 228.700195312 c 0
 369.701547003 261.729304155 342.5 297.824868594 342.5 354.5 c 0
 342.5 439.296238983 412.78596428 484.24245452 516.892578125 508.052734375 c 1
 516.892578125 508.052734375 523.508789062 528.084191185 523.508789062 560.916015625 c 0
 523.508789062 633.482832963 476.971800925 689.374023438 364 689.374023438 c 0
 255.985449568 689.374023438 216.65234375 638.769089432 216.65234375 578.75 c 0xf3
 216.65234375 531.46916652 236.109481329 487.725741005 237.137695312 399.96484375 c 2
 241.13671875 0 l 1
 142.334960938 0 l 1xea
 144.984375 412.096679688 l 2
EndSplineSet
EndChar

StartChar: florin
Encoding: 319 402 144
Width: 433
Flags: W
HStem: 409 91<247.3 388> 415.25 81.75<35 291.52> 711.124 86.7197<287.937 338.328>
VStem: 119.869 96.7832<496.587 653.168> 144.994 92.1436<17.5 548.183>
LayerCount: 2
Fore
SplineSet
35 497 m 1x60
 190 493.75 l 1
 390 500 l 1
 388 409 l 1xa0
 187 419 l 1
 32 415.25 l 1
 35 497 l 1x60
241.13671875 0 m 1
 109.977539062 -184 l 1
 25.9775390625 -127.25 l 1
 141.557617188 17.5 l 1
 144.984375 412.096679688 l 2
 144.994026862 413.125973227 144.994140625 414.120894614 144.994140625 415.099609375 c 0x28
 144.994140625 498.854159215 119.869140625 521.906764187 119.869140625 590 c 0
 119.869140625 715.380534854 198.565259587 769.237898503 337.01953125 797.84375 c 1
 353.2265625 711.124023438 l 1
 253.855816379 688.800056564 216.65234375 650.588035612 216.65234375 578.75 c 0x30
 216.65234375 531.46916652 236.110429884 487.644779225 237.137695312 399.96484375 c 2x28
 241.13671875 0 l 1
EndSplineSet
EndChar

StartChar: circumflex
Encoding: 427 710 145
Width: 332
Flags: W
HStem: 540 208
VStem: 15 302
LayerCount: 2
Fore
SplineSet
164 748 m 1
 317 593.25 l 1
 266.25 540 l 1
 165 660 l 1
 63.25 542 l 1
 15 588.5 l 1
 164 748 l 1
EndSplineSet
EndChar

StartChar: caron
Encoding: 428 711 146
Width: 332
Flags: W
HStem: 536 208
VStem: 15 302
LayerCount: 2
Fore
SplineSet
168 536 m 1
 15 690.75 l 1
 65.75 744 l 1
 167 624 l 1
 268.75 742 l 1
 317 695.5 l 1
 168 536 l 1
EndSplineSet
EndChar

StartChar: tilde
Encoding: 434 732 147
Width: 384
Flags: W
HStem: 558.187 189.475 713.206 20G<309.262 348.277>
LayerCount: 2
Fore
SplineSet
249.071289062 647.129882812 m 1x80
 327.48046875 733.206054688 l 1x40
 373.66015625 688.795898438 l 1
 246.280273438 558.186523438 l 1
 142.08984375 659.717773438 l 1
 54.4306640625 571.390625 l 1
 11 618.801757812 l 1
 143.380859375 747.661132812 l 1
 249.071289062 647.129882812 l 1x80
EndSplineSet
EndChar

StartChar: zero.superior
Encoding: 660 8304 148
Width: 449
Flags: W
HStem: 342 80.495<159.15 289.878> 762.505 80.495<159.15 289.878>
VStem: 19.2237 81.2837<488.64 695.047> 349.101 81.2837<488.64 695.047>
LayerCount: 2
Fore
SplineSet
100.5075 591 m 0
 100.5075 488.415 148.62625 422.495 224.40375 422.495 c 0
 300.38625 422.495 349.10125 488.415 349.10125 591 c 0
 349.10125 695.98875 300.38625 762.505 224.40375 762.505 c 0
 148.62625 762.505 100.5075 695.98875 100.5075 591 c 0
19.22375 591 m 0
 19.22375 745 98.81375 843 224.40375 843 c 0
 350.1925 843 430.385 745 430.385 591 c 0
 430.385 439 350.1925 342 224.40375 342 c 0
 98.81375 342 19.22375 439 19.22375 591 c 0
EndSplineSet
EndChar

StartChar: one.superior
Encoding: 119 185 149
Width: 240
Flags: W
HStem: 765.455 71.545<23.715 120.175>
VStem: 120.175 79.0787<350 766.455>
LayerCount: 2
Fore
SplineSet
199.25375 837 m 1
 202.85 350 l 1
 117.175 350 l 1
 120.175 766.455 l 1
 21.31125 765.455 l 1
 23.715 837 l 1
 199.25375 837 l 1
EndSplineSet
EndChar

StartChar: two.superior
Encoding: 112 178 150
Width: 396
Flags: W
HStem: 350 76.9112<175.376 366.322> 763.878 79.1225<90.1367 239.871>
VStem: 269.25 87.0725<595.709 735.404>
LayerCount: 2
Fore
SplineSet
175.37625 426.91125 m 1
 369.3225 430.91125 l 1
 366.3225 350 l 1
 32.67125 350 l 1
 26.8825 407.01125 l 1
 26.8825 407.01125 269.25 527.58875 269.25 668.50375 c 0
 269.25 732.82125 234.19375 763.8775 173.7025 763.8775 c 0
 100.41625 763.8775 56.565 719.07 56.565 719.07 c 1
 24.28625 792.19875 l 1
 24.28625 792.19875 85.255 843 186.60875 843 c 0
 296.3475 843 356.3225 781.615 356.3225 684.435 c 0
 356.3225 520.0425 175.37625 426.91125 175.37625 426.91125 c 1
EndSplineSet
EndChar

StartChar: three.superior
Encoding: 113 179 151
Width: 387
Flags: W
HStem: 343 72.545<49.8318 246.793> 570.175 57.57<209.451 251.327> 760.269 76.7313<33.2862 233.499>
VStem: 275.449 85.0662<442.565 548.014>
LayerCount: 2
Fore
SplineSet
209.45125 627.745 m 1
 216.60625 627.745 228.83 628.59 245.7375 626.40375 c 0
 305.52125 617.65875 360.515 576.59 360.515 494.18625 c 0
 360.515 395.39125 288.95 343 178 343 c 0
 66.05625 343 18.8825 372 18.8825 372 c 1
 39.8325 441.93 l 1
 39.8325 441.93 91.01875 415.545 162.41 415.545 c 0
 241.97625 415.545 275.44875 446.4275 275.44875 497.975 c 0
 275.44875 540.69 242.98875 570.175 181.33 570.175 c 0
 131.04375 570.175 104 555.08125 104 555.08125 c 1
 86.19875 599.745 l 1
 233.49875 760.26875 l 1
 28.485 758.6725 l 1
 33.28625 837 l 1
 339.71375 837 l 1
 346.515 781.2 l 1
 209.45125 627.745 l 1
EndSplineSet
EndChar

StartChar: four.superior
Encoding: 661 8308 152
Width: 455
Flags: W
HStem: 482.33 70.1538<123.334 425.496>
LayerCount: 2
Fore
SplineSet
343.21625 764.83875 m 1
 347.21625 350 l 1
 264.51 350 l 1
 268.51 764.83875 l 1
 343.21625 764.83875 l 1
238.7275 853.795 m 1
 304.4775 813.73375 l 1
 123.33375 552.48375 l 1
 427.2975 553.08 l 1
 425.49625 479.73375 l 1
 37.0375 482.33 l 1
 22.28625 526.58375 l 1
 238.7275 853.795 l 1
EndSplineSet
EndChar

StartChar: five.superior
Encoding: 662 8309 153
Width: 403
Flags: W
HStem: 342.199 73.7562<58.9375 260.278> 595.616 70.1787<119.095 262.979> 761.058 75.9425<133.657 337.316>
VStem: 293.803 82.8863<449.934 566.44>
LayerCount: 2
Fore
SplineSet
337.31625 760.0575 m 1
 133.6575 761.0575 l 1
 111.9925 638.90625 l 1
 111.9925 638.90625 138.63875 665.795 213.1425 665.795 c 0
 325.9 665.795 376.68875 602.36 376.68875 509.1925 c 0
 376.68875 394.8325 301.91875 342.19875 184.76375 342.19875 c 0
 66.205 342.19875 16.2175 379 16.2175 379 c 1
 38.5525 446.5575 l 1
 38.5525 446.5575 96.16125 415.955 176.18 415.955 c 0
 255.13125 415.955 293.8025 451.2475 293.8025 507.39125 c 0
 293.8025 561.13125 258.7525 595.61625 190.8575 595.61625 c 0
 126.3225 595.61625 89.70125 557.74625 89.70125 557.74625 c 1
 29.08125 598.59 l 1
 70.68375 837 l 1
 337.31625 837 l 1
 337.31625 760.0575 l 1
EndSplineSet
EndChar

StartChar: six.superior
Encoding: 663 8310 154
Width: 411
Flags: W
HStem: 342 73.9425<147.399 274.236> 606.411 66.7875<145.706 274.928> 772.058 76.9425<231.048 327.622>
VStem: 26.8825 88.6875<448.117 625.895> 305.026 80.4887<447.45 575.718>
LayerCount: 2
Fore
SplineSet
326.78875 849 m 1
 335.95 772.0575 l 1
 122.70625 759.66625 116.33375 628.62625 116.33375 628.62625 c 1
 116.33375 628.62625 145.75 673.19875 230.90625 673.19875 c 0
 321.5025 673.19875 385.515 609.59 385.515 513.57125 c 0
 385.515 421.795 336.73875 342 210.80125 342 c 0
 100.85125 342 26.8825 408.60875 26.8825 553 c 0
 26.8825 695 98.8575 835 326.78875 849 c 1
115.57 511.77 m 0
 115.57 453.4275 152.66375 415.9425 210.80125 415.9425 c 0
 268.54125 415.9425 305.02625 453.4275 305.02625 511.77 c 0
 305.02625 569.91375 268.54125 606.41125 210.80125 606.41125 c 0
 152.66375 606.41125 115.57 569.91375 115.57 511.77 c 0
EndSplineSet
EndChar

StartChar: seven.superior
Encoding: 664 8311 155
Width: 379
Flags: W
HStem: 757.07 79.93<109.601 278.288>
LayerCount: 2
Fore
SplineSet
18.0812988281 650.989990235 m 1
 38.65875 837 l 1
 346.75125 837 l 1
 373.11125 786.11875 l 1
 200.21625 338.40375 l 1
 117.13125 365.50875 l 1
 278.2875 758.07 l 1
 109.60125 757.07 l 1
 97.595 645.16875 l 1
 18.0812988281 650.989990235 l 1
EndSplineSet
EndChar

StartChar: eight.superior
Encoding: 665 8312 156
Width: 410
Flags: W
HStem: 342 74.9425<131.47 277.953> 771.25 71.75<144.132 272.278>
VStem: 26.8825 79.8988<440.291 540.721> 46.1187 79.7<667.076 753.152> 292.206 74.3275<655.677 750.841> 300.262 84.675<438.351 530.465>
LayerCount: 2
Fore
SplineSet
202.82 416.9425 m 0xe4
 263.37375 416.9425 300.2625 442.415 300.2625 483.925 c 0xe4
 300.2625 522.21125 272.6475 547.7025 189.1375 573.125 c 0
 93.125 602.10625 46.11875 644.69625 46.11875 710.665 c 0
 46.11875 792.025 109.47875 843 209.21125 843 c 0
 305.76375 843 366.53375 796.60875 366.53375 713.22375 c 0
 366.53375 612.82 245.19875 577.86375 245.19875 577.86375 c 1
 205.50375 610.76375 l 1
 205.50375 610.76375 292.20625 646.9125 292.20625 703.46625 c 0xd8
 292.20625 745.7775 260.33625 771.25 208.41 771.25 c 0
 157.0925 771.25 125.81875 746.9825 125.81875 708.08125 c 0
 125.81875 674.8325 146.764503493 656.871786802 222.3725 634.515 c 0
 341.14875 599.8675 384.9375 562.3225 384.9375 484.72625 c 0
 384.9375 395.57125 317.565 342 206.60875 342 c 0
 98.85125 342 26.8825 397 26.8825 481 c 0
 26.8825 585.83875 149.3675 620.255 149.3675 620.255 c 1
 193.8325 583.57875 l 1
 193.8325 583.57875 106.78125 553.31125 106.78125 488.77 c 0
 106.78125 445.235 144.4775 416.9425 202.82 416.9425 c 0xe4
EndSplineSet
EndChar

StartChar: nine.superior
Encoding: 666 8313 157
Width: 412
Flags: W
HStem: 336 76.9425<87.477 183.393> 512.602 65.9863<137.666 267.145> 769.058 73.9425<138.482 265.743>
VStem: 26.8825 80.4888<609.38 737.55> 297.424 88.6875<559.105 736.883>
LayerCount: 2
Fore
SplineSet
88.27375 336 m 1
 79.51625 412.9425 l 1
 290.48625 425.33375 296.2625 556.97 296.2625 556.97 c 1
 296.2625 556.97 266.84625 512.6025 181.69 512.6025 c 0
 91.09375 512.6025 26.8825 575.615 26.8825 671.42875 c 0
 26.8825 763.205 75.65875 843 202.3975 843 c 0
 312.3475 843 386.11125 776.39125 386.11125 632 c 0
 386.11125 490 314.75125 350 88.27375 336 c 1
297.42375 673.23 m 0
 297.42375 731.5725 260.52875 769.0575 202.39125 769.0575 c 0
 144.055 769.0575 107.37125 731.5725 107.37125 673.23 c 0
 107.37125 615.08625 144.055 578.58875 202.39125 578.58875 c 0
 260.52875 578.58875 297.42375 615.08625 297.42375 673.23 c 0
EndSplineSet
EndChar

StartChar: zero.inferior
Encoding: 667 8320 158
Width: 449
Flags: W
HStem: -358 80.495<159.15 289.878> 62.505 80.495<159.15 289.878>
VStem: 19.2237 81.2837<-211.36 -4.9527> 349.101 81.2837<-211.36 -4.9527>
LayerCount: 2
Fore
SplineSet
100.5075 -109 m 0
 100.5075 -211.585 148.62625 -277.505 224.40375 -277.505 c 0
 300.38625 -277.505 349.10125 -211.585 349.10125 -109 c 0
 349.10125 -4.01125 300.38625 62.505 224.40375 62.505 c 0
 148.62625 62.505 100.5075 -4.01125 100.5075 -109 c 0
19.22375 -109 m 0
 19.22375 45 98.81375 143 224.40375 143 c 0
 350.1925 143 430.385 45 430.385 -109 c 0
 430.385 -261 350.1925 -358 224.40375 -358 c 0
 98.81375 -358 19.22375 -261 19.22375 -109 c 0
EndSplineSet
EndChar

StartChar: one.inferior
Encoding: 668 8321 159
Width: 240
Flags: W
HStem: 65.455 71.545<23.715 120.175>
VStem: 120.175 79.0787<-350 66.455>
LayerCount: 2
Fore
SplineSet
199.25375 137 m 1
 202.85 -350 l 1
 117.175 -350 l 1
 120.175 66.455 l 1
 21.31125 65.455 l 1
 23.715 137 l 1
 199.25375 137 l 1
EndSplineSet
EndChar

StartChar: two.inferior
Encoding: 669 8322 160
Width: 395
Flags: W
HStem: -350 76.9112<175.972 366.714> 63.8775 79.1225<89.9917 239.919>
VStem: 269.641 87.0725<-104.291 35.4037>
LayerCount: 2
Fore
SplineSet
175.9725 -273.08875 m 1
 369.71375 -269.08875 l 1
 366.71375 -350 l 1
 32.67125 -350 l 1
 26.8825 -292.98875 l 1
 26.8825 -292.98875 269.64125 -172.41125 269.64125 -31.49625 c 0
 269.64125 32.82125 233.98875 63.8775 173.4975 63.8775 c 0
 100.41625 63.8775 56.565 19.26875 56.565 19.26875 c 1
 24.28625 92 l 1
 24.28625 92 84.65875 143 186.60875 143 c 0
 296.3475 143 356.71375 81.615 356.71375 -15.565 c 0
 356.71375 -179.9575 175.9725 -273.08875 175.9725 -273.08875 c 1
EndSplineSet
EndChar

StartChar: three.inferior
Encoding: 670 8323 161
Width: 386
Flags: W
HStem: -357.801 73.3462<49.8822 246.432> -129.825 58.3712<208.855 250.525> 59.4675 77.5325<33.2862 233.294>
VStem: 274.647 85.0663<-257.583 -153.24>
LayerCount: 2
Fore
SplineSet
208.855 -71.45375 m 1
 216.01 -71.45375 228.02875 -70.60875 244.93625 -72.795 c 0
 304.72 -81.54 359.71375 -122.60875 359.71375 -205.81375 c 0
 359.71375 -305.205 288.95 -357.80125 178 -357.80125 c 0
 66.26125 -357.80125 18.8825 -328 18.8825 -328 c 1
 39.8325 -258.275 l 1
 39.8325 -258.275 91.22375 -284.455 162.41 -284.455 c 0
 241.38 -284.455 274.6475 -253.5725 274.6475 -202.025 c 0
 274.6475 -159.31 241.9825 -129.825 180.52875 -129.825 c 0
 130.2425 -129.825 103.19875 -144.91875 103.19875 -144.91875 c 1
 86.19875 -99.65875 l 1
 233.29375 59.4675 l 1
 28.485 57.87125 l 1
 33.28625 137 l 1
 338.9125 137 l 1
 345.71375 80.39875 l 1
 208.855 -71.45375 l 1
EndSplineSet
EndChar

StartChar: four.inferior
Encoding: 671 8324 162
Width: 455
Flags: W
HStem: -217.67 70.1538<123.334 425.496>
LayerCount: 2
Fore
SplineSet
343.21625 67.05 m 1
 347.21625 -350 l 1
 264.51 -350 l 1
 268.51 67.05 l 1
 343.21625 67.05 l 1
238.7275 155.80125 m 1
 304.4775 115.74 l 1
 123.33375 -147.51625 l 1
 427.2975 -146.92 l 1
 425.49625 -220.26625 l 1
 37.0375 -217.67 l 1
 22.28625 -173.41625 l 1
 238.7275 155.80125 l 1
EndSplineSet
EndChar

StartChar: five.inferior
Encoding: 672 8325 163
Width: 403
Flags: W
HStem: -357.801 73.7562<58.9375 260.278> -104.384 70.1787<119.095 262.979> 61.0575 75.9425<133.657 337.316>
VStem: 293.803 82.8863<-250.066 -133.56>
LayerCount: 2
Fore
SplineSet
337.31625 60.0575 m 1
 133.6575 61.0575 l 1
 111.9925 -61.09375 l 1
 111.9925 -61.09375 138.63875 -34.205 213.1425 -34.205 c 0
 325.9 -34.205 376.68875 -97.64 376.68875 -190.8075 c 0
 376.68875 -305.1675 301.91875 -357.80125 184.76375 -357.80125 c 0
 66.205 -357.80125 16.2175 -321 16.2175 -321 c 1
 38.5525 -253.4425 l 1
 38.5525 -253.4425 96.16125 -284.045 176.18 -284.045 c 0
 255.13125 -284.045 293.8025 -248.7525 293.8025 -192.60875 c 0
 293.8025 -138.86875 258.7525 -104.38375 190.8575 -104.38375 c 0
 126.3225 -104.38375 89.70125 -142.25375 89.70125 -142.25375 c 1
 29.08125 -101.41 l 1
 70.68375 137 l 1
 337.31625 137 l 1
 337.31625 60.0575 l 1
EndSplineSet
EndChar

StartChar: six.inferior
Encoding: 673 8326 164
Width: 412
Flags: W
HStem: -358 73.9425<147.284 274.392> -93.5888 66.7875<145.706 275.08> 72.0575 76.9425<231.598 328.405>
VStem: 26.8825 88.6875<-251.883 -74.1052> 305.623 80.4887<-252.55 -124.282>
LayerCount: 2
Fore
SplineSet
327.59 149 m 1
 336.54625 72.0575 l 1
 122.70625 59.66625 116.33375 -71.57875 116.33375 -71.57875 c 1
 116.33375 -71.57875 145.75 -26.80125 230.90625 -26.80125 c 0
 321.5025 -26.80125 386.11125 -90.41 386.11125 -186.42875 c 0
 386.11125 -278.205 336.73875 -358 210.80125 -358 c 0
 100.255 -358 26.8825 -291.39125 26.8825 -147 c 0
 26.8825 -5 99.0625 135 327.59 149 c 1
115.57 -188.23 m 0
 115.57 -246.5725 152.66375 -284.0575 210.80125 -284.0575 c 0
 268.54125 -284.0575 305.6225 -246.5725 305.6225 -188.23 c 0
 305.6225 -130.08625 268.54125 -93.58875 210.80125 -93.58875 c 0
 152.66375 -93.58875 115.57 -130.08625 115.57 -188.23 c 0
EndSplineSet
EndChar

StartChar: seven.inferior
Encoding: 674 8327 165
Width: 379
Flags: W
HStem: 56.865 80.135<109.601 278.288>
LayerCount: 2
Fore
SplineSet
18.0812988281 -49.0100097656 m 1
 38.65875 137 l 1
 346.54625 137 l 1
 372.90625 85.91375 l 1
 200.21625 -361.59625 l 1
 117.13125 -334.69625 l 1
 278.2875 57.865 l 1
 109.60125 56.865 l 1
 97.595 -55.03625 l 1
 18.0812988281 -49.0100097656 l 1
EndSplineSet
EndChar

StartChar: eight.inferior
Encoding: 675 8328 166
Width: 409
Flags: W
HStem: -358 74.9425<131.172 277.234> 71.25 71.75<143.754 271.442>
VStem: 26.8825 79.8988<-259.591 -159.319> 46.1187 79.7<-33.0215 53.5786> 291.405 74.3275<-43.4727 52.4132> 299.461 84.675<-261.708 -169.591>
LayerCount: 2
Fore
SplineSet
202.615 -283.0575 m 0xe4
 262.3675 -283.0575 299.46125 -257.79 299.46125 -216.28 c 0xe4
 299.46125 -177.99375 272.6475 -152.2975 189.1375 -126.875 c 0
 93.125 -97.89375 46.11875 -55.50875 46.11875 10.46 c 0
 46.11875 91.82 108.6775 143 208.41 143 c 0
 304.9625 143 365.7325 96.41 365.7325 13.025 c 0
 365.7325 -86.7825 243.80125 -121.54 243.80125 -121.54 c 1
 203.715 -89.435 l 1
 203.715 -89.435 291.405 -53.8825 291.405 3.46625 c 0xd8
 291.405 45.7775 259.33 71.25 207.60875 71.25 c 0
 157.0925 71.25 125.81875 46.9825 125.81875 8.08125 c 0
 125.81875 -25.1675 146.750717377 -43.1778316 222.1675 -65.485 c 0
 340.3475 -100.1325 384.13625 -137.6775 384.13625 -215.27375 c 0
 384.13625 -304.42875 316.96875 -358 206.0125 -358 c 0
 98.255 -358 26.8825 -302 26.8825 -219 c 0
 26.8825 -114.16125 147.97 -79.95 147.97 -79.95 c 1
 191.83875 -116.03 l 1
 191.83875 -116.03 106.78125 -146.89375 106.78125 -211.435 c 0
 106.78125 -254.97 144.2725 -283.0575 202.615 -283.0575 c 0xe4
EndSplineSet
EndChar

StartChar: nine.inferior
Encoding: 676 8329 167
Width: 412
Flags: W
HStem: -364 76.9425<87.477 183.393> -187.398 65.9863<137.666 267.145> 69.0575 73.9425<138.482 265.743>
VStem: 26.8825 80.4888<-90.62 37.5499> 297.424 88.6875<-140.895 36.8827>
LayerCount: 2
Fore
SplineSet
88.27375 -364 m 1
 79.51625 -287.0575 l 1
 290.48625 -274.66625 296.2625 -142.825 296.2625 -142.825 c 1
 296.2625 -142.825 266.84625 -187.3975 181.69 -187.3975 c 0
 91.09375 -187.3975 26.8825 -124.385 26.8825 -28.57125 c 0
 26.8825 63.205 75.65875 143 202.3975 143 c 0
 312.3475 143 386.11125 76.39125 386.11125 -68 c 0
 386.11125 -210 314.75125 -350 88.27375 -364 c 1
297.42375 -26.77 m 0
 297.42375 31.5725 260.52875 69.0575 202.39125 69.0575 c 0
 144.055 69.0575 107.37125 31.5725 107.37125 -26.77 c 0
 107.37125 -84.91375 144.055 -121.41125 202.39125 -121.41125 c 0
 260.52875 -121.41125 297.42375 -84.91375 297.42375 -26.77 c 0
EndSplineSet
EndChar

StartChar: fraction
Encoding: 655 8260 168
Width: 238
Flags: W
LayerCount: 2
Fore
SplineSet
411.329101562 690.43359375 m 1
 164.708984375 343.799804688 l 1
 -46.7412109375 -15 l 1
 -135.5703125 39.5 l 1
 114.908203125 381.700195312 l 1
 329.099609375 743.93359375 l 1
 411.329101562 690.43359375 l 1
EndSplineSet
EndChar

StartChar: perthousand
Encoding: 646 8240 169
Width: 1159
Flags: W
HStem: -10 83.0576<613.188 729.736 888.588 1007.27> 277.725 83.1543<611.038 729.736 888.588 1007.27> 368.113 83.0576<150.985 277.331> 655.838 83.1543<150.985 277.331>
VStem: 32.0205 85.8037<485.198 622.745> 310.784 85.8359<485.198 622.745> 492.021 88.8037<106.188 245.514> 761.284 96.04<113.192 238.265> 782.021 54.5996<64.4329 291.081> 1037.78 88.8359<106.188 245.514>
LayerCount: 2
Fore
SplineSet
117.82421875 554.370117188 m 0xfe40
 117.82421875 491.304075289 155.231277496 451.170898438 214.015625 451.170898438 c 0
 273.152042477 451.170898438 310.784179688 491.304075289 310.784179688 554.370117188 c 0
 310.784179688 616.378499647 273.152042477 655.837890625 214.015625 655.837890625 c 0
 155.231277496 655.837890625 117.82421875 616.378499647 117.82421875 554.370117188 c 0xfe40
32.0205078125 554.512695312 m 0
 32.0205078125 667.250454842 102.790022206 738.9921875 214 738.9921875 c 0
 325.601374736 738.9921875 396.620117188 667.250454842 396.620117188 554.512695312 c 0
 396.620117188 440.601747797 325.601374736 368.11328125 214 368.11328125 c 0
 102.790022206 368.11328125 32.0205078125 440.601747797 32.0205078125 554.512695312 c 0
857.32421875 176.256835938 m 0xff40
 857.32421875 113.191646509 892.397230172 73.0576171875 947.515625 73.0576171875 c 0
 1002.67984231 73.0576171875 1037.78417969 113.191646509 1037.78417969 176.256835938 c 0
 1037.78417969 238.265630983 1002.67984231 277.724609375 947.515625 277.724609375 c 0
 892.397230172 277.724609375 857.32421875 238.265630983 857.32421875 176.256835938 c 0xff40
782.020507812 181.399414062 m 0xfec0
 782.020507812 291.081274564 847.92915194 360.87890625 951.5 360.87890625 c 0
 1058.51799546 360.87890625 1126.62011719 289.136828688 1126.62011719 176.399414062 c 0
 1126.62011719 62.4881854989 1058.51799546 -10 951.5 -10 c 0
 847.92915194 -10 782.020507812 64.4326171877 782.020507812 181.399414062 c 0xfec0
580.82421875 176.256835938 m 0
 580.82421875 113.190794039 615.703547719 73.0576171875 670.515625 73.0576171875 c 0
 725.985370942 73.0576171875 761.284179688 113.190794039 761.284179688 176.256835938 c 0xff40
 761.284179688 238.265218397 725.985370942 277.724609375 670.515625 277.724609375 c 0
 615.703547719 277.724609375 580.82421875 238.265218397 580.82421875 176.256835938 c 0
492.020507812 176.399414062 m 0
 492.020507812 289.137173592 559.873367414 360.87890625 666.5 360.87890625 c 0
 770.462472704 360.87890625 836.620117188 291.08161012 836.620117188 181.399414062 c 0xfec0
 836.620117188 64.4329057754 770.462472704 -10 666.5 -10 c 0
 559.873367414 -10 492.020507812 62.4884665474 492.020507812 176.399414062 c 0
EndSplineSet
Refer: 168 8260 N 1 0 0 1 304 0 2
EndChar

StartChar: uni2031
Encoding: 647 8241 170
Width: 1439
Flags: W
HStem: -10 83.0576<613.188 729.736 889.295 1004.25 1168.59 1287.27> 277.725 83.1543<611.038 729.736 889.295 1004.25 1168.59 1287.27> 368.113 83.0576<150.985 277.331> 655.838 83.1543<150.985 277.331>
VStem: 32.0205 85.8037<485.198 622.745> 310.784 85.8359<485.198 622.745> 492.021 88.8037<106.188 245.514> 761.284 97.04<113.192 238.265> 774.521 62.0996<64.4329 291.081> 1034.78 102.54<113.192 238.266> 1062.02 54.5996<64.4326 291.081> 1317.78 88.8359<105.518 247.095>
LayerCount: 2
Fore
SplineSet
117.82421875 554.370117188 m 0xfe10
 117.82421875 491.304075289 155.231277496 451.170898438 214.015625 451.170898438 c 0
 273.152042477 451.170898438 310.784179688 491.304075289 310.784179688 554.370117188 c 0
 310.784179688 616.378499647 273.152042477 655.837890625 214.015625 655.837890625 c 0
 155.231277496 655.837890625 117.82421875 616.378499647 117.82421875 554.370117188 c 0xfe10
32.0205078125 554.512695312 m 0
 32.0205078125 667.250454842 102.790022206 738.9921875 214 738.9921875 c 0
 325.601374736 738.9921875 396.620117188 667.250454842 396.620117188 554.512695312 c 0
 396.620117188 440.601747797 325.601374736 368.11328125 214 368.11328125 c 0
 102.790022206 368.11328125 32.0205078125 440.601747797 32.0205078125 554.512695312 c 0
1137.32421875 176.256835938 m 0xfe50
 1137.32421875 113.191646509 1172.39723018 73.0576171875 1227.515625 73.0576171875 c 0
 1282.67984232 73.0576171875 1317.78417969 113.191646509 1317.78417969 176.256835938 c 0
 1317.78417969 238.265630983 1282.67984232 277.724609375 1227.515625 277.724609375 c 0
 1172.39723018 277.724609375 1137.32421875 238.265630983 1137.32421875 176.256835938 c 0xfe50
1062.02050781 181.399414062 m 0xfe30
 1062.02050781 291.081274564 1127.92915194 360.87890625 1231.5 360.87890625 c 0
 1338.51799546 360.87890625 1406.62011719 291.081274564 1406.62011719 181.399414062 c 0
 1406.62011719 64.4326171877 1338.51799546 -10 1231.5 -10 c 0
 1127.92915194 -10 1062.02050781 64.4326171875 1062.02050781 181.399414062 c 0xfe30
858.32421875 176.256835938 m 0xff50
 858.32421875 113.191646509 892.133392609 73.0576171875 945.265625 73.0576171875 c 0
 999.971508138 73.0576171875 1034.78417969 113.191646509 1034.78417969 176.256835938 c 0
 1034.78417969 238.265630983 999.971508138 277.724609375 945.265625 277.724609375 c 0
 892.133392609 277.724609375 858.32421875 238.265630983 858.32421875 176.256835938 c 0xff50
774.520507812 181.399414062 m 0xfeb0
 774.520507812 291.081274564 840.915262702 360.87890625 945.25 360.87890625 c 0
 1049.97632567 360.87890625 1116.62011719 291.081274564 1116.62011719 181.399414062 c 0
 1116.62011719 64.4326171875 1049.97632567 -10 945.25 -10 c 0
 840.915262702 -10 774.520507812 64.4326171875 774.520507812 181.399414062 c 0xfeb0
580.82421875 176.256835938 m 0
 580.82421875 113.190794039 615.703547719 73.0576171875 670.515625 73.0576171875 c 0
 725.985370942 73.0576171875 761.284179688 113.190794039 761.284179688 176.256835938 c 0xff10
 761.284179688 238.265218397 725.985370942 277.724609375 670.515625 277.724609375 c 0
 615.703547719 277.724609375 580.82421875 238.265218397 580.82421875 176.256835938 c 0
492.020507812 176.399414062 m 0
 492.020507812 289.137173592 559.873367414 360.87890625 666.5 360.87890625 c 0
 770.462472704 360.87890625 836.620117188 291.08161012 836.620117188 181.399414062 c 0xfe90
 836.620117188 64.4329057752 770.462472704 -10 666.5 -10 c 0
 559.873367414 -10 492.020507812 62.4884665474 492.020507812 176.399414062 c 0
EndSplineSet
Refer: 168 8260 N 1 0 0 1 304 0 2
EndChar

StartChar: Lslash
Encoding: 255 321 171
Width: 620
Flags: W
HStem: 0 96.293<264.064 591.539> 487.5 20G<404.319 449.207> 635.084 95.9258<31.1201 153.151>
VStem: 148.43 115.635<96.293 635.084>
LayerCount: 2
Fore
SplineSet
443 507.5 m 1
 474.5 406 l 1
 246.5 322.793945312 l 1
 44 217 l 1
 11 321.5 l 1
 223 393.75 l 1
 443 507.5 l 1
EndSplineSet
Refer: 44 76 N 1 0 0 1 0 0 2
EndChar

StartChar: lslash
Encoding: 256 322 172
Width: 387
Flags: W
HStem: 0 79.1475<250.799 368.639> 676.325 78.6768<38.5201 156.481>
VStem: 152.16 98.6388<79.1475 676.325>
LayerCount: 2
Fore
SplineSet
368 544 m 9
 397 443.5 l 17
 219 367.793945312 l 1
 44 268 l 9
 11 371.5 l 17
 193 436.25 l 1
 368 544 l 9
EndSplineSet
Refer: 8 108 N 1 0 0 1 0 0 2
EndChar

StartChar: quoteright
Encoding: 635 8217 173
Width: 229
Flags: W
HStem: 445 320
VStem: 28.5 162
LayerCount: 2
Fore
SplineSet
28.5 728 m 9
 121.5 765 l 1
 190.5 626 l 1
 95 445 l 1
 27.25 481 l 17
 95.25 610 l 1
 28.5 728 l 9
EndSplineSet
EndChar

StartChar: uni2120
Encoding: 702 8480 179
Width: 540
Flags: W
HStem: 707.085 55.3193<196 247.327>
VStem: 15.501 63.6572<650.362 700.161> 110.299 69.1357<536.296 596.148>
LayerCount: 2
Fore
SplineSet
150.276367188 765.357421875 m 1
 150.276367188 765.357421875 15.5009765625 762.864248449 15.5009765625 674.166015625 c 0
 15.5009765625 640.897527056 32.1768385264 621.747516167 75.7053222656 602.525634765 c 0
 104.419233103 589.914184214 110.298828125 579.429288012 110.298828125 565.900390625 c 0
 110.298828125 521.495481108 21.388671875 518.173828125 21.388671875 518.173828125 c 1
 30.52734375 462.049804688 l 1
 30.52734375 462.049804688 179.434570312 464.342348122 179.434570312 567.918945312 c 0
 179.434570312 599.079653193 165.405726712 617.985089153 130.673583984 634.538085938 c 0
 86.3732830943 655.915798769 79.158203125 663.201171407 79.158203125 675.274414062 c 0
 79.158203125 708.249316806 160.1171875 715.337890625 160.1171875 715.337890625 c 1
 150.276367188 765.357421875 l 1
247.327148438 707.084960938 m 1
 196 704.631835938 l 1
 194.248046875 762.404296875 l 1
 316.591796875 766.404296875 l 1
 375.5 642.299804688 l 1
 440.849609375 766 l 1
 502.200195312 762.400390625 l 1
 530.799804688 472 l 1
 467 466.400390625 l 1
 449.900146484 672.150390625 l 1
 373.450195312 538.25 l 1
 300.049804688 668.799804688 l 1
 280.450195312 467.599609375 l 1
 224.299804688 472.849609375 l 1
 247.327148438 707.084960938 l 1
EndSplineSet
EndChar

StartChar: trademark
Encoding: 703 8482 180
Width: 608
Flags: W
HStem: 710.7 12.833<84.9609 147.142> 710.732 51.6719<10.4482 84.9609 147.142 222.492 263.2 314.527>
VStem: 83.2324 65.5312<470 722.7>
LayerCount: 2
Fore
SplineSet
147.141601562 722.700195312 m 1xa0
 148.763671875 470 l 1
 83.232421875 470 l 1
 84.9609375 723.533203125 l 1
 147.141601562 722.700195312 l 1xa0
116.841796875 710.700195312 m 1
 9 710.732421875 l 1
 10.4482421875 762.404296875 l 1
 222.4921875 762.404296875 l 1x60
 224.845703125 709.099609375 l 1
 116.841796875 710.700195312 l 1
314.52734375 707.084960938 m 1
 263.200195312 704.631835938 l 1
 261.448242188 762.404296875 l 1
 383.791992188 766.404296875 l 1
 442.700195312 642.299804688 l 1
 508.049804688 766 l 1
 569.400390625 762.400390625 l 1
 598 472 l 1
 534.200195312 466.400390625 l 1
 517.099609375 672.150390625 l 1
 440.650390625 538.25 l 1
 367.25 668.799804688 l 1
 347.650390625 467.599609375 l 1
 291.5 472.849609375 l 1
 314.52734375 707.084960938 l 1
EndSplineSet
EndChar

StartChar: uni2117
Encoding: 701 8471 181
Width: 795
Flags: W
HStem: -10.0664 63.377<276.815 523.561> 263.038 68.04<355.392 496.487> 513.154 72.1195<275.301 493.157> 513.154 14.6748<307.446 353.043> 678.14 60.7939<280.286 515.581>
VStem: 30 68<234.149 492.147> 276.303 78.7393<141.879 290.819 352.404 527.828> 524.911 75.4801<359.262 481.337> 701.617 63.3828<234.149 492.147>
LayerCount: 2
Fore
SplineSet
355.041796875 141.878515625 m 1xdf80
 276.302539062 141.878515625 l 1
 280.004687499 527.828320313 l 1
 353.042773437 527.828320313 l 1
 355.041796875 141.878515625 l 1xdf80
338.958007812 352.40390625 m 1
 338.958007812 352.40390625 363.161335534 331.078515626 425.790820312 331.078515626 c 0
 490.756996258 331.078515626 524.910742188 364.300065129 524.910742188 417.958007812 c 0
 524.910742188 481.69974013 488.223212335 513.153515625 407.190625 513.153515625 c 0
 307.445737189 513.153515625 218.641796875 469.734960937 218.641796875 469.734960937 c 1
 196.4 540.7828125 l 1
 196.4 540.7828125 262.31253159 585.273046875 417.390820313 585.273046875 c 0xef80
 530.289043898 585.273046875 600.390820312 523.447406441 600.390820312 415.437890625 c 0
 600.390820312 323.009779191 538.700026278 263.038476563 438.990820312 263.038476563 c 0
 366.463368147 263.038476563 322.794726562 290.818554688 322.794726562 290.818554688 c 1
 338.958007812 352.40390625 l 1
30 361.93359375 m 0
 30 592.322641811 172.722067272 738.93359375 397 738.93359375 c 0
 621.889353198 738.93359375 765 592.322641811 765 361.93359375 c 0
 765 134.599173678 621.889353198 -10.06640625 397 -10.06640625 c 0
 172.722067272 -10.06640625 30 134.599173678 30 361.93359375 c 0
98 361.93359375 m 0
 98 173.330214965 214.665625 53.310546875 398 53.310546875 c 0
 583.544326346 53.310546875 701.6171875 173.330214965 701.6171875 361.93359375 c 0
 701.6171875 555.172156521 583.544326346 678.139648438 398 678.139648438 c 0
 214.665625 678.139648438 98 555.172156521 98 361.93359375 c 0
EndSplineSet
EndChar

StartChar: lira
Encoding: 679 8356 182
Width: 576
Flags: W
HStem: 0 96.293<174.064 531.539> 230.5 86.5<191.2 418> 238.5 77.5<24 387.312> 370.5 86.5<209.012 428> 378.5 77.5<200 399.5>
VStem: 58.4297 115.635<96.293 227.921>
LayerCount: 2
Back
SplineSet
14 326 m 1
 430 327 l 1
 428 218 l 1
 12 226 l 1
 14 326 l 1
24 466 m 1
 440 467 l 1
 438 358 l 1
 22 366 l 1
 24 466 l 1
EndSplineSet
Fore
SplineSet
24 316 m 1xa4
 190.5 312.466796875 l 1
 420 317 l 1
 418 230.5 l 1xc4
 172.5 238.077148438 l 1
 22 238.5 l 1
 24 316 l 1xa4
34 456 m 1x8c
 210 453 l 1
 430 457 l 1
 428 370.5 l 1x94
 200 377.788085938 l 1
 32 378.5 l 1
 34 456 l 1x8c
174.064453125 96.29296875 m 1
 535.159179688 97.9306640621 l 1
 531.5390625 0 l 1
 58.4296875 0 l 1
 79.4187518606 452.125433501 170.496678415 643.005046291 456.930664062 747.6640625 c 1
 488.798828125 654.354492188 l 1
 282.072878921 579.584809861 186.910894376 418.923192401 174.064453125 96.29296875 c 1
EndSplineSet
EndChar

StartChar: Euro
Encoding: 684 8364 183
Width: 541
Flags: W
HStem: -33.0664 99.75<395.487 479.482> 243 95.25<321.106 418.564> 251 87.5<32 241.189> 386.75 95.25<353.945 443.978> 651.492 97.5<408.165 488.362>
VStem: 75 107<291.601 430.798>
LayerCount: 2
Fore
SplineSet
32 338.5 m 1xbc
 228 332.0078125 l 1
 434.83984375 338.25 l 1
 417.2734375 243 l 1xdc
 222 257.213867188 l 1
 30 251 l 1
 32 338.5 l 1xbc
35 481 m 1
 238 467.45703125 l 1
 461.543945312 482 l 1
 443.977539062 386.75 l 1
 230 395.463867188 l 1
 33 393.5 l 1
 35 481 l 1
478.5 -33.06640625 m 1
 229.478531046 -12.3298471102 75 120.543550932 75 361.93359375 c 0
 75 598.46956446 235.416492507 728.46176596 487.5 748.9921875 c 1
 499.5 651.4921875 l 1
 303.03952741 622.834049602 182 538.88768725 182 361.93359375 c 0
 182 181.502397461 287.051489258 94.4139376175 492.5 66.68359375 c 1
 478.5 -33.06640625 l 1
EndSplineSet
EndChar

StartChar: uni20B5
Encoding: 691 8373 184
Width: 461
Flags: W
HStem: 0 21G<250.82 337.82> 91.9014 53.0986<257.82 328.82> 498.858 21G<420.112 429.818> 571.5 47.957<255.82 326.82> 719 20G<246.82 333.82>
VStem: 41.5 104.22<260.091 456.375> 250.82 87<0 62.1429 638.5 739> 257.82 71<64.4444 145 571.5 678.091>
LayerCount: 2
Fore
SplineSet
337.8203125 0 m 1xfe
 250.8203125 0 l 1xfe
 257.8203125 145 l 1
 328.8203125 145 l 1xfd
 337.8203125 0 l 1xfe
246.8203125 739 m 1
 333.8203125 739 l 1
 326.8203125 571.5 l 1
 255.8203125 571.5 l 1
 246.8203125 739 l 1
41.5 357.576171875 m 0
 41.5 517.614257812 139.591075678 619.45703125 293.735351562 619.45703125 c 0
 406.329101562 619.45703125 454.184570312 569.0703125 454.184570312 569.0703125 c 1
 420.112304688 498.858398438 l 1
 420.112304688 498.858398438 372.58696979 532.2890625 298.686523438 532.2890625 c 0
 205.205448385 532.2890625 145.719726562 466.729278669 145.719726562 363.708007812 c 0
 145.719726562 251.770692731 199.137330924 180.537109375 303.60546875 180.537109375 c 0
 396.165560456 180.537109375 443.047851562 212.400390625 443.047851562 212.400390625 c 1
 471.774414062 132.869140625 l 1
 471.774414062 132.869140625 428.375976562 91.9013671875 293.735351562 91.9013671875 c 0
 139.591075678 91.9013671875 41.5 195.21875 41.5 357.576171875 c 0
EndSplineSet
EndChar

StartChar: uni20B2
Encoding: 688 8370 185
Width: 542
Flags: W
HStem: 0 21G<250.82 337.82> 91.9014 53.0986<257.82 328.82> 278.989 72.4453<467.416 530.564> 497.608 21G<417.612 427.283> 571.5 47.957<255.82 326.82> 719 20G<246.82 333.82>
VStem: 41.5 104.22<260.091 456.375> 250.82 87<0 62.1429 638.5 739> 257.82 71<64.4444 145 571.5 678.091> 380.307 88.9678<197.349 278.989> 381.438 149.127<278.989 351.435>
LayerCount: 2
Fore
SplineSet
246.8203125 739 m 1xfe
 333.8203125 739 l 1
 326.8203125 571.5 l 1
 255.8203125 571.5 l 1
 246.8203125 739 l 1xfe
337.8203125 0 m 1xff
 250.8203125 0 l 1xff
 257.8203125 145 l 1
 328.8203125 145 l 1xfe80
 337.8203125 0 l 1xff
41.5 357.576171875 m 0
 41.5 517.614257812 139.591075677 619.45703125 293.735351562 619.45703125 c 0
 404.574749767 619.45703125 451.684570312 568.0703125 451.684570312 568.0703125 c 1
 417.612304688 497.608398438 l 1
 417.612304688 497.608398438 371.06545505 532.2890625 298.686523438 532.2890625 c 0
 205.205448385 532.2890625 145.719726562 466.729278667 145.719726562 363.708007812 c 0
 145.719726562 251.770692732 199.137357434 180.537109375 303.60546875 180.537109375 c 0
 355.325006313 180.537109375 380.306640625 197.348632812 380.306640625 197.348632812 c 1xfe40
 381.4375 351.434570312 l 1
 530.564453125 351.434570312 l 1xfe20
 532.12109375 278.02734375 l 1
 467.416015625 278.989257812 l 1
 469.274414062 131.869140625 l 1xfe40
 469.274414062 131.869140625 406.766208691 91.9013671875 293.735351562 91.9013671875 c 0
 139.591075677 91.9013671875 41.5 195.21875 41.5 357.576171875 c 0
EndSplineSet
EndChar

StartChar: uni20AD
Encoding: 685 8365 186
Width: 697
Flags: W
HStem: 0 21G<156.33 272.659> 307.25 105.75<490.064 633> 314.5 98<43.75 240.988> 323.436 80.0322<101.012 445.436> 635.084 95.9268<38.6201 160.651>
VStem: 156.33 116.329<0 635.084>
LayerCount: 2
Fore
SplineSet
43.75 412.5 m 1xac
 298.25 403.467773438 l 1x9c
 634.75 413 l 1
 633 307.25 l 1xcc
 302.5 323.435546875 l 1x9c
 42 314.5 l 1
 43.75 412.5 l 1xac
267.229492188 731.010742188 m 1
 272.659179688 0 l 1
 156.330078125 0 l 1
 160.651367188 635.083984375 l 1
 35 633.080078125 l 1
 38.6201171875 731.010742188 l 1
 267.229492188 731.010742188 l 1
548 745.0078125 m 1
 637 671.0078125 l 1
 336 364 l 1
 662 55.5 l 1
 575.5 -27 l 1
 211.5 364 l 1
 548 745.0078125 l 1
EndSplineSet
EndChar

StartChar: uni20AE
Encoding: 686 8366 187
Width: 550
Flags: W
HStem: 0 21G<211.83 328.159> 633 30<216.151 324.104> 633.08 97.9307<36.1201 216.151 324.104 506.229>
VStem: 211.83 116.329<0 663>
LayerCount: 2
Fore
SplineSet
56.1298828125 187.71484375 m 1x90
 271.471679688 248.834960938 l 1
 481.26953125 326.35546875 l 1
 509.49609375 231.365234375 l 1
 289.28515625 180.768554688 l 1
 80.6806640625 104.556640625 l 1
 56.1298828125 187.71484375 l 1x90
41.83203125 348.859375 m 1
 257.173828125 409.98046875 l 1
 466.971679688 487.5 l 1
 495.198242188 392.509765625 l 1
 274.987304688 341.912109375 l 1
 66.3828125 265.700195312 l 1
 41.83203125 348.859375 l 1
324.103515625 663 m 1xd0
 328.159179688 0 l 1
 211.830078125 0 l 1
 216.151367188 665.083984375 l 1
 324.103515625 663 l 1xd0
272.103515625 633 m 1
 32.5 633.080078125 l 1
 36.1201171875 731.010742188 l 1
 506.229492188 731.010742188 l 1xb0
 512.11328125 629 l 1
 272.103515625 633 l 1
EndSplineSet
EndChar

StartChar: uni20B1
Encoding: 687 8369 188
Width: 722
Flags: W
HStem: 0 21G<147.771 259.003> 197.434 92.25<259.351 449.416> 296.75 78.5<22 209.822> 369.717 58.3213<178 216.277> 426.75 78.5<24 214.631> 495.25 20G<543.49 592.5 592.5 701.543> 633.992 105<178.224 439.055> 633.992 45.2578<153.94 255.67>
VStem: 147.771 111.232<0 226.934 369.717 428.038 500.25 679.25> 542 82.917<436.75 515.25>
LayerCount: 2
Fore
SplineSet
531.5 385.25 m 1xc0c0
 573 379.716796875 l 1
 695 386.25 l 1
 693 298.75 l 1
 552.5 308.327148438 l 1
 522 306.75 l 1
 531.5 385.25 l 1xc0c0
544 515.25 m 1xc4c0
 592.5 510.25 l 1
 702 516.25 l 1
 700 428.75 l 1
 582.5 438.038085938 l 1
 542 436.75 l 1
 544 515.25 l 1xc4c0
22 375.25 m 1xe0c0
 178 369.716796875 l 1xd0c0
 235.5 376.25 l 1
 233.5 288.75 l 1
 160 298.327148438 l 1
 20 296.75 l 1
 22 375.25 l 1xe0c0
24 505.25 m 1xc8c0
 195 500.25 l 1
 228.5 506.25 l 1
 226.5 418.75 l 1
 185 428.038085938 l 1xd0c0
 22 426.75 l 1
 24 505.25 l 1xc8c0
259.002929688 0 m 1
 147.770507812 0 l 1
 153.940429688 679.25 l 1
 255.669921875 679.25 l 1xc1c0
 259.002929688 0 l 1
224.196289062 316.626953125 m 1
 224.196289062 316.626953125 264.319377837 289.68359375 355.416992188 289.68359375 c 0
 465.254585192 289.68359375 521.416992188 353.947293895 521.416992188 454.93359375 c 0
 521.416992188 564.35866698 467.870858189 633.9921875 328.937744141 633.9921875 c 0
 145.505688562 633.9921875 35.76953125 596.927734375 35.76953125 596.927734375 c 1
 16.75 699.590820312 l 1
 16.75 699.590820312 104.570436609 738.9921875 329.687744141 738.9921875 c 0xc2c0
 511.882530809 738.9921875 624.916992188 629.303232738 624.916992188 456.93359375 c 0
 624.916992188 298.349078229 524.583457452 197.43359375 366.916992188 197.43359375 c 0
 259.770507812 197.43359375 195.2578125 226.93359375 195.2578125 226.93359375 c 1
 224.196289062 316.626953125 l 1
EndSplineSet
EndChar

StartChar: uni20B3
Encoding: 689 8371 189
Width: 768
Flags: W
HStem: 129.712 78<11.75 756> 269.712 78<51.75 716> 617.819 103.181<113.819 282.258> 623.612 107.388<206.322 282.258>
LayerCount: 2
Fore
SplineSet
282.2578125 623.612304688 m 1xd0
 113.819335938 617.819335938 l 1
 110.439453125 721 l 1xe0
 430.048828125 731 l 1
 692.450195312 9.1611328125 l 1
 587.426757812 -15 l 1
 374.818359375 599.3671875 l 1
 157.569335938 -15 l 1
 54.2734375 12.75 l 1
 282.2578125 623.612304688 l 1xd0
51.75 347.711914062 m 1
 717.75 348.211914062 l 1
 716 262.961914062 l 1
 50 269.711914062 l 1
 51.75 347.711914062 l 1
11.75 207.711914062 m 1
 757.75 208.211914062 l 1
 756 122.961914062 l 1
 10 129.711914062 l 1
 11.75 207.711914062 l 1
EndSplineSet
EndChar

StartChar: uni20B4
Encoding: 690 8372 190
Width: 598
Flags: W
HStem: 238.75 87.5<307.226 536> 246.75 78.5<32 435.169> 378.75 87.5<367.789 566> 386.75 78.5<42 228.802 303 490.779> 718.393 20G<167.475 169.646>
VStem: 90.25 113.215<162.877 246.339> 381.067 111.519<477.057 573.831>
LayerCount: 2
Fore
SplineSet
169.645507812 738.392578125 m 1x0e
 169.645507812 738.392578125 492.5859375 732.294315174 492.5859375 515.354980469 c 0
 492.5859375 445.40169098 455.475804853 386.21265637 333.684570312 336.405273438 c 0
 221.478680714 290.512268568 203.46484375 262.048637408 203.46484375 218.5 c 0
 203.46484375 93.1296215287 458.365234375 79.1826171875 458.365234375 79.1826171875 c 1
 448.893554688 -19.8779296875 l 1
 448.893554688 -19.8779296875 90.25 -14.6054130973 90.25 223.544921875 c 0
 90.25 305.332097582 126.837656265 350.952530643 228.801757812 398.400390625 c 0
 351.849935534 455.648370377 381.067382812 482.880228409 381.067382812 528.68359375 c 0
 381.067382812 628.951100401 159.544921875 645.342773438 159.544921875 645.342773438 c 1
 169.645507812 738.392578125 l 1x0e
32 325.25 m 1x4e
 241 319.716796875 l 1
 538 326.25 l 1
 536 238.75 l 1x8e
 223 248.327148438 l 1
 30 246.75 l 1
 32 325.25 l 1x4e
42 465.25 m 1x1e
 313 460.25 l 1
 568 466.25 l 1
 566 378.75 l 1x2e
 303 388.038085938 l 1
 40 386.75 l 1
 42 465.25 l 1x1e
EndSplineSet
EndChar

StartChar: uni20B8
Encoding: 692 8376 191
Width: 590
Flags: W
HStem: 0 21G<231.83 348.159> 450.5 29.584<236.151 344.104> 450.58 90.4307<36.1201 236.151 344.104 546.229> 630.58 100.431<46.1201 536.229>
VStem: 231.83 116.329<0 478>
LayerCount: 2
Fore
SplineSet
272.103515625 450.5 m 1xd8
 32.5 450.580078125 l 1
 36.1201171875 541.010742188 l 1
 546.229492188 541.010742188 l 1xb8
 552.11328125 446.5 l 1
 272.103515625 450.5 l 1xd8
344.103515625 478 m 1
 348.159179688 0 l 1
 231.830078125 0 l 1
 236.151367188 480.083984375 l 1xd8
 344.103515625 478 l 1
42.5 630.580078125 m 1
 46.1201171875 731.010742188 l 1
 536.229492188 731.010742188 l 1
 542.11328125 626.5 l 1
 42.5 630.580078125 l 1
EndSplineSet
EndChar

StartChar: uni20B9
Encoding: 693 8377 192
Width: 646
Flags: W
HStem: 246.855 81.5783<257.361 358.1> 420.184 92.75<447.271 614> 426.684 86.5<129.75 591.509> 641.492 97.5<50.3527 321.127>
VStem: 418.667 107.75<388.213 554.879>
LayerCount: 2
Fore
SplineSet
129.75 513.18359375 m 1xb8
 438.25 508.18359375 l 1
 615.75 512.93359375 l 1
 614 420.18359375 l 1xd8
 428.5 427.971679688 l 1
 128 426.68359375 l 1
 129.75 513.18359375 l 1xb8
132.196289062 351.376953125 m 1
 132.196289062 351.376953125 173.771855441 328.43359375 268.166992188 328.43359375 c 0
 367.636497624 328.43359375 418.666992188 382.68273371 418.666992188 467.93359375 c 0
 418.666992188 573.998119884 348.168223659 641.4921875 203.916992188 641.4921875 c 0
 96.6814456883 641.4921875 36.76953125 614.927734375 36.76953125 614.927734375 c 1
 18 710.840820312 l 1
 18 710.840820312 68.8184040598 738.9921875 221.916992188 738.9921875 c 0
 410.50083857 738.9921875 526.416992188 650.858398438 526.416992188 480.93359375 c 0
 526.416992188 275.987182543 357.260695354 246.855315769 293.286939321 246.855315769 c 0
 268.914593543 246.855315769 255.240234375 251.790039062 255.240234375 251.790039062 c 1
 508.770507812 51.25 l 1
 437.270507812 -37 l 1
 102.7578125 273.93359375 l 1
 132.196289062 351.376953125 l 1
EndSplineSet
EndChar

StartChar: uni20BA
Encoding: 694 8378 193
Width: 643
Flags: W
HStem: -9.99805 96.877<251.364 411.424> 711.01 20G<140.621 246.783>
VStem: 135.348 115.635<91.293 731.01> 507.418 104.5<188.339 257.105>
LayerCount: 2
Fore
SplineSet
21.2978515625 307.71484375 m 1
 224.139648438 362.834960938 l 1
 435.6875 440.35546875 l 1
 465.1640625 345.365234375 l 1
 242.953125 294.268554688 l 1
 46.8486328125 224.556640625 l 1
 21.2978515625 307.71484375 l 1
7 468.859375 m 1
 209.841796875 523.98046875 l 1
 421.389648438 601.5 l 1
 450.866210938 506.509765625 l 1
 228.655273438 455.412109375 l 1
 32.55078125 385.700195312 l 1
 7 468.859375 l 1
250.982421875 91.29296875 m 1
 250.982421875 91.29296875 271.835094959 86.87890625 311.380859375 86.87890625 c 0
 408.465865445 86.87890625 494.898868206 126.117227955 507.41796875 272.5 c 1
 611.91796875 256 l 1
 588.935170369 105.546875 524.338667169 -9.998046875 299.91796875 -9.998046875 c 0
 200.166421072 -9.998046875 135.34765625 0 135.34765625 0 c 1
 140.76953125 731.009765625 l 1
 246.647460938 731.009765625 l 1
 250.982421875 91.29296875 l 1
EndSplineSet
EndChar

StartChar: breve
Encoding: 430 728 194
Width: 332
Flags: W
HStem: 621 70.75<98.5857 239.699>
VStem: 15 302
LayerCount: 2
Fore
SplineSet
168 621 m 0
 71.7337707597 621 15 700.5 15 700.5 c 1
 58 748 l 1
 58 748 100.863724665 691.75 167 691.75 c 0
 230.993217055 691.75 277.25 742 277.25 742 c 1
 317 703.75 l 1
 317 703.75 272.785502959 621 168 621 c 0
EndSplineSet
EndChar

StartChar: dotaccent
Encoding: 431 729 195
Width: 240
Flags: W
HStem: 629.008 110<74.2446 165.755>
VStem: 65 110<638.252 729.763>
LayerCount: 2
Fore
SplineSet
65 684.0078125 m 0
 65 717.619140626 86.3886718751 739.0078125 120 739.0078125 c 0
 153.611328126 739.0078125 175 717.619140626 175 684.0078125 c 0
 175 650.396484374 153.611328126 629.0078125 120 629.0078125 c 0
 86.3886718751 629.0078125 65 650.396484374 65 684.0078125 c 0
EndSplineSet
EndChar

StartChar: ogonek
Encoding: 433 731 196
Width: 207
Flags: W
HStem: -248 62<119.254 193.177>
VStem: 32.5 72.5<-170.893 -63.0897>
LayerCount: 2
Fore
SplineSet
187.5 18 m 1
 187.5 18 105 -65.0301996403 105 -126.25 c 0
 105 -169.047566251 132.2 -185.185227274 198.5 -186 c 1
 192.5 -248 l 1
 86.9162436546 -242 32.5 -216.730463477 32.5 -136 c 0
 32.5 -47.52 123.75 22 123.75 22 c 1
 187.5 18 l 1
EndSplineSet
EndChar

StartChar: ring
Encoding: 432 730 197
Width: 307
Flags: W
HStem: 498.113 61.8027<111.746 197.123> 677.093 61.8994<111.378 197.494>
VStem: 31.25 69.6338<570.986 666.809> 208.434 67.916<569.975 667.372>
LayerCount: 2
Fore
SplineSet
100.883789062 619.416015625 m 0
 100.883789062 583.055480958 121.725716093 559.916015625 154.479492188 559.916015625 c 0
 187.451503242 559.916015625 208.43359375 582.763807025 208.43359375 618.666015625 c 0
 208.43359375 654.371666076 187.451503242 677.092773438 154.479492188 677.092773438 c 0
 121.725716093 677.092773438 100.883789062 654.663327485 100.883789062 619.416015625 c 0
31.25 619.512695312 m 0
 31.25 692.527906327 79.172545918 738.9921875 154.479492188 738.9921875 c 0
 228.955776571 738.9921875 276.349609375 689.606300444 276.349609375 612 c 0
 276.349609375 542.402270226 228.955776571 498.11328125 154.479492188 498.11328125 c 0
 79.1725459178 498.11328125 31.25 545.323854793 31.25 619.512695312 c 0
EndSplineSet
EndChar

StartChar: hungarumlaut
Encoding: 435 733 198
Width: 417
Flags: W
HStem: 514.248 230.246
LayerCount: 2
Fore
SplineSet
339.2578125 744.494140625 m 1
 410.131835938 688.794921875 l 1
 247.243164062 514.248046875 l 1
 201.208984375 551.784179688 l 1
 339.2578125 744.494140625 l 1
149.2578125 744.494140625 m 1
 220.131835938 688.794921875 l 1
 57.2431640625 514.248046875 l 1
 11.208984375 551.784179688 l 1
 149.2578125 744.494140625 l 1
EndSplineSet
EndChar

StartChar: partialdiff
Encoding: 714 8706 199
Width: 615
Flags: W
HStem: -10.0664 94.1748<209.675 378.413> 415.009 81.9248<214.08 385.079> 664.268 89.2432<209.908 277.768>
VStem: 45 93.625<159.4 337.851> 458.875 111.125<181.99 419.517>
LayerCount: 2
Fore
SplineSet
138.625 247.858398438 m 0
 138.625 147.788766958 200.592798343 84.1083984375 291.775390625 84.1083984375 c 0
 393.946530689 84.1083984375 458.875 151.677644427 458.875 257.858398438 c 0
 458.875 353.895303396 396.378336847 415.008789062 302.025390625 415.008789062 c 0
 202.169167315 415.008789062 138.625 350.006449832 138.625 247.858398438 c 0
45 239.93359375 m 0
 45 403.100373145 137.222430269 496.93359375 277 496.93359375 c 0
 414.639243572 496.93359375 472.65234375 408.557617188 472.65234375 408.557617188 c 1
 447.956072788 538.785199373 389.736944071 631.904627123 188.021484375 664.267578125 c 1
 211.770507812 753.510742188 l 1
 459.151112739 732.027172961 570 570.795761438 570 332 c 0
 570 103.182430662 450.082504524 -10.06640625 281.25 -10.06640625 c 0
 147.874703128 -10.06640625 45 87.155085637 45 239.93359375 c 0
EndSplineSet
EndChar

StartChar: emptyset
Encoding: 715 8709 200
Width: 795
Flags: W
HStem: -10.0664 87.377<274.694 517.185> 654.14 84.7939<279.241 526.232>
VStem: 22.5 93<243.634 482.602> 686.617 85.8828<243.634 482.602>
LayerCount: 2
Fore
SplineSet
707.19921875 731.68359375 m 1
 438.580078125 343.549804688 l 1
 181.62890625 -77.25 l 1
 92.80078125 -20.75 l 1
 375.279296875 374.450195312 l 1
 624.970703125 790.18359375 l 1
 707.19921875 731.68359375 l 1
22.5 361.93359375 m 0
 22.5 592.322641811 168.138730772 738.93359375 397 738.93359375 c 0
 626.472695994 738.93359375 772.5 592.322641811 772.5 361.93359375 c 0
 772.5 134.599173678 626.472695994 -10.06640625 397 -10.06640625 c 0
 168.138730772 -10.06640625 22.5 134.599173678 22.5 361.93359375 c 0
115.5 361.93359375 m 0
 115.5 187.99691318 225.360130208 77.310546875 398 77.310546875 c 0
 574.377635495 77.310546875 686.6171875 187.99691318 686.6171875 361.93359375 c 0
 686.6171875 540.505373777 574.377635495 654.139648438 398 654.139648438 c 0
 225.360130208 654.139648438 115.5 540.505373777 115.5 361.93359375 c 0
EndSplineSet
EndChar

StartChar: Delta
Encoding: 716 8710 201
Width: 670
Flags: W
HStem: 0 100.817<156.086 511.106> 617.819 103.181<74.8193 243.258> 623.612 107.388<167.322 243.258>
LayerCount: 2
Fore
SplineSet
243.2578125 623.612304688 m 1xa0
 74.8193359376 617.819335938 l 1
 71.439453125 721 l 1xc0
 391.048828125 731 l 1
 643.25 63.5 l 1
 626.25 0 l 1
 43 0 l 1
 26 59.5 l 1
 243.2578125 623.612304688 l 1xa0
511.106445312 102.131835938 m 1
 335.818359375 598.6171875 l 1
 156.0859375 100.817382812 l 1
 511.106445312 102.131835938 l 1
EndSplineSet
EndChar

StartChar: notequal
Encoding: 726 8800 202
Width: 450
Flags: W
HStem: 203.25 84.5<145.2 414> 213.25 77.5<31 298.8> 379.25 77.5<33 418>
LayerCount: 2
Fore
SplineSet
271.026367188 594.734375 m 1x20
 351.124023438 566.822265625 l 1
 249.0859375 317.234375 l 1
 177.977539062 80.1787109375 l 1
 98.7880859376 109.173828125 l 1
 197.328125 341.390625 l 1
 271.026367188 594.734375 l 1x20
EndSplineSet
Refer: 19 61 N 1 0 0 1 0 0 2
EndChar

StartChar: approxequal
Encoding: 725 8776 203
Width: 450
Flags: W
HStem: 495.53 20G<381.129 427.797>
LayerCount: 2
Fore
SplineSet
290.991210938 246.168945312 m 1
 417.650146484 315.530273438 l 1
 446.330078125 259 l 1
 284.950195312 156.959960938 l 1
 159.009765625 262.791015625 l 1
 39.8505859375 189.6796875 l 1
 3.669921875 249.959960938 l 1
 165.05078125 352 l 1
 290.991210938 246.168945312 l 1
290.991210938 446.168945312 m 1
 417.650146484 515.530273438 l 1
 446.330078125 459 l 1
 284.950195312 356.959960938 l 1
 159.009765625 462.791015625 l 1
 39.8505859375 389.6796875 l 1
 3.669921875 449.959960938 l 1
 165.05078125 552 l 1
 290.991210938 446.168945312 l 1
EndSplineSet
EndChar

StartChar: product
Encoding: 717 8719 204
Width: 853
Flags: W
HStem: 627.584 103.427<38.6201 148.151 255.838 597.979 706.073 815.369>
VStem: 143.83 116.329<-173.994 627.584> 593.83 116.329<-173.994 626.128>
LayerCount: 2
Fore
SplineSet
143.830078125 -173.994140625 m 1
 148.151367188 627.583984375 l 1
 35 625.580078125 l 1
 38.6201171875 731.010742188 l 1
 815.369140625 731.010742188 l 1
 818.989257812 625.580078125 l 1
 706.073242188 627.580078125 l 1
 710.159179688 -173.994140625 l 1
 593.830078125 -173.994140625 l 1
 597.979492188 626.127929688 l 1
 255.837890625 627.583984375 l 1
 260.159179688 -173.994140625 l 1
 143.830078125 -173.994140625 l 1
EndSplineSet
EndChar

StartChar: summation
Encoding: 718 8721 205
Width: 670
Flags: W
HStem: -173.994 96.4805<182.268 626.539> 633.08 97.9307<33.6201 138.151 258.854 618.729>
LayerCount: 2
Fore
SplineSet
618.729492188 731.010742188 m 1
 624.61328125 629 l 1
 258.853515625 633 l 1
 434.75 301 l 1
 182.267578125 -77.513671875 l 1
 242.314453125 -77.701171875 l 1
 630.159179688 -76.0634765624 l 1
 626.5390625 -173.994140625 l 1
 63.9296875 -173.994140625 l 1
 54.87109375 -80.494140625 l 1
 315.75 301.5 l 1
 138.151367188 635.083984375 l 1
 30 633.080078125 l 1
 33.6201171875 731.010742188 l 1
 618.729492188 731.010742188 l 1
EndSplineSet
EndChar

StartChar: integral
Encoding: 724 8747 206
Width: 523
Flags: W
LayerCount: 2
Fore
SplineSet
413.01953125 797.84375 m 1
 487.7265625 722.374023438 l 1
 316.887695312 556.46484375 l 1
 264.63671875 10 l 1
 92.7275390621 -204 l 1
 9.4775390625 -131.25 l 1
 167.057617188 28.75 l 1
 220.734375 592.096679688 l 1
 413.01953125 797.84375 l 1
EndSplineSet
EndChar

StartChar: angleleft
Encoding: 729 9001 268
Width: 382
Flags: W
LayerCount: 2
Fore
SplineSet
124.63671875 300.836914062 m 1
 361 -162.994140625 l 1
 277.5 -198.994140625 l 1
 21 301.005859375 l 1
 277.5 791.001953125 l 1
 361 755.001953125 l 1
 124.63671875 300.836914062 l 1
EndSplineSet
EndChar

StartChar: angleright
Encoding: 730 9002 269
Width: 382
Flags: W
LayerCount: 2
Fore
SplineSet
257.36328125 291.170898438 m 1
 21 755.001953125 l 1
 104.5 791.001953125 l 1
 361 291.001953125 l 1
 104.5 -198.994140625 l 1
 21 -162.994140625 l 1
 257.36328125 291.170898438 l 1
EndSplineSet
EndChar

StartChar: dcroat
Encoding: 207 273 271
Width: 672
Flags: W
HStem: -10.0664 86<202.553 371.259> 0 78.4268<551.849 658.38> 421.434 85.5<202.553 369.123> 551.5 86.25<292 613.011> 735.002 20G<458.125 549.249>
VStem: 30 94.25<153.154 342.217> 453.521 54.4795<114.694 410.49> 458.25 90.9199<258.934 755.002>
LayerCount: 2
Fore
SplineSet
292 637.75 m 1x3c
 498 632.75 l 1
 648 638 l 1
 646 544.25 l 1
 490.5 552.788085938 l 1
 290 551.5 l 1
 292 637.75 l 1x3c
EndSplineSet
Refer: 5 100 S 1 0 0 1 0 0 2
EndChar

StartChar: Hbar
Encoding: 228 294 272
Width: 830
Flags: W
HStem: 0 21G<148.83 265.159 583.83 700.159> 252.5 97<330.782 611.5> 262.25 84<224.5 501.218> 423.184 78.5<136.986 813> 431.25 69.5<36 710.014> 635.084 95.9268<38.6201 153.151 473.62 588.151>
VStem: 148.83 116.329<0 262.25 346.25 635.084> 220.5 44.6592<262.25 346.25> 583.83 116.329<0 252.5 349.5 635.084>
LayerCount: 2
Fore
SplineSet
259.729492188 731.010742188 m 1x8680
 265.159179688 0 l 1
 148.830078125 0 l 1
 153.151367188 635.083984375 l 1
 35 633.080078125 l 1
 38.6201171875 731.010742188 l 1
 259.729492188 731.010742188 l 1x8680
694.729492188 731.010742188 m 1
 700.159179688 0 l 1
 583.830078125 0 l 1
 588.151367188 635.083984375 l 1
 470 633.080078125 l 1
 473.620117188 731.010742188 l 1
 694.729492188 731.010742188 l 1
224.5 346.25 m 1xa580
 615.5 349.5 l 1
 611.5 252.5 l 1xc580
 220.5 262.25 l 1
 224.5 346.25 l 1xa580
36 500.75 m 1x8c80
 815 501.68359375 l 1
 813 423.18359375 l 1x9480
 34 431.25 l 1
 36 500.75 l 1x8c80
EndSplineSet
EndChar

StartChar: hbar
Encoding: 229 295 273
Width: 640
Flags: W
HStem: 0 21G<140.58 239.159> 421.934 85<299.551 448.178> 569 79<241.124 396> 577 70<22 337.225> 735.002 20G<144.787 233.873>
VStem: 140.58 98.5791<0 266.434 578.288 755.002> 495.5 95<9.03249 368.754>
LayerCount: 2
Fore
SplineSet
175.5 266.43359375 m 1xce
 196.330403646 410.680183501 262.027777778 506.93359375 398 506.93359375 c 0
 524.834247295 506.93359375 590.5 429.158203125 590.5 278.93359375 c 0
 590.5 134.376953125 572.659179688 -15 572.659179688 -15 c 1
 475.330078125 -2.5 l 1
 475.330078125 -2.5 495.5 139.894831282 495.5 256.93359375 c 0
 495.5 361.665790265 464.738765052 421.93359375 377.5 421.93359375 c 0
 288.085158327 421.93359375 240.296511386 367.799858374 226 229.43359375 c 1
 175.5 266.43359375 l 1xce
22 647 m 1xde
 198 642 l 1
 398 648 l 1
 396 569 l 1xee
 190.5 578.288085938 l 1
 20 577 l 1
 22 647 l 1xde
233.729492188 755.001953125 m 1
 239.159179688 0 l 1
 140.580078125 0 l 1
 144.901367188 755.001953125 l 1
 233.729492188 755.001953125 l 1
EndSplineSet
EndChar

StartChar: Tbar
Encoding: 292 358 275
Width: 590
Flags: W
HStem: 0 21G<231.83 348.159> 265.75 95.5<362.956 511.75> 275 84.25<79.25 426.071> 633 30<236.151 344.104> 633.08 97.9307<28.6201 236.151 344.104 553.729>
VStem: 231.83 116.329<0 663>
LayerCount: 2
Fore
SplineSet
79.25 359.25 m 1xa4
 294.25 355.25 l 1
 515.25 361.25 l 1
 511.75 265.75 l 1xc4
 287.75 276.288085938 l 1
 75.75 275 l 1
 79.25 359.25 l 1xa4
EndSplineSet
Refer: 61 84 N 1 0 0 1 0 0 2
EndChar

StartChar: tbar
Encoding: 293 359 276
Width: 426
Flags: W
HStem: 207.462 85.5<220.569 387> 214.712 77.25<3 343.934> 405.5 94.5<229.019 379.25> 415.25 81.75<18 320.231>
VStem: 126.83 96.2988<130.746 463.737>
LayerCount: 2
Fore
SplineSet
3 291.961914062 m 1x48
 194 287.461914062 l 1
 389 292.961914062 l 1
 387 207.461914062 l 1x88
 184 216 l 1
 1 214.711914062 l 1
 3 291.961914062 l 1x48
EndSplineSet
Refer: 7 116 N 1 0 0 1 0 0 2
EndChar

StartChar: .notdef
Encoding: 738 -1 362
Width: 795
Flags: W
HStem: -10.0664 63.377<276.815 523.561> 141.077 88.7998<335.875 414.044> 274.418 113.183<345.928 403.394> 531.677 62.6297<322.267 403.872> 678.14 60.7939<280.286 515.581>
VStem: 30 68<234.149 492.147> 330.56 88.8004<146.393 224.561> 452.72 72.8396<401.824 493.769> 701.617 63.3828<234.149 492.147>
LayerCount: 2
Fore
SplineSet
311.240234375 531.676953125 m 1
 323.654296875 594.306640625 l 1
 462.116303677 574.604624201 525.559765625 530.616812688 525.559765625 445.883203125 c 0
 525.559765625 378.932765953 476.507699866 345.563201478 428.772460938 336.623242188 c 0
 416.537703472 334.016758043 406.59609375 333.556835938 406.59609375 333.556835938 c 1
 403.399804688 270.916992188 l 1
 403.399804688 270.916992188 395.190595569 274.417773437 376.16015625 274.417773437 c 0
 356.387695312 274.417773437 345.919921875 269.956835937 345.919921875 269.956835937 c 1
 342.263476562 388.636523438 l 1
 342.263476562 388.636523438 354.276523132 387.600976563 378.199609375 387.600976563 c 0
 420.64166132 387.600976563 452.720117187 404.823507874 452.720117187 449.716992188 c 0
 452.720117187 497.03519526 405.981368934 520.455443728 311.240234375 531.676953125 c 1
330.559765625 185.476757812 m 0
 330.559765625 212.610385694 347.826333057 229.876953125 374.959960938 229.876953125 c 0
 402.093588818 229.876953125 419.36015625 212.610385694 419.36015625 185.476757812 c 0
 419.36015625 158.343488006 402.093588818 141.077148438 374.959960938 141.077148438 c 0
 347.826333057 141.077148438 330.559765625 158.343488006 330.559765625 185.476757812 c 0
30 361.93359375 m 0
 30 592.322641811 172.722067272 738.93359375 397 738.93359375 c 0
 621.889353198 738.93359375 765 592.322641811 765 361.93359375 c 0
 765 134.599173678 621.889353198 -10.06640625 397 -10.06640625 c 0
 172.722067272 -10.06640625 30 134.599173678 30 361.93359375 c 0
98 361.93359375 m 0
 98 173.330214965 214.665625 53.310546875 398 53.310546875 c 0
 583.544326346 53.310546875 701.6171875 173.330214965 701.6171875 361.93359375 c 0
 701.6171875 555.172156521 583.544326346 678.139648438 398 678.139648438 c 0
 214.665625 678.139648438 98 555.172156521 98 361.93359375 c 0
EndSplineSet
EndChar

StartChar: uni0326
Encoding: 452 806 363
Width: 0
Flags: W
HStem: -206.337 211.029
VStem: 0 167.296
LayerCount: 2
Fore
SplineSet
87.78125 4.6923828125 m 25
 167.295898438 -46.287109375 l 25
 44.53125 -206.336914062 l 25
 0 -176.5 l 25
 87.78125 4.6923828125 l 25
EndSplineSet
EndChar

StartChar: dcaron
Encoding: 205 271 403
Width: 672
Flags: W
HStem: -10.0664 86<202.553 371.259> 0 78.4268<551.849 658.38> 421.434 85.5<202.553 369.123> 735.002 20G<458.125 549.249>
VStem: 30 94.25<153.154 342.217> 453.521 54.4795<114.694 410.49> 458.25 90.9199<258.934 755.002> 635 59<484 515.35>
LayerCount: 2
Fore
SplineSet
744.5 741.2421875 m 1x39
 694 479 l 25
 635 484 l 1
 635 751 l 25
 744.5 741.2421875 l 1x39
EndSplineSet
Refer: 5 100 N 1 0 0 1 0 0 2
EndChar

StartChar: Lcaron
Encoding: 251 317 404
Width: 620
Flags: W
HStem: 0 96.293<264.064 591.539> 635.084 95.9258<31.1201 153.151>
VStem: 148.43 115.635<96.293 635.084> 465 65<484 509.396>
LayerCount: 2
Fore
SplineSet
589.5 735.4921875 m 1
 530 479.25 l 1
 465 484 l 1
 472.5 751 l 1
 589.5 735.4921875 l 1
EndSplineSet
Refer: 44 76 N 1 0 0 1 0 0 2
EndChar

StartChar: lcaron
Encoding: 252 318 405
Width: 387
Flags: W
HStem: 0 79.1475<250.799 368.639> 676.325 78.6768<38.5201 156.481>
VStem: 152.16 98.6388<79.1475 676.325> 359 65<484 509.396>
LayerCount: 2
Fore
SplineSet
483.5 735.4921875 m 1
 424 479.25 l 1
 359 484 l 1
 366.5 751 l 1
 483.5 735.4921875 l 1
EndSplineSet
Refer: 8 108 N 1 0 0 1 0 0 2
EndChar

StartChar: tcaron
Encoding: 291 357 409
Width: 426
Flags: W
HStem: 405.5 94.5<229.019 379.25> 415.25 81.75<18 320.231>
VStem: 126.83 96.2988<130.746 463.737> 323 55.75<550.75 578.27>
LayerCount: 2
Fore
SplineSet
426.25 737.4921875 m 1x30
 378.75 550.75 l 1
 323 549 l 1
 326 751 l 1
 426.25 737.4921875 l 1x30
EndSplineSet
Refer: 7 116 N 1 0 0 1 0 0 2
EndChar

StartChar: uni030F
Encoding: 448 783 435
Width: 0
Flags: W
HStem: 514.248 230.246
LayerCount: 2
Fore
SplineSet
83.3740234375 744.494140625 m 1
 218.922851562 551.784179688 l 1
 172.888671875 514.248046875 l 1
 10 688.794921875 l 1
 83.3740234375 744.494140625 l 1
273.374023438 744.494140625 m 1
 408.922851562 551.784179688 l 1
 362.888671875 514.248046875 l 1
 200 688.794921875 l 1
 273.374023438 744.494140625 l 1
EndSplineSet
EndChar

StartChar: uni031B
Encoding: 450 795 463
Width: 0
Flags: W
HStem: 424 326
VStem: 99 87.5<525.837 675.979>
LayerCount: 2
Fore
SplineSet
48 719.5 m 1
 136.5 750 l 1
 136.5 750 186.5 696.444114829 186.5 611 c 0
 186.5 477.463768116 63 424 63 424 c 1
 29 475.5 l 1
 29 475.5 99 516.474190864 99 599.489257812 c 0
 99 663.029454241 48 719.5 48 719.5 c 1
EndSplineSet
EndChar

StartChar: Uhorn
Encoding: 322 431 464
Width: 847
Flags: W
HStem: -10 104.5<334.374 518.518> 635.084 95.9268<38.6201 160.151 466.12 586.401> 658.25 72.7578<676 722.046>
VStem: 148.517 109.393<177.491 561.675> 595.08 107.562<174.531 551.28> 725.75 91.25<736.171 793.346>
LayerCount: 2
Fore
SplineSet
681.25 807.75 m 1xbc
 754 860.93359375 l 1
 754 860.93359375 817 823.456365297 817 759.5 c 0
 817 684.078125 756 660.962053571 676 658.25 c 1
 649 731.0078125 l 1
 701.384920635 731.0078125 725.75 736.179928952 725.75 759.5 c 0
 725.75 789.493243244 681.25 807.75 681.25 807.75 c 1xbc
EndSplineSet
Refer: 53 85 N 1 0 0 1 0 0 2
EndChar

StartChar: uhorn
Encoding: 323 432 465
Width: 687
Flags: W
HStem: -9.93164 85<192.173 338.2> 0 77.6768<502.849 614.38> 435.503 61.5078<488.5 548.959> 477.002 20G<70.8408 165.17 410.31 500.298>
VStem: 50 95<128.079 496.484> 410.5 89.6699<203.068 497.002> 562 90<512.215 594.774>
LayerCount: 2
Fore
SplineSet
513.5 611.002929688 m 1x2e
 584 654.936523438 l 1
 584 654.936523438 652 611.760436316 652 542.5 c 0
 652 464.631512947 589.390181049 437.934681284 488.5 435.502929688 c 1
 449 497.010742188 l 1
 526.126984128 497.010742188 562 511.032211881 562 547.502929688 c 0
 562 595.124352088 513.5 611.002929688 513.5 611.002929688 c 1x2e
EndSplineSet
Refer: 27 117 N 1 0 0 1 0 0 2
EndChar

StartChar: uni01B7
Encoding: 324 439 466
Width: 644
Flags: W
HStem: -183.994 96.75<124.952 392.596> 263.742 86.2583<296.325 415.966> 625.508 105.5<53 430.098>
VStem: 496.417 105<5.14646 188.821>
LayerCount: 2
Fore
SplineSet
295.5 345.5 m 1
 295.5 345.5 314.90931413 350.000488281 348.776123047 350.000488281 c 0
 467.057221651 350.000488281 601.416992188 285.235130496 601.416992188 93.056640625 c 0
 601.416992188 -88.4548276127 471.33378273 -183.994140625 266.916992188 -183.994140625 c 0
 81.7159099018 -183.994140625 3 -117.842773438 3 -117.842773438 c 1
 42.25 -25.427734375 l 1
 42.25 -25.427734375 120.046474907 -87.244140625 263.916992188 -87.244140625 c 0
 427.736512511 -87.244140625 496.416992188 -16.5442351194 496.416992188 94.556640625 c 0
 496.416992188 204.263425296 436.231858864 263.7421875 306.166992188 263.7421875 c 0
 208.158356775 263.7421875 164.0078125 231.43359375 164.0078125 231.43359375 c 1
 126.5 309.5 l 1
 430.09765625 631.5078125 l 1
 46.75 625.5078125 l 1
 53 731.0078125 l 1
 561.516601562 731.0078125 l 1
 579.016601562 659.0078125 l 1
 295.5 345.5 l 1
EndSplineSet
EndChar

StartChar: uni0292
Encoding: 426 658 467
Width: 498
Flags: W
HStem: -183.994 85.75<73.3424 306.041> 141.492 74.0078<202.771 323.333> 477.011 20G<44.6365 423.767>
VStem: 369.667 94.75<-41.6181 95.3042>
LayerCount: 2
Back
SplineSet
20 338 m 5
 30 497 l 5
 399.016601562 497 l 5
 431.016601562 369 l 5
 257.168945312 164 l 5
 441.016601562 170 l 5
 431.016601562 0 l 5
 41 0 l 5
 12 128 l 5
 193.84765625 344 l 5
 20 338 l 5
EndSplineSet
Fore
SplineSet
248 211 m 1
 248 211 263.58146096 215.5 279 215.5 c 0
 377.640265699 215.5 464.416992188 148.075728193 464.416992188 28 c 0
 464.416992188 -115.80131334 365.833752732 -183.994140625 210.916992188 -183.994140625 c 0
 73.0833527887 -183.994140625 14.5 -140.092773438 14.5 -140.092773438 c 1
 38 -58.427734375 l 1
 38 -58.427734375 87.581219952 -98.244140625 208.25 -98.244140625 c 0
 311.961042064 -98.244140625 369.666992188 -49.5409683103 369.666992188 27.056640625 c 0
 369.666992188 96.6375668739 324.753674315 141.4921875 236.916992188 141.4921875 c 0
 168.625747129 141.4921875 127.5078125 112.93359375 127.5078125 112.93359375 c 1
 97.5 177 l 1
 311.59765625 411.5 l 1
 311.59765625 411.5 40 409.25 40 409 c 1
 46 497.010742188 l 1
 423.766601562 497 l 1
 441.516601562 433.75 l 1
 248 211 l 1
EndSplineSet
EndChar

StartChar: infinity
Encoding: 723 8734 470
Width: 579
Flags: W
HStem: 226 69.8379<123.486 235.382 360.549 450.355> 433.634 76.0508<125.246 229.625 335.925 459.323>
VStem: 32.5 74.5693<312.388 416.484> 472.415 74.8691<317.764 422.266>
LayerCount: 2
Fore
SplineSet
472.415039062 369.904296875 m 0
 472.415039062 410.914951788 444.261873839 439.315429688 401.041992188 439.315429688 c 0
 335.589796984 439.315429688 305.229492188 371.619140625 305.229492188 371.619140625 c 1
 277.038085938 428.2109375 l 1
 277.038085938 428.2109375 318.350249516 509.684570312 414.081054688 509.684570312 c 0
 494.078588891 509.684570312 547.284179688 452.792040603 547.284179688 367.248046875 c 0
 547.284179688 279.200746084 493.15126741 226 403.561523438 226 c 0
 328.691571209 226 286.77436265 264.315609553 258.903320312 354.533203125 c 0
 240.612606769 413.665858323 218.160011016 433.633789062 179.670898438 433.633789062 c 0
 134.898572489 433.633789062 107.069335938 406.671413143 107.069335938 363.291015625 c 0
 107.069335938 321.34643564 134.089551614 295.837890625 178.521484375 295.837890625 c 0
 245.422262 295.837890625 282.557617188 377.428710938 282.557617188 377.428710938 c 1
 307.377929688 315.771484375 l 1
 307.377929688 315.771484375 267.605816973 226 162.53515625 226 c 0
 82.8476852613 226 32.5 283.691520266 32.5 367.000976562 c 0
 32.5 454.221875738 87.9847576558 509.684570312 175.237304688 509.684570312 c 0
 250.254001457 509.684570312 295.465638209 460.722340875 320.004882812 388.341796875 c 0
 342.157622269 320.311660446 367.635573846 302.58984375 403.866210938 302.58984375 c 0
 446.375313586 302.58984375 472.415039062 328.160054923 472.415039062 369.904296875 c 0
EndSplineSet
EndChar

StartChar: radical
Encoding: 722 8730 471
Width: 659
Flags: W
HStem: 0 21G<259.621 391.949> 491 20G<14.6099 197.521>
LayerCount: 2
Fore
SplineSet
385.387695312 0 m 1
 266.39453125 0 l 1
 123.378417969 422.310302734 l 1
 20.7338867188 413.599365234 l 1
 14.6098632812 497 l 1
 190.940429688 511 l 1
 327.444335938 96.1540527344 l 1
 541.5 783 l 1
 632.5 753.25 l 1
 385.387695312 0 l 1
EndSplineSet
EndChar

StartChar: lessequal
Encoding: 727 8804 472
Width: 450
Flags: W
HStem: 100.5 83<84.5 410> 108.5 76<41 363.5>
LayerCount: 2
Fore
SplineSet
191.87109375 439.75 m 1x00
 415.349609375 318.5 l 1
 372.849609375 242 l 1
 34.650390625 432 l 1
 372.849609375 651 l 1
 415.349609375 576 l 1
 191.87109375 439.75 l 1x00
41 184.5 m 1x40
 412 183.5 l 1
 410 100.5 l 1x80
 38 108.5 l 1
 41 184.5 l 1x40
EndSplineSet
EndChar

StartChar: greaterequal
Encoding: 728 8805 473
Width: 450
Flags: W
HStem: 100.5 83<84.5 410> 108.5 76<41 363.5>
LayerCount: 2
Fore
SplineSet
258.12890625 453.25 m 1x00
 34.650390625 574.5 l 1
 77.150390625 651 l 1
 415.349609375 461 l 1
 77.150390625 242 l 1
 34.650390625 317 l 1
 258.12890625 453.25 l 1x00
41 184.5 m 1x40
 412 183.5 l 1
 410 100.5 l 1x80
 38 108.5 l 1
 41 184.5 l 1x40
EndSplineSet
EndChar

StartChar: three.ss01.superior
Encoding: 739 -1 507
Width: 390
Flags: W
HStem: 342 72.3525<54.1954 252.107> 566.523 65.185<103.141 243.8> 737.859 21G<42.2831 47.8263> 766.865 76.135<62.1484 245.771>
VStem: 266.853 84.8612<653.36 745.349> 281.827 82.6813<442.5 540.305>
LayerCount: 2
Fore
SplineSet
39.8325 442.52625 m 1xf4
 39.8325 442.52625 90.6525 414.3525 161.6775 414.3525 c 0
 242.57875 414.3525 281.8275 444.2225 281.8275 491.335 c 0xf4
 281.8275 537.64625 244.57875 566.5225 166.56625 566.5225 c 0
 115.74 566.5225 103.13125 562.3175 103.13125 562.3175 c 1
 102.92625 634.11125 l 1
 102.92625 634.11125 115.54125 631.7075 157.3675 631.7075 c 0
 233.5975 631.7075 266.8525 658.3725 266.8525 698.46625 c 0
 266.8525 741.1875 235.3925 766.865 163.46625 766.865 c 0
 93.64 766.865 47.82625 737.85875 47.82625 737.85875 c 1
 27.28625 811.96875 l 1
 27.28625 811.96875 71.665 843 175.40375 843 c 0
 284.5525 843 351.71375 793 351.71375 712 c 0xf8
 351.71375 625.795 268.0925 602.19875 268.0925 602.19875 c 1
 268.0925 602.19875 364.50875 582.39125 364.50875 480.59625 c 0
 364.50875 395.59625 292.745 342 180 342 c 0
 66.8575 342 18.8825 372 18.8825 372 c 1
 39.8325 442.52625 l 1xf4
EndSplineSet
EndChar

StartChar: five.ss02.superior
Encoding: 740 -1 508
Width: 408
Flags: W
HStem: 343 72.75<61.243 262.44> 594.982 69.1725<119.327 268.437> 760.058 121.744<291.715 353.509> 761.058 75.9425<135.446 285.914>
VStem: 291.715 61.7937<837 881.801> 297.827 82.8863<450.022 565.913>
LayerCount: 2
Fore
SplineSet
353.50875 760.0575 m 1xe8
 135.44625 761.0575 l 1
 113.185 638.2725 l 1
 113.185 638.2725 140.6325 664.155 215.54625 664.155 c 0
 328.91875 664.155 380.71375 600.53375 380.71375 508.9875 c 0
 380.71375 394.6275 304.9375 343 186.77625 343 c 0
 67.00625 343 16.2175 379 16.2175 379 c 1
 39.745 446.7625 l 1
 39.745 446.7625 97.55875 415.75 178.58375 415.75 c 0
 258.74625 415.75 297.8275 451.84375 297.8275 507.9875 c 0
 297.8275 561.50375 262.5725 594.9825 194.0625 594.9825 c 0
 128.9125 594.9825 91.49 556.51625 91.49 556.51625 c 1
 30.27375 597.95625 l 1
 73.06875 837 l 1
 285.91375 837 l 1xd4
 291.715 881.80125 l 1
 353.50875 883 l 1
 353.50875 760.0575 l 1xe8
EndSplineSet
EndChar

StartChar: three.ss01.inferior
Encoding: 741 -1 509
Width: 390
Flags: W
HStem: -358 72.3525<54.2415 252.095> -133.477 65.185<103.539 244.412> 66.865 76.135<62.3401 245.67>
VStem: 266.853 84.8612<-46.6204 45.2255> 281.827 82.6813<-257.407 -159.596>
LayerCount: 2
Fore
SplineSet
39.8325 -257.67875 m 1xe8
 39.8325 -257.67875 91.05 -285.6475 162.075 -285.6475 c 0
 242.38 -285.6475 281.8275 -255.7775 281.8275 -208.665 c 0xe8
 281.8275 -162.35375 245.5725 -133.4775 167.56 -133.4775 c 0
 117.33 -133.4775 103.52875 -137.4775 103.52875 -137.4775 c 1
 103.32375 -65.2925 l 1
 103.32375 -65.2925 116.535 -68.2925 157.96375 -68.2925 c 0
 233.79625 -68.2925 266.8525 -41.6275 266.8525 -1.53375 c 0
 266.8525 41.1875 234.79625 66.865 163.46625 66.865 c 0
 94.0375 66.865 48.22375 37.455 48.22375 37.455 c 1
 27.28625 111.77 l 1
 27.28625 111.77 71.665 143 175.40375 143 c 0
 284.5525 143 351.71375 92.205 351.71375 12 c 0xf0
 351.71375 -74.205 268.68875 -97.6025 268.68875 -97.6025 c 1
 268.68875 -97.6025 364.50875 -117.41 364.50875 -219.205 c 0
 364.50875 -304.205 292.745 -358 180 -358 c 0
 66.8575 -358 18.8825 -328 18.8825 -328 c 1
 39.8325 -257.67875 l 1xe8
EndSplineSet
EndChar

StartChar: five.ss02.inferior
Encoding: 742 -1 510
Width: 407
Flags: W
HStem: -357 72.75<61.1551 262.27> -105.017 69.1725<119.212 268.555> 60.0575 121.942<291.715 353.509> 61.0575 75.9425<135.446 285.914>
VStem: 291.715 61.7937<137 182> 297.827 82.8863<-249.978 -134.087>
LayerCount: 2
Fore
SplineSet
353.50875 60.0575 m 1xe8
 135.44625 61.0575 l 1
 113.185 -61.7275 l 1
 113.185 -61.7275 140.6325 -35.845 215.54625 -35.845 c 0
 328.91875 -35.845 380.71375 -99.46625 380.71375 -191.0125 c 0
 380.71375 -305.3725 304.9375 -357 186.77625 -357 c 0
 67.00625 -357 16.2175 -321.59625 16.2175 -321.59625 c 1
 39.745 -253.43625 l 1
 39.745 -253.43625 96.9625 -284.25 177.9875 -284.25 c 0
 258.15 -284.25 297.8275 -248.15625 297.8275 -192.0125 c 0
 297.8275 -138.49625 263.16875 -105.0175 194.0625 -105.0175 c 0
 128.31625 -105.0175 91.49 -143.48375 91.49 -143.48375 c 1
 30.27375 -102.04375 l 1
 73.06875 137 l 1
 285.91375 137 l 1xd4
 291.715 182 l 1
 353.50875 183 l 1
 353.50875 60.0575 l 1xe8
EndSplineSet
EndChar

StartChar: guilsinglleft
Encoding: 651 8249 511
Width: 392
Flags: W
HStem: 491 20G<291.634 329.993>
LayerCount: 2
Fore
SplineSet
148.220703125 254.75 m 1
 366.69921875 71 l 1
 315.19921875 2 l 1
 16 252 l 1
 314.69921875 511 l 1
 366.69921875 443 l 1
 148.220703125 254.75 l 1
EndSplineSet
EndChar

StartChar: guilsinglright
Encoding: 652 8250 512
Width: 392
Flags: W
HStem: 491 20G<61.5725 100.436>
LayerCount: 2
Fore
SplineSet
243.478515625 258.25 m 1
 25 442 l 1
 76.5 511 l 1
 375.69921875 261 l 1
 77 2 l 1
 25 70 l 1
 243.478515625 258.25 l 1
EndSplineSet
EndChar

StartChar: dagger
Encoding: 640 8224 513
Width: 520
Flags: W
HStem: 433.934 94.5<33 223.961> 437.845 82.5244<62.0385 376.571>
VStem: 204 108.329<-170 222.899> 215.616 85.5537<89.1008 788.992>
LayerCount: 2
Fore
SplineSet
33 528.43359375 m 1x80
 253 520.369140625 l 1
 489 531.43359375 l 1
 487 424.43359375 l 1
 256 437.844726562 l 1x40
 31 433.93359375 l 1
 33 528.43359375 l 1x80
307.899414062 788.9921875 m 1
 301.169921875 478 l 1x10
 312.329101562 -170 l 1
 204 -170 l 1x20
 215.616210938 482 l 1x10
 209.169921875 788.9921875 l 1
 307.899414062 788.9921875 l 1
EndSplineSet
EndChar

StartChar: daggerdbl
Encoding: 641 8225 514
Width: 520
Flags: W
HStem: 143.184 94.5<18 221.982> 147.095 82.5244<49.0184 384.401> 443.934 94.5<18 221.982> 447.845 82.5244<49.0184 384.401>
VStem: 204 108.329<-170 48.1667 636.311 788.992> 216 84.8984<36.2052 714.636>
LayerCount: 2
Fore
SplineSet
18 237.68359375 m 1x80
 253 229.619140625 l 1
 504 240.68359375 l 1
 502 133.68359375 l 1
 256 147.094726562 l 1x40
 16 143.18359375 l 1
 18 237.68359375 l 1x80
18 538.43359375 m 1x20
 253 530.369140625 l 1
 504 541.43359375 l 1
 502 434.43359375 l 1
 256 447.844726562 l 1x10
 16 443.93359375 l 1
 18 538.43359375 l 1x20
307.899414062 788.9921875 m 1
 299.169921875 488 l 1
 300.8984375 204 l 1x04
 312.329101562 -170 l 1
 204 -170 l 1x08
 216 204 l 1x04
 217.616210938 492 l 1
 209.169921875 788.9921875 l 1
 307.899414062 788.9921875 l 1
EndSplineSet
EndChar

